<?xml version="1.0" encoding="UTF-8" standalone="no"?>
<!-- Created with Inkscape (http://www.inkscape.org/) -->

<svg
   version="1.1"
   id="svg1"
   width="114.75108"
   height="128.25262"
   viewBox="0 0 114.75109 128.25263"
   sodipodi:docname="hawa.svg"
   inkscape:version="1.3.2 (091e20ef0f, 2023-11-25)"
   inkscape:export-filename="hawa.png"
   inkscape:export-xdpi="41.82967"
   inkscape:export-ydpi="41.82967"
   xmlns:inkscape="http://www.inkscape.org/namespaces/inkscape"
   xmlns:sodipodi="http://sodipodi.sourceforge.net/DTD/sodipodi-0.dtd"
   xmlns="http://www.w3.org/2000/svg"
   xmlns:svg="http://www.w3.org/2000/svg">
  <defs
     id="defs1">
    <inkscape:path-effect
       effect="bspline"
       id="path-effect46"
       is_visible="true"
       lpeversion="1.3"
       weight="33.333333"
       steps="2"
       helper_size="0"
       apply_no_weight="true"
       apply_with_weight="true"
       only_selected="false"
       uniform="false" />
    <inkscape:path-effect
       effect="bspline"
       id="path-effect9"
       is_visible="true"
       lpeversion="1.3"
       weight="33.333333"
       steps="2"
       helper_size="0"
       apply_no_weight="true"
       apply_with_weight="true"
       only_selected="false"
       uniform="false" />
    <inkscape:path-effect
       effect="bspline"
       id="path-effect1"
       is_visible="true"
       lpeversion="1.3"
       weight="33.333333"
       steps="2"
       helper_size="0"
       apply_no_weight="true"
       apply_with_weight="true"
       only_selected="false"
       uniform="false" />
  </defs>
  <sodipodi:namedview
     id="namedview1"
     pagecolor="#e0e0e0"
     bordercolor="#eeeeee"
     borderopacity="1"
     inkscape:showpageshadow="0"
     inkscape:pageopacity="0"
     inkscape:pagecheckerboard="0"
     inkscape:deskcolor="#d1d1d1"
     showgrid="false"
     inkscape:zoom="2.2832847"
     inkscape:cx="43.358588"
     inkscape:cy="94.16259"
     inkscape:window-width="743"
     inkscape:window-height="1415"
     inkscape:window-x="0"
     inkscape:window-y="0"
     inkscape:window-maximized="0"
     inkscape:current-layer="g2" />
  <g
     inkscape:groupmode="layer"
     inkscape:label="Image"
     id="g1"
     transform="translate(-158.48413,-38.025522)">
    <g
       id="g2">
      <path
         style="display:inline;fill:#258758"
         d="m 193.31167,166.25789 c 20.33872,0.93595 21.65673,-30.83676 9.7206,-38.57533 -9.84078,6.45513 -23.6232,9.73067 -34.06148,1.92436 -18.76213,-11.121 -10.11864,-45.975257 10.64312,-47.52498 16.64398,7.341146 24.8106,-2.987903 22.88331,-17.030736 -8.29159,-4.035657 -14.76469,-16.766029 -1.90461,-21.597757 -12.60386,11.791628 12.78833,15.100286 4.47492,30.434283 2.23318,20.356114 21.09088,-0.364459 11.5253,-12.086109 2.25098,-12.080252 0.83299,14.975926 6.77094,15.289035 3.45676,24.037974 18.22057,-11.030492 40.6998,3.578632 20.98973,11.487268 -0.48439,44.151662 -18.79488,41.096902 -13.02655,-9.60094 -20.56616,11.6917 -13.47718,19.48828 -14.8048,5.22705 7.09163,29.1106 18.00608,20.95604 z m 35.10702,-29.74618 c -0.0634,-12.97958 -7.06244,3.97094 0,0 z M 184.4,132.88852 c -4.61757,-0.45423 -0.91503,0.45772 0,0 z m 54.82157,-51.64343 c -0.9881,-0.01968 -2.89387,2.354744 0,0 z m -18.18824,-3.99842 c -1.26707,-0.672466 -0.29909,0.721069 0,0 z m -2.31071,-16.758395 c 5.66233,-4.413564 4.18224,-29.578342 10.1485,-20.505308 -0.63806,9.490931 1.03808,18.779524 -10.1485,20.505308 z"
         id="path5"
         sodipodi:nodetypes="ccccccccccccccccccccccccc" />
      <path
         style="display:inline;fill:#305171"
         d="m 203.03227,127.68256 c -9.84078,6.45513 -23.6232,9.73067 -34.06148,1.92436 -20.14579,-11.80226 -9.02933,-50.91386 14.40838,-47.48937 13.11743,8.607139 20.57548,-8.156568 19.07597,-18.77788 -13.69936,-0.637664 -9.74284,-20.42893 -2.10521,-18.458386 -11.81521,10.495093 13.39678,14.360709 4.7176,29.006446 2.23318,20.356114 21.09088,-0.364459 11.5253,-12.086109 2.25098,-12.080252 0.83299,14.975926 6.77094,15.289035 3.45676,24.037974 13.65809,-11.337534 40.6998,3.578632 20.30963,11.685571 0.79844,40.083962 -16.18437,41.767242 4.64135,-5.60669 8.67434,0.86876 16.15183,-11.41465 19.68725,-12.036935 -0.27583,-39.914879 -19.93887,-32.296757 -14.69978,6.483464 -16.92668,19.344818 -8.85297,34.170967 13.20171,7.85821 -16.26792,11.82368 -4.20392,23.8603 -1.21028,2.67317 -4.89766,8.55023 -6.08619,6.60528 -6.61811,-10.8301 -14.95137,-14.75888 -21.91681,-15.67911 z m -16.61035,4.98893 c 20.07116,-0.50447 30.24982,-24.60229 15.81608,-38.18355 -38.66588,-40.865853 -64.91345,42.55144 -15.81608,38.18355 z m 34.61141,-55.42482 c -1.26707,-0.672466 -0.29909,0.721069 0,0 z m -2.31071,-16.758395 c 5.66233,-4.413564 4.18224,-29.578342 10.1485,-20.505308 -0.63806,9.490931 1.03808,18.779524 -10.1485,20.505308 z"
         id="path4"
         sodipodi:nodetypes="ccccccccccccccsccccccccc" />
      <path
         style="display:inline;fill:#2d2d2d"
         d="m 209.42833,128.34061 c 8.78218,3.76505 15.39632,2.05006 22.20657,-3.91072 -7.15076,7.36825 10.33873,21.03569 -8.73835,20.69886 0.39074,-17.12919 -1.90421,11.19879 -14.35318,-10.10033 z m 16.60493,13.30037 c 0.49839,-10.16135 -6.25653,-8.7401 -3.56756,-3.20873 1.42063,0.23981 4.45972,6.7807 3.56756,3.20873 z m 2.38543,-5.12927 c -0.0634,-12.97958 -7.06244,3.97094 0,0 z M 180.64,134.35528 c -25.57025,-2.73583 -28.48087,-37.456465 -9.2145,-50.38571 9.7873,-6.80599 29.15052,6.491564 10.07242,0.505804 -20.52254,-2.616703 -29.23448,33.859686 -11.23587,43.189896 13.60391,12.33356 39.48116,0.77767 37.52036,-18.08346 4.80858,-10.244159 -26.0446,-31.507593 -4.82686,-16.380542 12.80029,12.417522 7.05587,32.514482 -8.40471,39.548692 -4.93754,-1.39547 -9.16448,2.54019 -13.91084,1.60532 z m 38.22095,-9.03645 c -9.62028,1.13793 -12.33393,-3.92879 -5.68143,-10.41428 3.70698,1.83817 6.32986,7.98679 5.68143,10.41428 z m 10.63373,-3.85101 c 3.03253,-8.66584 -4.48734,-28.100195 2.59262,-9.3828 9.92176,3.24007 -2.94247,10.48411 -2.59262,9.3828 z m 18.15127,0.95615 c -9.73616,-2.05872 16.36884,-2.49006 15.95389,-12.32189 19.00241,-13.437721 -3.64649,-40.721236 -21.77033,-30.405007 -6.55732,4.124693 -13.57218,15.946199 -5.79113,2.574863 14.6489,-17.100127 49.13253,5.017244 32.98818,24.241454 -5.35276,6.62091 -11.7608,16.67427 -21.38061,15.91058 z m -12.21262,-8.6973 c -1.06512,-1.62876 1.42984,-0.45834 0,0 z m -7.92125,-15.347487 c -6.57307,-9.098195 2.61803,-17.021371 0.70971,-3.878816 l -0.082,4.28413 -0.23683,0.335286 z m -8.29909,-7.945021 c 1.26725,-9.427914 -19.15361,-5.782976 -4.38518,-9.019867 8.80992,-5.273579 -2.65435,-36.627789 4.66484,-14.854173 0.48415,9.606057 9.07655,20.985078 0.67812,11.919876 -0.76591,2.118699 0.18606,13.095574 -0.95778,11.954164 z m -17.37511,-1.366141 c -9.89628,-2.517374 -0.48243,-9.22078 -4.64867,-8.266903 8.41712,-8.393374 6.12515,-18.857189 -3.93495,-24.957455 -3.83454,-8.425377 15.77781,-18.574614 2.26574,-4.031823 12.83669,3.05273 11.47235,26.800024 9.76451,29.745608 -6.93188,-16.587605 -2.74264,12.045035 -3.44663,7.510573 z m 16.88474,-28.579746 c 5.66233,-4.413563 4.18224,-29.578342 10.1485,-20.505308 -0.63806,9.490931 1.03808,18.779524 -10.1485,20.505308 z"
         id="path3"
         sodipodi:nodetypes="ccccccccccccccccccccccccccccccccccccccccccccccccccc" />
      <path
         style="display:inline;fill:#0c4b2d"
         d="m 220.08797,164.66406 c -13.24792,-4.63218 -10.43272,-0.004 -8.63386,-11.30065 1.31375,-6.75026 -3.03421,-17.19868 -2.97003,-21.5234 1.13203,11.92908 18.00275,12.17228 12.60253,25.86797 -0.77781,6.25939 0.68031,3.0753 -0.99864,6.95608 z m 7.13729,-4.21072 c 0.20594,-1.23326 0.32444,1.45653 0,0 z m -0.60288,-8.93333 c 0.34873,-1.51972 0.18782,1.92755 0,0 z m -2.56454,-11.70629 c -5.97609,1.90674 -8.65469,-4.57849 -10.9272,-8.93371 4.70085,4.74903 18.21,-2.59994 9.38881,6.39323 -1.87278,1.86135 4.42768,1.89995 1.53839,2.54048 z m -43.89298,-21.70121 c -1.47815,-12.18625 8.6492,2.21571 0,0 z m 6.19993,9.72138 c -2.63137,-6.24832 4.28991,1.21132 0,0 z m -12.16207,-18.38468 c -0.47073,-9.30803 6.57063,3.77186 0,0 z m 4.36149,-1.34646 c 0.60263,-11.231472 9.04097,1.62694 0,0 z m 21.04667,13.2099 c -5.68912,-4.21867 5.65677,-0.32107 0,0 z m -20.70292,3.24195 c 0.36972,-5.5172 4.55445,1.27118 0,0 z m 0.42468,4.63959 c 0.26608,-4.41363 2.97592,2.3188 0,0 z m -5.34655,-11.31476 c 1.11727,-5.22217 4.81688,-1.2987 0,0 z m 74.15018,-19.922809 c -4.10831,-6.67101 6.25908,0.0876 0,0 z M 190.4,117.12001 c -1.33929,-6.17676 5.94612,1.40034 0,0 z m -18.88074,6.54762 c 0.70013,-2.97157 2.16467,1.70729 0,0 z m 71.81141,-10.18865 c 0.55453,-4.16277 2.90459,2.00911 0,0 z m -55.89893,8.80417 c -1.23778,-6.93752 5.12186,0.24532 0,0 z M 201.6,112.96001 c -1.44665,-7.57789 8.48646,2.23125 0,0 z m 33.81333,0.42666 c -0.98557,-1.4492 1.40794,0.27371 0,0 z m -64.36407,-10.55016 c -2.04111,-5.972276 9.37109,1.05787 0,0 z m 1.57351,9.77561 c 0.53149,-3.06761 2.60207,1.36762 0,0 z m 23.60123,-0.99611 c -1.58483,-5.92106 6.03545,0.7679 0,0 z m -26.33629,5.09788 c 1.2059,-4.29356 3.7333,1.47816 0,0 z m 86.86332,-19.531956 c -2.12305,-9.1617 6.65887,0.27035 0,0 z M 190.784,110.01601 c -1.43399,-4.60226 3.46147,0.75342 0,0 z m 55.63061,-0.71839 c -0.15683,-6.6294 5.12963,1.54014 0,0 z m -82.18054,9.07782 c -0.3967,-2.9361 3.25078,1.16602 0,0 z m 71.95959,-10.97488 c 0.46586,-5.02254 5.90927,1.64265 0,0 z m -71.5945,4.06791 c 1.95627,-2.39563 2.1913,1.01294 0,0 z m 37.46361,-6.21635 c 0.28618,-2.41403 1.85833,1.317 0,0 z m 52.19537,-1.00332 c -1.62758,-7.578891 5.91798,2.10551 0,0 z m -91.29063,0.94631 c 0.78416,-1.4906 1.77528,1.3836 0,0 z m 78.73995,-1.0566 c 0.82258,-4.01803 2.41783,2.17258 0,0 z M 262.56,103.94187 c -5.15658,-4.952099 7.578,0.95596 0,-3e-5 z m -97.21374,-6.123263 c -0.16036,-3.32605 2.88458,1.42118 0,0 z m 25.0103,-8.319446 c 0.24398,-2.89566 2.11284,0.64033 0,0 z m -3.01199,17.025449 c -5.44072,-7.030437 9.94269,-1.31579 0,0 z m 6.89868,-3.09763 c -0.83981,-4.24002 5.69069,1.59238 0,0 z m 40.54358,0.0532 c -0.47452,-3.717927 4.381,0.346 0,0 z m 12.11602,-0.30302 c -1.1327,-5.641544 6.2679,1.91529 0,0 z m -48.18126,-3.417145 c 2.24141,-7.333443 2.83847,3.131815 0,0 z m -16.64159,-0.08 c 1.22636,-1.721973 1.22639,1.721965 0,0 z m -6.64905,-10.981989 c -0.96206,-3.16894 2.96616,1.240549 0,0 z m 13.79947,10.008188 c -0.17925,-2.85721 2.23361,2.080556 0,0 z m 68.49922,11.135166 c -0.76472,-4.6806 4.39792,2.06007 0,0 z m -85.546,-12.372877 c 0.12509,-3.344489 2.30885,2.701637 0,0 z m 70.08884,-15.931629 c 1.13514,-1.704269 1.08029,1.426559 0,0 z m 9.21824,31.733656 c -2.59675,-4.14338 4.31936,0.54078 0,0 z M 238.45443,90.103884 c -2.86654,-4.848923 7.05297,2.335019 0,0 z m -4.41154,6.074809 c -0.16666,-4.725088 4.72363,1.764418 0,0 z m -58.47358,-0.94834 c -1.42151,-3.480704 2.36316,1.83713 0,0 z m 75.93101,-0.210027 c -1.93036,-5.069607 5.46703,2.396549 0,0 z m -67.34902,0.0056 c 0.98936,-4.398889 3.42153,0.530961 0,0 z m 7.51985,-0.156592 c -0.51665,-2.745132 3.23172,1.170835 0,0 z m 51.5129,-0.819141 c -0.78764,-5.973272 5.1277,2.876962 0,0 z m -76.76141,12.144887 c -1.19478,-1.46115 2.15521,1.73866 0,0 z m 27.18171,-13.072392 c -1.38126,-3.510305 4.06846,0.509478 0,0 z m 71.80764,3.048962 c -0.49914,-2.900822 2.74321,1.543426 0,0 z m -95.9164,-3.950227 c -0.61849,-4.767224 4.94289,2.235842 0,0 z m 91.9915,-1.444687 c -0.40317,-4.653167 4.76938,1.427219 0,0 z m -82.80556,6.887943 c -0.99667,-7.907963 5.37033,1.806669 0,0 z M 184.96,90.575055 c 1.19645,-4.908854 2.81407,0.881113 0,0 z m 49.49847,0.406577 c -1.85174,-4.09871 4.97727,-0.488808 0,0 z m 6.01745,7.735411 c -1.53938,-6.959633 6.6083,2.959877 0,0 z m 7.59208,-9.817042 c -1.77241,-4.788334 3.54908,0.8919 0,0 z m 13.56563,-3.762998 c 0.81758,-1.147985 0.81758,1.147985 0,0 z M 245.184,86.016004 c -1.58127,-6.861644 4.74299,1.003294 0,0 z m 9.43082,3.491116 c -1.02539,-6.759897 4.58924,0.745924 0,0 z m -3.68081,-6.038648 c 1.85884,-2.507589 0.46023,2.28498 0,0 z M 253.06,78.181407 c 1.78896,-0.276258 -0.5502,0.548637 0,0 z"
         id="path2"
         sodipodi:nodetypes="cccccccccccccccccccccccccccccccccccccccccccccccccccccccccccccccccccccccssscccccccccccccccccccccccccccccccccccccccccccccccccccccccccccccccccccccccc" />
    </g>
  </g>
</svg>
