<?xml version="1.0" encoding="UTF-8" standalone="no"?>
<!-- Created with Inkscape (http://www.inkscape.org/) -->

<svg
   width="73.155586mm"
   height="75.289749mm"
   viewBox="0 0 73.155587 75.28975"
   version="1.1"
   id="svg1"
   xml:space="preserve"
   inkscape:version="1.4 (e7c3feb100, 2024-10-09)"
   sodipodi:docname="agrotis.svg"
   xmlns:inkscape="http://www.inkscape.org/namespaces/inkscape"
   xmlns:sodipodi="http://sodipodi.sourceforge.net/DTD/sodipodi-0.dtd"
   xmlns="http://www.w3.org/2000/svg"
   xmlns:svg="http://www.w3.org/2000/svg"><sodipodi:namedview
     id="namedview1"
     pagecolor="#505050"
     bordercolor="#eeeeee"
     borderopacity="1"
     inkscape:showpageshadow="0"
     inkscape:pageopacity="0"
     inkscape:pagecheckerboard="0"
     inkscape:deskcolor="#d1d1d1"
     inkscape:document-units="mm"
     inkscape:zoom="1.048534"
     inkscape:cx="170.71454"
     inkscape:cy="394.83698"
     inkscape:window-width="2160"
     inkscape:window-height="1440"
     inkscape:window-x="0"
     inkscape:window-y="0"
     inkscape:window-maximized="0"
     inkscape:current-layer="layer1" /><defs
     id="defs1"><inkscape:path-effect
       effect="bspline"
       id="path-effect5"
       is_visible="true"
       lpeversion="1.3"
       weight="33.333333"
       steps="2"
       helper_size="0"
       apply_no_weight="true"
       apply_with_weight="true"
       only_selected="false"
       uniform="false" /><inkscape:path-effect
       effect="bspline"
       id="path-effect4"
       is_visible="true"
       lpeversion="1.3"
       weight="33.333333"
       steps="2"
       helper_size="0"
       apply_no_weight="true"
       apply_with_weight="true"
       only_selected="false"
       uniform="false" /><inkscape:path-effect
       effect="bspline"
       id="path-effect3"
       is_visible="true"
       lpeversion="1.3"
       weight="33.333333"
       steps="2"
       helper_size="0"
       apply_no_weight="true"
       apply_with_weight="true"
       only_selected="false"
       uniform="false" /><inkscape:path-effect
       effect="bspline"
       id="path-effect2"
       is_visible="true"
       lpeversion="1.3"
       weight="33.333333"
       steps="2"
       helper_size="0"
       apply_no_weight="true"
       apply_with_weight="true"
       only_selected="false"
       uniform="false" /><inkscape:path-effect
       effect="bspline"
       id="path-effect1"
       is_visible="true"
       lpeversion="1.3"
       weight="33.333333"
       steps="2"
       helper_size="0"
       apply_no_weight="true"
       apply_with_weight="true"
       only_selected="false"
       uniform="false" /></defs><g
     inkscape:label="Layer 1"
     inkscape:groupmode="layer"
     id="layer1"
     transform="translate(-59.825714,-43.969153)"><path
       style="fill:#734933;fill-opacity:1;fill-rule:evenodd;stroke-width:0.264999;paint-order:stroke markers fill"
       d="m 158.76168,155.60748 c -5.25701,1.34579 -11.98598,2.60747 -17.28508,0.1261 -5.29911,-2.48137 -9.16819,-8.70554 -15.18229,-11.85975 -6.0141,-3.15421 -14.17282,-3.23832 -20.39716,-1.72427 -6.224337,1.51405 -10.513973,4.62614 -12.827061,7.19158 -2.313088,2.56544 -2.64953,4.58409 -3.490664,5.42521 -0.841133,0.84112 -2.186902,0.50468 -2.523345,-3.95335 -0.336443,-4.45803 0.336441,-13.0373 2.01871,-19.34575 1.68227,-6.30845 4.373808,-10.34576 8.411244,-13.2897 4.037436,-2.94394 9.420506,-4.79437 12.448556,-9.12622 3.02804,-4.33184 3.70092,-11.14479 3.11212,-15.64481 -0.5888,-4.500021 -2.43923,-6.686893 -0.42048,-8.873832 2.01875,-2.186939 7.90648,-4.373811 16.6122,-4.373789 8.70572,2.1e-5 20.22886,2.186895 27.04196,9.925345 6.81311,7.73845 8.91587,21.027906 11.27103,29.018586 2.35517,7.99068 4.96259,10.68221 5.67754,15.18228 0.71494,4.50006 -0.46261,10.80835 -2.94395,14.67752 -2.48135,3.86917 -6.26632,5.29905 -11.52333,6.64485 z"
       id="path1"
       inkscape:path-effect="#path-effect1"
       inkscape:original-d="m 160.23364,155.69159 c -6.72897,1.26168 -13.45794,2.52336 -20.18691,3.78504 -3.86924,-6.22442 -7.73832,-12.44859 -11.60748,-18.67289 -8.15904,-0.0841 -16.31776,-0.16823 -24.47663,-0.25234 -4.289809,3.11221 -8.579443,6.2243 -12.869164,9.33645 -0.336455,2.01873 -0.672897,4.03738 -1.009346,6.05607 -1.345819,-0.33645 -2.691588,-0.67289 -4.037383,-1.00934 0.672912,-8.57961 1.345795,-17.15888 2.018691,-25.73832 2.691644,-4.03746 5.383178,-8.07477 8.074769,-12.11215 5.383283,-1.8505 10.766353,-3.70094 16.149533,-5.5514 0.67291,-6.81322 1.34579,-13.62617 2.01869,-20.439254 -1.8505,-2.186959 -3.70093,-4.37383 -5.5514,-6.560746 5.88797,-2.186961 11.7757,-4.373833 17.66355,-6.560749 11.52359,2.186961 23.04673,4.373833 34.57009,6.560749 2.10285,13.289983 4.20561,26.57944 6.30841,39.86916 2.60753,2.69164 5.21496,5.38317 7.82243,8.07476 -1.17759,6.30854 -2.35514,12.61683 -3.53271,18.92524 -3.78512,1.42993 -7.57009,2.85981 -11.35514,4.28972 z"
       transform="matrix(0.47378132,0,0,0.49205971,50.729327,41.455052)" /><path
       style="fill:#34150a;fill-opacity:1;fill-rule:evenodd;stroke-width:0.264999;paint-order:stroke markers fill"
       d="m 112.28972,86.551401 c 1.85047,1.261682 3.70093,2.523363 4.33177,6.855214 0.63083,4.331851 0.0421,11.733565 -3.19631,16.696205 -3.23838,4.96265 -9.12612,7.48596 -12.95324,10.97666 -3.827115,3.4907 -5.593433,7.94855 -6.392498,11.8598 -0.799065,3.91125 -0.630845,7.27567 1.934626,7.90649 2.565471,0.63082 7.527982,-1.47194 12.869162,-2.64951 5.34118,-1.17757 11.06069,-1.4299 16.23363,0.50471 5.17295,1.93462 9.79903,6.05604 13.75233,8.74764 3.9533,2.6916 7.23361,3.95325 12.49069,3.15416 5.25708,-0.79909 12.49059,-3.65885 16.52798,-5.92989 4.03739,-2.27105 4.87849,-3.95326 5.71961,-5.6355 -1.09346,4.37383 -2.18691,8.74767 -3.70095,11.3131 -1.51404,2.56542 -3.44858,3.32242 -5.38316,4.07943 -5.46729,1.34579 -10.93458,2.69159 -15.93929,2.69157 -5.00472,-1e-5 -9.54669,-1.34578 -13.20559,-3.65889 -3.65891,-2.31312 -6.43456,-5.59343 -9.37851,-7.90653 -2.94396,-2.3131 -6.05605,-3.65887 -10.8505,-3.65885 -4.79446,1e-5 -11.27097,1.34578 -15.560709,3.11215 -4.289738,1.76638 -6.392504,3.95326 -7.612132,6.64488 -1.219629,2.69162 -1.55607,5.88781 -2.271034,6.39247 -0.714964,0.50465 -1.808403,-1.68223 -2.186902,-5.34116 -0.3785,-3.65893 -0.04206,-8.78967 0.294394,-15.05609 0.336451,-6.26643 0.672893,-13.66815 4.331842,-18.50462 3.65895,-4.83648 10.640121,-7.10746 14.551341,-12.11221 3.91122,-5.00475 4.75233,-12.742913 5.59345,-20.481229 z"
       id="path2"
       inkscape:path-effect="#path-effect2"
       inkscape:original-d="m 112.28972,86.551401 c 0,0 3.70093,2.523363 5.5514,3.785047 -0.5888,7.402018 -1.17757,14.803732 -1.76635,22.205602 -5.88797,2.52342 -11.77571,5.04673 -17.663556,7.5701 -1.76639,4.45803 -3.532711,8.91588 -5.299064,13.37383 0.168227,3.36455 0.336446,6.72897 0.504671,10.09346 4.962716,-2.10285 9.925229,-4.20561 14.887849,-6.30841 5.71974,-0.25235 11.43925,-0.50468 17.15888,-0.75701 4.62626,4.12157 9.25234,8.24299 13.87851,12.36448 3.28043,1.26171 6.56074,2.52337 9.84112,3.78505 7.23378,-2.85987 14.46729,-5.71963 21.70093,-8.57944 0.84114,-1.68228 2.52336,-5.04673 2.52336,-5.04673 0,0 -2.18691,8.74767 -3.28037,13.1215 -1.93462,0.75702 -5.80374,2.27103 -5.80374,2.27103 0,0 -10.93458,2.69158 -16.40187,4.03738 -4.54214,-1.34582 -9.08411,-2.69159 -13.62616,-4.03738 -2.77576,-3.28044 -5.55141,-6.56075 -8.32711,-9.84113 -3.11221,-1.34582 -6.2243,-2.69159 -9.33644,-4.03738 -6.47677,1.34582 -12.95328,2.69159 -19.429912,4.03738 -2.102845,2.18696 -4.205607,4.37384 -6.308412,6.56075 -0.336455,3.19633 -0.672897,6.39252 -1.009346,9.58879 -1.093478,-2.18696 -2.186914,-4.37384 -3.280373,-6.56075 0.336455,-5.13095 0.672896,-10.26169 1.009346,-15.39252 0.336454,-7.40202 0.672896,-14.80374 1.009345,-22.20561 6.98145,-2.27108 13.962622,-4.54206 20.943922,-6.81309 0.84114,-7.73847 2.52337,-23.214949 2.52337,-23.214949 z"
       transform="matrix(0.47378132,0,0,0.49205971,50.729327,41.455052)" /><path
       style="fill:#34150a;fill-opacity:1;fill-rule:evenodd;stroke-width:0.264999;paint-order:stroke markers fill"
       d="M 106.19158,82.7243 C 100.68224,74.859815 89.579437,60.897198 74.607286,48.658774 59.635135,36.42035 40.794392,25.906542 31.079433,18.967256 21.364474,12.02797 20.775701,8.6635512 20.271024,6.7710236 19.766346,4.8784959 19.345794,4.4579439 19.219627,6.2663954 c -0.126166,1.8084516 0.04206,5.8457536 9.883371,13.5841856 9.841317,7.738432 29.354555,19.177226 44.70533,32.172813 15.350775,12.995588 26.537242,27.546404 32.172862,33.939057 5.63563,6.392654 5.71974,4.626334 0.21039,-3.238151 z"
       id="path3"
       inkscape:path-effect="#path-effect3"
       inkscape:original-d="M 111.78504,88.82243 C 100.68224,74.859814 89.579438,60.897197 78.476635,46.93458 59.635135,36.42035 40.794392,25.906542 21.953271,15.392523 21.364474,12.02797 20.775701,8.6635512 20.186916,5.2990654 19.766346,4.8784962 19.345794,4.4579439 18.925233,4.0373831 c 0.168228,4.0374639 0.336449,8.0747659 0.504673,12.1121499 19.514409,11.43948 39.027647,22.878275 58.542057,34.317755 11.187139,14.551694 22.373607,29.102508 33.560747,43.654207 0.0841,-1.766391 0.16822,-3.53271 0.25233,-5.299065 z"
       sodipodi:nodetypes="ccccccccc"
       transform="matrix(0.47378132,0,0,0.49205971,50.729327,41.455052)" /><path
       style="fill:#34150a;fill-opacity:1;fill-rule:evenodd;stroke-width:0.264999;paint-order:stroke markers fill"
       d="m 113.17289,81.126169 c -0.54672,-3.406543 -2.73364,-9.462619 -5.59348,-15.098184 -2.85985,-5.635565 -6.39249,-10.850413 -8.200906,-17.70564 -1.808414,-6.855226 -1.892524,-15.350383 -0.546701,-21.07004 1.345827,-5.719657 4.121467,-8.66352 5.172857,-10.261654 1.0514,-1.598133 0.37852,-1.850463 -1.89255,-0.294355 -2.271067,1.556108 -6.140149,4.920525 -7.822387,11.481371 -1.682239,6.560846 -1.177575,16.317661 1.514063,24.056035 2.691639,7.738374 7.570044,13.457884 10.556044,18.757 2.98599,5.299115 4.07942,10.17752 5.17289,12.23826 1.09347,2.060741 2.1869,1.303749 1.64017,-2.102793 z"
       id="path4"
       inkscape:path-effect="#path-effect4"
       inkscape:original-d="m 114.81308,83.7757 c -2.18691,-6.056075 -4.37383,-12.112149 -6.56074,-18.168223 -3.53278,-5.215059 -7.06542,-10.429907 -10.598136,-15.64486 -0.08411,-8.495498 -0.168225,-16.990655 -0.252336,-25.485982 2.775762,-2.943984 5.551402,-5.88785 8.327102,-8.831775 -0.67291,-0.252342 -1.34579,-0.504673 -2.01869,-0.75701 -3.869237,3.364554 -7.738318,6.728972 -11.607479,10.093458 0.504685,9.757205 1.009349,19.51402 1.51402,29.271028 4.878602,5.719741 9.757009,11.439252 14.635519,17.158877 1.09348,4.878604 2.18691,9.75701 3.28037,14.635514 1.09348,-0.757023 2.18691,-1.514017 3.28037,-2.271027 z"
       transform="matrix(0.47378132,0,0,0.49205971,50.729327,41.455052)" /><path
       style="fill:#181913;fill-opacity:1;fill-rule:evenodd;stroke-width:0.264999;paint-order:stroke markers fill"
       d="m 112.5,89.116825 c -1.55608,-2.397197 -7.19159,1.051399 -9.84112,5.214998 -2.64953,4.1636 -2.31309,9.042007 -2.60749,12.532677 -0.294396,3.49067 -1.219598,5.5934 0.16828,5.55134 1.38788,-0.0421 5.08867,-2.22888 8.20088,-7.44394 3.11221,-5.215057 5.63552,-13.457878 4.07945,-15.855075 z"
       id="path5"
       inkscape:path-effect="#path-effect5"
       inkscape:original-d="m 116.57944,83.271027 c -5.63552,3.4486 -11.27103,6.897198 -16.906545,10.345794 0.336455,4.878602 0.672895,9.757009 1.009345,14.635519 -0.925245,2.10283 -1.850449,4.20556 -2.775703,6.30841 3.701013,-2.18696 7.401803,-4.37379 11.102803,-6.56075 2.52342,-8.243156 5.04673,-16.485979 7.5701,-24.728973 z"
       sodipodi:nodetypes="cccccc"
       transform="matrix(0.47378132,0,0,0.49205971,50.729327,41.455052)" /></g></svg>
