<?xml version="1.0" encoding="UTF-8" standalone="no"?>
<!-- Created with Inkscape (http://www.inkscape.org/) -->

<svg
   width="21.896206mm"
   height="19.103437mm"
   viewBox="0 0 21.896206 19.103437"
   version="1.1"
   id="svg1"
   xml:space="preserve"
   inkscape:version="1.4 (e7c3feb100, 2024-10-09)"
   sodipodi:docname="brachyura.svg"
   xmlns:inkscape="http://www.inkscape.org/namespaces/inkscape"
   xmlns:sodipodi="http://sodipodi.sourceforge.net/DTD/sodipodi-0.dtd"
   xmlns="http://www.w3.org/2000/svg"
   xmlns:svg="http://www.w3.org/2000/svg"><sodipodi:namedview
     id="namedview1"
     pagecolor="#505050"
     bordercolor="#eeeeee"
     borderopacity="1"
     inkscape:showpageshadow="0"
     inkscape:pageopacity="0"
     inkscape:pagecheckerboard="0"
     inkscape:deskcolor="#d1d1d1"
     inkscape:document-units="mm"
     inkscape:zoom="2.7758472"
     inkscape:cx="42.149295"
     inkscape:cy="107.53474"
     inkscape:window-width="2158"
     inkscape:window-height="1415"
     inkscape:window-x="0"
     inkscape:window-y="0"
     inkscape:window-maximized="0"
     inkscape:current-layer="layer1" /><defs
     id="defs1"><inkscape:path-effect
       effect="bspline"
       id="path-effect9"
       is_visible="true"
       lpeversion="1.3"
       weight="33.333333"
       steps="2"
       helper_size="0"
       apply_no_weight="true"
       apply_with_weight="true"
       only_selected="false"
       uniform="false" /><inkscape:path-effect
       effect="bspline"
       id="path-effect8"
       is_visible="true"
       lpeversion="1.3"
       weight="33.333333"
       steps="2"
       helper_size="0"
       apply_no_weight="true"
       apply_with_weight="true"
       only_selected="false"
       uniform="false" /><inkscape:path-effect
       effect="bspline"
       id="path-effect7"
       is_visible="true"
       lpeversion="1.3"
       weight="33.333333"
       steps="2"
       helper_size="0"
       apply_no_weight="true"
       apply_with_weight="true"
       only_selected="false"
       uniform="false" /><inkscape:path-effect
       effect="bspline"
       id="path-effect6"
       is_visible="true"
       lpeversion="1.3"
       weight="33.333333"
       steps="2"
       helper_size="0"
       apply_no_weight="true"
       apply_with_weight="true"
       only_selected="false"
       uniform="false" /><inkscape:path-effect
       effect="bspline"
       id="path-effect5"
       is_visible="true"
       lpeversion="1.3"
       weight="33.333333"
       steps="2"
       helper_size="0"
       apply_no_weight="true"
       apply_with_weight="true"
       only_selected="false"
       uniform="false" /><inkscape:path-effect
       effect="bspline"
       id="path-effect3"
       is_visible="true"
       lpeversion="1.3"
       weight="33.333333"
       steps="2"
       helper_size="0"
       apply_no_weight="true"
       apply_with_weight="true"
       only_selected="false"
       uniform="false" /><inkscape:path-effect
       effect="bspline"
       id="path-effect1"
       is_visible="true"
       lpeversion="1.3"
       weight="33.333333"
       steps="2"
       helper_size="0"
       apply_no_weight="true"
       apply_with_weight="true"
       only_selected="false"
       uniform="false" /><inkscape:path-effect
       effect="bspline"
       id="path-effect5-0"
       is_visible="true"
       lpeversion="1.3"
       weight="33.333333"
       steps="2"
       helper_size="0"
       apply_no_weight="true"
       apply_with_weight="true"
       only_selected="false"
       uniform="false" /></defs><g
     inkscape:label="Layer 1"
     inkscape:groupmode="layer"
     id="layer1"
     transform="translate(-104.27598,-70.3032)"><g
       id="g9"><path
         style="fill:#c99484;fill-opacity:1;fill-rule:evenodd;stroke-width:0.264999;paint-order:stroke markers fill"
         d="m 105.95711,89.120689 c 0.0751,-4.73404 0.15013,-9.468081 1.50622,-12.534099 1.3561,-3.066018 3.99313,-4.463962 7.05917,-4.003247 3.06604,0.460716 6.5609,2.780034 8.1495,5.385373 1.5886,2.605339 1.27089,5.496544 0.95317,8.387804 -3.17721,-0.698986 -6.35442,-1.397973 -9.29912,-0.937262 -2.9447,0.460712 -5.65679,2.081055 -8.36894,3.701431 z"
         id="path5"
         inkscape:path-effect="#path-effect6"
         inkscape:original-d="m 105.95711,89.120689 c 0,0 0.15013,-9.468081 0.22519,-14.20212 2.63713,-1.398 5.27416,-2.795942 7.91125,-4.193916 3.49499,2.319409 6.98985,4.638726 10.48478,6.958087 -0.31772,2.891316 -0.95316,8.67378 -0.95316,8.67378 0,0 -6.35442,-1.397974 -9.53162,-2.096958 -2.7122,1.620409 -8.13644,4.861127 -8.13644,4.861127 z"
         sodipodi:nodetypes="ccccccc"
         transform="matrix(1.221377,0,0,1,-25.137602,0.28594874)" /><path
         style="fill:#2a2a34;fill-opacity:1;fill-rule:evenodd;stroke-width:0.264999;paint-order:stroke markers fill"
         d="m 108.78761,78.874193 c 0.92139,-2.494108 2.1605,-4.273344 3.86033,-4.813463 1.69983,-0.540118 3.86028,0.158851 5.54422,1.429754 1.68393,1.270902 2.89124,3.113645 3.57434,4.877013 0.6831,1.763369 0.84196,3.447255 1.00082,5.131175 -2.63708,-0.381265 -5.27416,-0.762529 -7.95893,-0.381252 -2.68477,0.381278 -5.41711,1.525047 -8.14951,2.668842 0.60367,-3.20898 1.20734,-6.417961 2.12873,-8.912069 z m 4.25746,6.719797 c 0,0 -1.52506,0.476581 -1.52506,0.476581 0,0 1.71569,-5.051761 1.71569,-5.051761 -0.95316,-0.571898 -1.90632,-1.143792 -2.73241,-1.270878 -0.82608,-0.127087 -1.52505,0.190627 -2.22403,0.508348 0,0 0.47658,-1.048479 0.47658,-1.048479 0.7943,-0.127088 1.5886,-0.254177 2.35114,-0.06354 0.76254,0.190639 1.49328,0.69898 2.22404,1.207333 0.31772,-0.508353 0.63544,-1.016707 1.00082,-1.048473 0.36539,-0.03177 0.77841,0.413032 1.19145,0.857841 1.08025,-0.698986 2.1605,-1.397972 3.03424,-1.715692 0.87374,-0.31772 1.54094,-0.254177 2.20815,-0.190633 0,0 0.5719,0.76253 0.5719,0.76253 -0.76253,-0.09532 -1.52506,-0.190633 -2.41469,0.174753 -0.88962,0.365385 -1.90631,1.191446 -2.92302,2.01752 0.41304,0.413037 0.82608,0.826078 1.12791,1.461527 0.30184,0.635449 0.49247,1.493277 0.6831,2.351123 0,0 -0.76253,0 -0.76253,0 -0.0953,-0.76253 -0.19063,-1.52506 -0.5719,-2.271709 -0.38127,-0.74665 -1.04848,-1.477398 -1.52506,-1.731572 -0.47658,-0.254174 -0.76253,-0.03177 -1.04848,0.810203 -0.28595,0.841974 -0.57189,2.30346 -0.85784,3.764976 z"
         id="path6"
         inkscape:path-effect="#path-effect7"
         inkscape:original-d="m 108.46989,78.159321 c 1.23911,-1.779236 2.47822,-3.558472 3.71733,-5.33771 2.16055,0.699 4.321,1.397971 6.48151,2.096958 1.20736,1.842818 2.41467,3.685561 3.62201,5.528342 0.15887,1.683954 0.47658,5.051761 0.47658,5.051761 0,0 -5.27416,-0.762529 -7.91124,-1.143794 -2.73246,1.143818 -8.1972,3.431384 -8.1972,3.431384 0,0 1.20734,-6.417961 1.81101,-9.626941 z m 4.57518,7.434669 c 0,0 -1.52506,0.476581 -1.52506,0.476581 0,0 1.71569,-5.051761 1.71569,-5.051761 0,0 -1.90632,-1.143795 -2.85949,-1.715693 -0.699,0.317728 -2.09695,0.953163 -2.09695,0.953163 0,0 0.47658,-1.048479 0.47658,-1.048479 0,0 1.5886,-0.254176 2.3829,-0.381265 0.73078,0.508364 2.19228,1.52506 2.19228,1.52506 0,0 0.63544,-1.016707 0.95316,-1.52506 0.41305,0.444818 1.23911,1.334428 1.23911,1.334428 0,0 2.1605,-1.397972 3.24075,-2.096958 0.66723,0.06355 2.00164,0.190633 2.00164,0.190633 0,0 0.5719,0.76253 0.5719,0.76253 0,0 -1.52506,-0.190633 -2.28759,-0.285949 -1.01672,0.826091 -3.05012,2.478222 -3.05012,2.478222 0,0 0.82608,0.826074 1.23911,1.239112 0.19064,0.857863 0.5719,2.573538 0.5719,2.573538 0,0 -0.76253,0 -0.76253,0 0,0 -0.19063,-1.52506 -0.28595,-2.28759 -0.66722,-0.730772 -1.33443,-1.461515 -2.00164,-2.192273 -0.28595,0.222409 -0.5719,0.444809 -0.85784,0.667213 -0.28596,1.461545 -0.85785,4.384548 -0.85785,4.384548 z" /><path
         style="fill:#25445f;fill-opacity:1;fill-rule:evenodd;stroke-width:0.264999;paint-order:stroke markers fill"
         inkscape:path-effect="#path-effect5"
         inkscape:original-d="m 113.33102,75.585784 0.47658,3.717334 c 0,0 -0.88961,-0.635435 -1.33442,-0.953163 -0.79432,3.113728 -1.58861,6.227328 -2.38291,9.340992 -1.1756,-0.285954 -2.35114,-0.571897 -3.52671,-0.857846 1.65219,-2.986636 3.3043,-5.973152 4.95645,-8.959727 0.60368,-0.762546 1.81101,-2.28759 1.81101,-2.28759 z"
         d="m 113.33102,75.585784 c 0,0 0.47658,3.717334 0.47658,3.717334 -0.44481,-0.317721 -0.88961,-0.635438 -1.50917,0.762564 -0.61957,1.398001 -1.41386,4.511602 -2.39881,5.925455 -0.98495,1.413854 -2.16049,1.127913 -1.92218,-0.508381 0.2383,-1.636294 1.89042,-4.622807 3.01834,-6.497367 1.12791,-1.87456 1.73157,-2.637075 2.33524,-3.399605 z"
         id="path3" /><path
         style="fill:#25445f;fill-opacity:1;fill-rule:evenodd;stroke-width:0.264999;paint-order:stroke markers fill"
         inkscape:path-effect="#path-effect5-0"
         inkscape:original-d="m 113.97638,76.295125 c -0.27138,1.357334 -0.54276,2.714669 -0.81414,4.072004 -0.22969,-0.672391 -0.45937,-1.344775 -0.68906,-2.017174 -0.79432,3.113728 -1.58861,6.227328 -2.38291,9.340992 -1.1756,-0.285954 -2.35114,-0.571897 -3.52671,-0.857846 1.65219,-2.986636 3.3043,-5.973152 4.95645,-8.959727 0.81881,-0.526093 1.63758,-1.052166 2.45637,-1.578249 z"
         d="m 113.4313,77.236834 c 0.2737,0.415625 0.002,1.77296 -0.24821,2.115431 -0.25054,0.342472 -0.48022,-0.329911 -0.99223,0.890754 -0.512,1.220664 -1.30629,4.334265 -2.29124,5.748118 -0.98495,1.413854 -2.16049,1.127913 -1.92218,-0.508381 0.2383,-1.636294 1.89042,-4.622807 3.1259,-6.379142 1.23548,-1.756335 2.05425,-2.282406 2.32796,-1.86678 z"
         id="path3-0"
         sodipodi:nodetypes="ccccccc"
         transform="matrix(-0.88616673,0,0,0.80623809,215.25114,14.939378)" /><path
         style="fill:#98b6cc;fill-opacity:1;fill-rule:evenodd;stroke-width:0.264999;paint-order:stroke markers fill"
         inkscape:path-effect="#path-effect3"
         inkscape:original-d="m 117.52493,78.445271 c 0,0 -0.95316,-1.715692 -1.42974,-2.573538 0.76254,-1.398 1.52506,-2.795944 2.28759,-4.193915 -0.57191,-0.571909 -1.1438,-1.143795 -1.71569,-1.715693 1.6204,0.222409 3.24075,0.444809 4.86112,0.667214 0.15887,1.334454 0.31773,2.668855 0.47659,4.003282 -0.95319,-0.698999 -1.90633,-1.397971 -2.85949,-2.096957 -0.54014,1.969908 -1.62038,5.909607 -1.62038,5.909607 z"
         d="m 117.52493,78.445271 c -0.47658,-0.857846 -0.95316,-1.715692 -0.81018,-2.843614 0.14298,-1.127922 0.9055,-2.525868 1.00081,-3.510808 0.0953,-0.984941 -0.47658,-1.556829 0.0477,-1.731573 0.52425,-0.174743 2.1446,0.04766 3.03422,0.826088 0.88962,0.778429 1.04848,2.11283 0.65131,2.430542 -0.39716,0.317712 -1.3503,-0.381258 -2.09695,0.254204 -0.74665,0.635463 -1.28676,2.605292 -1.82689,4.575161 z"
         id="path2" /><path
         style="fill:#98b6cc;fill-opacity:1;fill-rule:evenodd;stroke-width:0.264999;paint-order:stroke markers fill"
         inkscape:path-effect="#path-effect1"
         inkscape:original-d="m 111.99659,76.634262 c -0.82608,-1.525061 -1.65215,-3.050122 -2.47822,-4.57518 0.73077,-0.667226 1.46151,-1.334429 2.19227,-2.001642 -2.38295,0.57191 -4.76581,1.143797 -7.14872,1.715694 0.66723,0.984953 1.33443,1.969868 2.00164,2.954803 1.11205,-0.57191 2.22405,-1.143797 3.33607,-1.715693 0.19064,2.033455 0.5719,6.100241 0.5719,6.100241 0,0 1.0167,-1.652149 1.52506,-2.478223 z"
         d="m 111.32937,76.284769 c -0.15886,-1.175571 -0.98493,-2.70063 -1.03258,-3.796772 -0.0477,-1.096141 0.68309,-1.763342 -0.143,-1.810995 -0.8261,-0.04765 -3.20896,0.524233 -4.0668,1.30266 -0.85784,0.778427 -0.19064,1.763342 0.69899,1.969853 0.88963,0.206511 2.00163,-0.365375 2.65296,0.365405 0.65133,0.730779 0.84196,2.764151 1.03259,4.797565 0.50835,-0.826074 1.0167,-1.652146 0.85784,-2.827716 z"
         id="path1" /><path
         style="fill:#2a2a34;fill-opacity:1;fill-rule:evenodd;stroke-width:0.264999;paint-order:stroke markers fill"
         d="m 120.49562,72.519777 c -0.23829,0.270063 -0.93728,0.142973 -1.47741,-0.270069 -0.54012,-0.413043 -0.92138,-1.112015 -0.68308,-1.382077 0.2383,-0.270061 1.09613,-0.111204 1.63625,0.30184 0.54013,0.413044 0.76253,1.080244 0.52424,1.350306 z"
         id="path7"
         inkscape:path-effect="#path-effect8"
         inkscape:original-d="m 120.95631,72.916927 c -0.69898,-0.127087 -1.39797,-0.254177 -2.09695,-0.381264 -0.38127,-0.699 -0.76253,-1.397971 -1.1438,-2.096958 0.85787,0.158864 1.7157,0.317722 2.57354,0.476581 0.22241,0.667229 0.44481,1.334428 0.66721,2.001641 z" /><path
         style="fill:#2a2a34;fill-opacity:1;fill-rule:evenodd;stroke-width:0.264999;paint-order:stroke markers fill"
         d="m 108.31103,73.044015 c 0.82607,-0.190631 1.77923,-0.826073 1.71567,-1.254998 -0.0636,-0.428925 -1.14378,-0.651326 -1.96986,-0.460689 -0.82608,0.190637 -1.39796,0.794297 -1.33441,1.223222 0.0635,0.428926 0.76252,0.683097 1.5886,0.492465 z"
         id="path8"
         inkscape:path-effect="#path-effect9"
         inkscape:original-d="m 108.18394,73.488824 c 0.95316,-0.635439 1.90632,-1.270881 2.85948,-1.906323 -1.08027,-0.222408 -2.1605,-0.444809 -3.24075,-0.667215 -0.5719,0.603684 -1.14379,1.207341 -1.71569,1.811009 0.699,0.254183 1.39797,0.508355 2.09696,0.762529 z" /></g></g></svg>
