<?xml version="1.0" encoding="UTF-8" standalone="no"?>
<!-- Created with Inkscape (http://www.inkscape.org/) -->

<svg
   width="43.024994mm"
   height="47.481647mm"
   viewBox="0 0 43.024994 47.481647"
   version="1.1"
   id="svg1"
   inkscape:version="1.4 (e7c3feb100, 2024-10-09)"
   sodipodi:docname="chiro.svg"
   xmlns:inkscape="http://www.inkscape.org/namespaces/inkscape"
   xmlns:sodipodi="http://sodipodi.sourceforge.net/DTD/sodipodi-0.dtd"
   xmlns="http://www.w3.org/2000/svg"
   xmlns:svg="http://www.w3.org/2000/svg">
  <sodipodi:namedview
     id="namedview1"
     pagecolor="#505050"
     bordercolor="#eeeeee"
     borderopacity="1"
     inkscape:showpageshadow="0"
     inkscape:pageopacity="0"
     inkscape:pagecheckerboard="0"
     inkscape:deskcolor="#d1d1d1"
     inkscape:document-units="mm"
     inkscape:zoom="2.7410913"
     inkscape:cx="39.947593"
     inkscape:cy="154.50051"
     inkscape:window-width="2158"
     inkscape:window-height="1415"
     inkscape:window-x="0"
     inkscape:window-y="0"
     inkscape:window-maximized="0"
     inkscape:current-layer="layer1" />
  <defs
     id="defs1">
    <inkscape:path-effect
       effect="bspline"
       id="path-effect11"
       is_visible="true"
       lpeversion="1.3"
       weight="33.333333"
       steps="2"
       helper_size="0"
       apply_no_weight="true"
       apply_with_weight="true"
       only_selected="false"
       uniform="false" />
    <inkscape:path-effect
       effect="bspline"
       id="path-effect6"
       is_visible="true"
       lpeversion="1.3"
       weight="33.333333"
       steps="2"
       helper_size="0"
       apply_no_weight="true"
       apply_with_weight="true"
       only_selected="false"
       uniform="false" />
    <inkscape:path-effect
       effect="bspline"
       id="path-effect5"
       is_visible="true"
       lpeversion="1.3"
       weight="33.333333"
       steps="2"
       helper_size="0"
       apply_no_weight="true"
       apply_with_weight="true"
       only_selected="false"
       uniform="false" />
    <inkscape:path-effect
       effect="bspline"
       id="path-effect3"
       is_visible="true"
       lpeversion="1.3"
       weight="33.333333"
       steps="2"
       helper_size="0"
       apply_no_weight="true"
       apply_with_weight="true"
       only_selected="false"
       uniform="false" />
    <inkscape:path-effect
       effect="bspline"
       id="path-effect1"
       is_visible="true"
       lpeversion="1.3"
       weight="33.333333"
       steps="2"
       helper_size="0"
       apply_no_weight="true"
       apply_with_weight="true"
       only_selected="false"
       uniform="false" />
    <inkscape:path-effect
       effect="bspline"
       id="path-effect4"
       is_visible="true"
       lpeversion="1.3"
       weight="33.333333"
       steps="2"
       helper_size="0"
       apply_no_weight="true"
       apply_with_weight="true"
       only_selected="false"
       uniform="false" />
    <inkscape:path-effect
       effect="bspline"
       id="path-effect8"
       is_visible="true"
       lpeversion="1.3"
       weight="33.333333"
       steps="2"
       helper_size="0"
       apply_no_weight="true"
       apply_with_weight="true"
       only_selected="false"
       uniform="false" />
    <inkscape:path-effect
       effect="bspline"
       id="path-effect9"
       is_visible="true"
       lpeversion="1.3"
       weight="33.333333"
       steps="2"
       helper_size="0"
       apply_no_weight="true"
       apply_with_weight="true"
       only_selected="false"
       uniform="false" />
    <inkscape:path-effect
       effect="bspline"
       id="path-effect9-1"
       is_visible="true"
       lpeversion="1.3"
       weight="33.333333"
       steps="2"
       helper_size="0"
       apply_no_weight="true"
       apply_with_weight="true"
       only_selected="false"
       uniform="false" />
    <inkscape:path-effect
       effect="bspline"
       id="path-effect10"
       is_visible="true"
       lpeversion="1.3"
       weight="33.333333"
       steps="2"
       helper_size="0"
       apply_no_weight="true"
       apply_with_weight="true"
       only_selected="false"
       uniform="false" />
  </defs>
  <g
     inkscape:label="Layer 1"
     inkscape:groupmode="layer"
     id="layer1"
     transform="translate(-86.931816,-84.402083)">
    <path
       style="fill:#41291d;fill-opacity:1;fill-rule:evenodd;stroke-width:0.264999;paint-order:stroke markers fill"
       d="m 113.79886,92.787834 c 0.52201,0.783019 1.04403,1.566041 1.37029,1.196265 0.32626,-0.369776 0.45676,-1.892284 0.58726,-3.414823 z M 74.908884,71.124289 c -4.306608,1.261532 -8.613216,2.523063 -12.006327,6.590485 -3.39311,4.067421 -5.872623,10.940456 -8.352185,17.813629 6.969073,8.734147 13.938018,17.468137 21.888683,21.772757 7.950665,4.30462 16.88249,4.17956 23.469028,4.18648 6.586537,0.007 10.827667,0.14583 12.969417,-0.65687 2.14174,-0.80271 2.18407,-2.54702 0.63919,-3.94119 -1.54487,-1.39418 -4.67695,-2.4382 -7.12481,-7.5035 -2.44786,-5.0653 -4.21149,-14.151861 -5.21202,-19.306741 C 100.17934,84.92446 99.941922,83.701268 95.690611,81.197374 91.4393,78.69348 83.174092,74.908884 74.908884,71.124289 Z"
       id="path10"
       inkscape:path-effect="#path-effect11"
       inkscape:original-d="m 113.79886,92.787834 c 0,0 1.04403,1.56604 1.56604,2.349058 0.13051,-1.522569 0.39151,-4.567616 0.39151,-4.567616 z M 74.908884,71.124289 c 0,0 -8.613216,2.523064 -12.919825,3.784595 -2.479612,6.873311 -7.438687,20.619519 -7.438687,20.619519 0,0 13.938018,17.468137 20.907219,26.202447 8.932129,-0.12507 17.863954,-0.25014 26.795889,-0.3752 4.24114,0.13891 8.48227,0.27782 12.72343,0.41673 0.0423,-1.74432 0.0847,-3.48863 0.12699,-5.23295 -3.13208,-1.04403 -6.26416,-2.08805 -9.39624,-3.13208 -1.76364,-9.08657 -3.52727,-18.173132 -5.29091,-27.259697 -0.23742,-1.223192 -0.474829,-2.446385 -0.712242,-3.669578 C 91.4393,78.69348 74.908884,71.124289 74.908884,71.124289 Z"
       transform="matrix(0.65865779,0,0,0.65865779,51.001789,51.856165)"
       sodipodi:nodetypes="ccccccccccccccc" />
    <path
       style="display:inline;fill:#eec8b3;fill-opacity:1;fill-rule:evenodd;stroke-width:0.264999;paint-order:stroke markers fill"
       inkscape:path-effect="#path-effect6"
       inkscape:original-d="m 88.350721,85.740657 c 0,0 0.435012,6.264156 0.652516,9.396235 1.870585,1.174554 3.741094,2.349058 5.611643,3.523589 1.261557,-1.609572 3.784594,-4.828622 3.784594,-4.828622 0,0 1.653046,12.615321 2.479566,18.922971 1.52256,2.1751 3.04507,4.35011 4.56761,6.52517 2.0881,0.73953 4.17611,1.47904 6.26416,2.21855 1.08133,-1.67669 3.24394,-5.02999 3.24394,-5.02999 0,0 -2.68464,-0.90977 -4.02696,-1.36466 2.2186,-8.13487 4.43711,-16.269416 6.65567,-24.404121 -1.47907,-3.219143 -4.43712,-9.657241 -4.43712,-9.657241 z"
       d="m 88.350721,85.740657 c 0.217505,3.132078 0.435011,6.264156 1.479056,8.417472 1.044045,2.153316 2.914554,3.327821 4.480607,3.1103 1.566052,-0.217521 2.827559,-1.827029 4.08909,-3.43657 0.826522,6.307661 1.653046,12.615321 2.827586,16.856691 1.17454,4.24138 2.69705,6.41639 4.50237,7.87369 1.80532,1.45729 3.89333,2.1968 5.47802,1.72821 1.58469,-0.46859 2.66599,-2.14523 3.7473,-3.82189 -1.34232,-0.45489 -2.68464,-0.90977 -2.2465,-5.20465 0.43814,-4.29488 2.65665,-12.429425 3.0264,-18.10635 0.36974,-5.676924 -1.10927,-8.895942 -2.58831,-12.115022 z"
       id="path5"
       transform="matrix(0.65865779,0,0,0.65865779,51.001789,51.856165)"
       sodipodi:nodetypes="cccccccccccc" />
    <path
       style="fill:#eec8b3;fill-opacity:1;fill-rule:evenodd;stroke-width:0.264999;paint-order:stroke markers fill"
       d="m 108.05672,60.162013 c 0,0 0,0 0,0 0,0 7.30818,-7.047177 7.30818,-7.047177 1.91405,0.130503 3.8281,0.261007 4.3501,4.545948 0.52201,4.284942 -0.348,12.723987 -1.21802,21.163199 z"
       id="path4"
       inkscape:path-effect="#path-effect5"
       inkscape:original-d="m 108.05672,60.162013 c 0,0 0,0 0,0 0,0 7.30818,-7.047177 7.30818,-7.047177 0,0 3.8281,0.261006 5.74215,0.39151 -0.87004,8.43938 -2.61007,25.317637 -2.61007,25.317637 z"
       transform="matrix(0.65865779,0,0,0.65865779,51.001789,51.856165)" />
    <path
       style="fill:#eec8b3;fill-opacity:1;fill-rule:evenodd;stroke-width:0.264999;paint-order:stroke markers fill"
       inkscape:path-effect="#path-effect3"
       inkscape:original-d="m 75.039388,71.124289 c 0,0 1.566039,-9.13523 2.349059,-13.702845 4.350196,-3.306149 8.700219,-6.612166 13.050328,-9.918249 2.740624,1.218055 5.481138,2.436061 8.221707,3.654092 2.392608,7.221326 7.177678,21.663545 7.177678,21.663545 0,0 -4.1761,1.566039 -6.264155,2.349059 -1.087549,2.523114 -3.262582,7.56919 -3.262582,7.56919 z"
       d="m 75.039388,71.124289 c 0.78302,-4.567615 1.566039,-9.13523 4.132647,-13.072112 2.566608,-3.936882 6.916631,-7.242899 10.461997,-8.286913 3.545367,-1.044014 6.285881,0.173992 8.852469,4.393671 2.566589,4.219678 4.959099,11.440715 7.351659,18.661897 -2.08805,0.78302 -4.1761,1.566038 -5.7639,3.219106 -1.587804,1.653067 -2.67531,4.17608 -3.762837,6.699143 z"
       id="path2"
       transform="matrix(0.65865779,0,0,0.65865779,51.001789,51.856165)" />
    <path
       style="fill:#41291d;fill-opacity:1;fill-rule:evenodd;stroke-width:0.264999;paint-order:stroke markers fill"
       inkscape:path-effect="#path-effect1"
       inkscape:original-d="m 77.51895,72.168315 c 0,0 1.044024,-10.440262 1.566039,-15.660393 4.524203,-3.219146 9.048226,-6.438162 13.572342,-9.657244 3.393151,3.52366 6.786168,7.047177 10.179249,10.570765 -2.2621,8.091366 -6.786164,24.27361 -6.786164,24.27361 0,0 -4.698119,-8.874222 -7.047179,-13.311332 -3.828172,1.261554 -11.484287,3.784594 -11.484287,3.784594 z"
       d="m 77.51895,72.168315 c 0.522013,-5.220131 1.044026,-10.440262 3.567134,-14.6599 2.523109,-4.219638 7.047131,-7.438654 11.005765,-7.286366 3.958634,0.152288 7.351649,3.675807 7.917141,9.483283 0.56549,5.807477 -1.696519,13.898518 -3.958574,21.989721 -2.34906,-4.437111 -4.69812,-8.874222 -7.786735,-10.461999 -3.088615,-1.587777 -6.916635,-0.32627 -10.744731,0.935261 z"
       id="path1"
       transform="matrix(0.65865779,0,0,0.65865779,51.001789,51.856165)" />
    <path
       style="fill:#f8f5d6;fill-opacity:1;fill-rule:evenodd;stroke-width:0.264999;paint-order:stroke markers fill"
       d="m 75.691904,71.124288 c 0.870021,-1.000525 1.740042,-2.00105 2.544821,-1.892285 0.804778,0.108765 1.544281,1.326769 2.523068,0.935241 0.978787,-0.391529 2.196793,-2.39254 3.197326,-2.414271 1.000533,-0.02173 1.783537,1.935779 2.892829,2.066265 1.109291,0.130487 2.5448,-1.566023 2.827549,-3.327835 0.282749,-1.761812 -0.587257,-3.588822 -0.108726,-3.306041 0.47853,0.282781 2.30554,2.675294 2.849295,4.589357 0.543756,1.914062 -0.195747,3.349569 0.21753,3.762823 0.413276,0.413255 1.979284,-0.195748 2.349035,-0.02173 0.369751,0.174014 -0.456754,1.131019 -0.456746,2.849337 8e-6,1.718318 0.826512,4.197829 1.653042,4.785081 0.82653,0.587252 1.653034,-0.717754 2.436061,-2.544824 0.783028,-1.82707 1.522532,-4.176081 2.283812,-5.046098 0.76127,-0.870017 1.54428,-0.26101 1.58777,-1.413819 0.0435,-1.152808 -0.65251,-4.067322 -0.89176,-5.568111 -0.23926,-1.50079 -0.0218,-1.587789 0.1305,-2.04456 0.15226,-0.45677 0.23926,-1.283272 1.02229,-1.60953 0.78303,-0.326258 2.26204,-0.152257 4.08911,-0.60903 1.82707,-0.456773 4.00208,-1.544279 4.65459,-1.348507 0.6525,0.195772 -0.2175,1.674778 0.0218,1.870522 0.23927,0.195744 1.58777,-0.891759 1.74002,-0.108713 0.15224,0.783045 -0.89176,3.436557 -0.8265,4.002057 0.0653,0.565501 1.23977,-0.957008 1.74003,-0.282714 0.50026,0.674295 0.32626,3.54531 0.69602,4.154308 0.36977,0.608997 1.28328,-1.044009 1.65304,-0.608973 0.36975,0.435037 0.19575,2.958051 0.65253,4.785107 0.45677,1.827057 1.54427,2.958061 1.67477,3.632332 0.13049,0.67427 -0.69601,0.891771 -0.47849,2.436088 0.21752,1.544318 1.47903,4.41533 1.131,4.263046 -0.34803,-0.152285 -2.30554,-3.327802 -2.80579,-3.219015 -0.50026,0.108787 0.45675,3.501802 0.21748,6.264143 -0.23927,2.762341 -1.67478,4.893852 -2.4578,4.393559 -0.78303,-0.500294 -0.91353,-3.632309 -1.28329,-3.654028 -0.36977,-0.02172 -0.97877,3.066796 -1.63129,3.545287 -0.65252,0.478491 -1.34853,-1.65302 -2.15331,-1.805256 -0.80478,-0.152237 -1.71829,1.67477 -2.34905,0.978722 -0.63077,-0.696049 -0.97877,-3.915065 -1.60955,-4.676317 -0.63077,-0.761253 -1.54428,0.935259 -2.63182,0.521972 -1.08754,-0.413287 -2.34904,-2.936297 -2.52304,-1.979229 -0.174,0.957067 0.73951,5.394089 0.45674,6.307588 -0.28277,0.913498 -1.761782,-1.696517 -2.414297,-1.457231 -0.652515,0.239286 -0.478513,3.327802 -0.826531,3.458277 -0.348017,0.130475 -1.218022,-2.697039 -2.26206,-2.740513 -1.044038,-0.04347 -2.262044,2.697041 -4.545886,0.652422 -2.283841,-2.04462 -5.633358,-8.874155 -8.308695,-12.767513 -2.675336,-3.893357 -4.676347,-4.850363 -6.677397,-5.807387 z"
       id="path3"
       inkscape:path-effect="#path-effect4"
       inkscape:original-d="m 75.691904,71.124288 c 0,0 1.740043,-2.001049 2.610064,-3.001576 0.739534,1.218057 1.479037,2.436061 2.218558,3.654091 1.218054,-2.001088 2.436061,-4.002098 3.654091,-6.003149 0.783035,1.957588 1.56604,3.915097 2.349058,5.872646 1.435566,-1.696574 2.871074,-3.393085 4.30661,-5.089628 -0.87004,-1.82708 -1.740045,-3.654091 -2.610067,-5.481137 1.827083,2.392608 3.654092,4.785122 5.481138,7.17768 -0.739535,1.435566 -1.479037,2.871073 -2.218556,4.30661 1.566072,-0.609029 3.13208,-1.218031 4.698119,-1.827046 -0.826537,0.957043 -1.653042,1.914048 -2.479563,2.871073 0.826537,2.479611 1.653042,4.959122 2.479563,7.438686 0.826538,-1.30506 1.65304,-2.610067 2.479562,-3.915098 0.739534,-2.349108 1.479039,-4.698119 2.218559,-7.047177 0.78303,0.609026 1.56604,1.218031 2.34906,1.827046 -0.69604,-2.914631 -1.39204,-5.829146 -2.08806,-8.74372 0.21751,-0.08701 0.43501,-0.174005 0.65252,-0.261008 0.087,-0.826538 0.174,-1.65304 0.26101,-2.479562 1.47906,0.174009 2.95807,0.34801 4.43711,0.522013 2.1751,-1.087549 4.35011,-2.175055 6.52516,-3.262583 -0.87004,1.479069 -1.74004,2.958076 -2.61006,4.437113 1.34856,-1.087548 2.69706,-2.175055 4.0456,-3.262582 -1.04405,2.65362 -2.08805,5.307134 -3.13208,7.960701 1.17455,-1.522569 2.34906,-3.045076 3.52359,-4.567616 -0.17401,2.871129 -0.34801,5.742144 -0.52202,8.613217 0.91355,-1.653074 1.82705,-3.306083 2.74057,-4.959125 -0.174,2.523114 -0.348,5.046128 -0.52201,7.569189 1.08755,1.131052 2.17505,2.262058 3.26258,3.393086 -0.82654,0.217511 -1.65304,0.435012 -2.47956,0.652518 1.26156,2.871128 2.52306,5.742143 3.7846,8.613216 -1.95759,-3.175643 -3.9151,-6.351161 -5.87265,-9.526741 0.95704,3.393155 1.91404,6.786171 2.87107,10.179257 -1.43556,2.131597 -2.87107,4.263106 -4.30661,6.394661 -0.1305,-3.132143 -0.261,-6.264158 -0.39151,-9.396238 -0.60903,3.08864 -1.21803,6.177156 -1.82704,9.265735 -0.69603,-2.131597 -1.39204,-4.263107 -2.08806,-6.394661 -0.91354,1.827082 -1.82704,3.654091 -2.74057,5.481137 -0.34801,-3.219146 -0.69601,-6.438162 -1.04402,-9.657241 -0.91354,1.696574 -1.82705,3.393085 -2.74057,5.089628 -1.26156,-2.523115 -2.52306,-5.046128 -3.784597,-7.569192 0.913547,4.4372 1.827047,8.874223 2.740567,13.311335 -1.47906,-2.610117 -2.95807,-5.220131 -4.43711,-7.830198 0.174009,3.08864 0.348009,6.177156 0.522015,9.265735 -0.87004,-2.827629 -1.740045,-5.655143 -2.610067,-8.482714 -1.218054,2.740623 -2.436061,5.481138 -3.654091,8.221708 C 88.394155,87.654568 85.044639,80.825032 81.695053,73.995361 79.693965,73.038318 75.691904,71.124288 75.691904,71.124288 Z"
       transform="matrix(0.65865779,0,0,0.65865779,51.001789,51.856165)" />
    <path
       style="display:inline;fill:#41291d;fill-opacity:1;fill-rule:evenodd;stroke-width:0.264999;paint-order:stroke markers fill"
       inkscape:path-effect="#path-effect8"
       inkscape:original-d="m 114.92324,116.51772 c 0,0 -2.05461,0.0145 -3.08193,0.0217 -1.13105,-0.56552 -3.39308,-1.69654 -3.39308,-1.69654 0,0 2.26206,2.52306 3.39308,3.78459 1.04405,-0.087 2.08806,-0.174 3.13208,-0.261 -0.0167,-0.61627 -0.0501,-1.84876 -0.0501,-1.84876 z"
       d="m 114.92324,116.51772 c -1.02731,0.007 -2.05461,0.0145 -3.13379,-0.26468 -1.07919,-0.27914 -2.21019,-0.84465 -3.34122,-1.41016 1.13103,1.26153 2.26206,2.52306 3.34959,3.11033 1.08754,0.58726 2.13155,0.50026 2.64521,0.14862 0.51366,-0.35163 0.49696,-0.96787 0.48026,-1.58412 z"
       id="path6"
       transform="matrix(0.65865779,0,0,0.65865779,51.001789,51.856165)"
       sodipodi:nodetypes="cccccc" />
    <path
       style="fill:#f8f5d6;fill-opacity:1;fill-rule:evenodd;stroke-width:0.264999;paint-order:stroke markers fill"
       d="m 109.12249,118.34473 c -0.23925,0.63076 -0.19575,2.0228 0.0653,2.08804 0.26101,0.0652 0.73952,-1.19627 1.21803,-2.4578 -0.52201,-0.1305 -1.04403,-0.26101 -1.28329,0.36976 z"
       id="path8"
       inkscape:path-effect="#path-effect9"
       inkscape:original-d="m 108.83974,117.58346 c 0.0435,1.39203 0.087,2.78407 0.1305,4.1761 0.47852,-1.26156 1.43554,-3.78459 1.43554,-3.78459 0,0 -1.04403,-0.26101 -1.56604,-0.39151 z"
       transform="matrix(0.65865779,0,0,0.65865779,50.657961,52.371907)" />
    <path
       style="fill:#f8f5d6;fill-opacity:1;fill-rule:evenodd;stroke-width:0.264999;paint-order:stroke markers fill"
       d="m 109.50864,118.13138 c -0.24903,0.54068 -0.39372,2.08444 -0.21702,2.31561 0.17669,0.23118 0.67474,-0.85017 1.1728,-1.93154 -0.35338,-0.46238 -0.70676,-0.92476 -0.95578,-0.38407 z"
       id="path8-8"
       inkscape:path-effect="#path-effect9-1"
       inkscape:original-d="m 109.40429,117.12832 c -0.14468,1.54374 -0.28937,3.0875 -0.43405,4.63124 0.49807,-1.08139 1.49418,-3.24411 1.49418,-3.24411 0,0 -0.70675,-0.92476 -1.06013,-1.38713 z"
       transform="matrix(-0.39353025,0,-0.19996576,0.65865779,192.52419,52.27342)"
       sodipodi:nodetypes="cccc" />
    <path
       style="fill:#41291d;fill-opacity:1;fill-rule:evenodd;stroke-width:0.264999;paint-order:stroke markers fill"
       d="m 104.01111,89.786258 c 0,0 1.30504,1.696542 1.30504,1.696542 -0.174,0.78302 -0.34801,1.566041 -0.0652,2.109807 0.28276,0.543766 1.02226,0.848267 1.54428,0.717757 0.52201,-0.13051 0.82651,-0.69601 1.13102,-1.261524 z"
       id="path9"
       inkscape:path-effect="#path-effect10"
       inkscape:original-d="m 104.01111,89.786258 c 0,0 1.30504,1.696542 1.30504,1.696542 0,0 -0.34801,1.56604 -0.52201,2.349059 0.73953,0.304514 1.47903,0.609015 2.21855,0.913524 0.30452,-0.565526 0.91352,-1.696543 0.91352,-1.696543 z"
       transform="matrix(0.65865779,0,0,0.65865779,51.001789,51.856165)" />
  </g>
</svg>
