<?xml version="1.0" encoding="UTF-8" standalone="no"?>
<!-- Created with Inkscape (http://www.inkscape.org/) -->

<svg
   version="1.1"
   id="svg1"
   width="241.2124"
   height="142.05057"
   viewBox="0 0 241.2124 142.05056"
   sodipodi:docname="coptotermes.svg"
   inkscape:version="1.4 (e7c3feb100, 2024-10-09)"
   xmlns:inkscape="http://www.inkscape.org/namespaces/inkscape"
   xmlns:sodipodi="http://sodipodi.sourceforge.net/DTD/sodipodi-0.dtd"
   xmlns="http://www.w3.org/2000/svg"
   xmlns:svg="http://www.w3.org/2000/svg">
  <defs
     id="defs1">
    <inkscape:path-effect
       effect="bspline"
       id="path-effect10"
       is_visible="true"
       lpeversion="1.3"
       weight="33.333333"
       steps="2"
       helper_size="0"
       apply_no_weight="true"
       apply_with_weight="true"
       only_selected="false"
       uniform="false" />
    <inkscape:path-effect
       effect="bspline"
       id="path-effect9"
       is_visible="true"
       lpeversion="1.3"
       weight="33.333333"
       steps="2"
       helper_size="0"
       apply_no_weight="true"
       apply_with_weight="true"
       only_selected="false"
       uniform="false" />
    <inkscape:path-effect
       effect="bspline"
       id="path-effect8"
       is_visible="true"
       lpeversion="1.3"
       weight="33.333333"
       steps="2"
       helper_size="0"
       apply_no_weight="true"
       apply_with_weight="true"
       only_selected="false"
       uniform="false" />
    <inkscape:path-effect
       effect="bspline"
       id="path-effect7"
       is_visible="true"
       lpeversion="1.3"
       weight="33.333333"
       steps="2"
       helper_size="0"
       apply_no_weight="true"
       apply_with_weight="true"
       only_selected="false"
       uniform="false" />
    <inkscape:path-effect
       effect="bspline"
       id="path-effect6"
       is_visible="true"
       lpeversion="1.3"
       weight="33.333333"
       steps="2"
       helper_size="0"
       apply_no_weight="true"
       apply_with_weight="true"
       only_selected="false"
       uniform="false" />
    <inkscape:path-effect
       effect="bspline"
       id="path-effect5"
       is_visible="true"
       lpeversion="1.3"
       weight="33.333333"
       steps="2"
       helper_size="0"
       apply_no_weight="true"
       apply_with_weight="true"
       only_selected="false"
       uniform="false" />
    <inkscape:path-effect
       effect="bspline"
       id="path-effect4"
       is_visible="true"
       lpeversion="1.3"
       weight="33.333333"
       steps="2"
       helper_size="0"
       apply_no_weight="true"
       apply_with_weight="true"
       only_selected="false"
       uniform="false" />
    <inkscape:path-effect
       effect="bspline"
       id="path-effect3"
       is_visible="true"
       lpeversion="1.3"
       weight="33.333333"
       steps="2"
       helper_size="0"
       apply_no_weight="true"
       apply_with_weight="true"
       only_selected="false"
       uniform="false" />
    <inkscape:path-effect
       effect="bspline"
       id="path-effect2"
       is_visible="true"
       lpeversion="1.3"
       weight="33.333333"
       steps="2"
       helper_size="0"
       apply_no_weight="true"
       apply_with_weight="true"
       only_selected="false"
       uniform="false" />
    <inkscape:path-effect
       effect="bspline"
       id="path-effect1"
       is_visible="true"
       lpeversion="1.3"
       weight="33.333333"
       steps="2"
       helper_size="0"
       apply_no_weight="true"
       apply_with_weight="true"
       only_selected="false"
       uniform="false" />
  </defs>
  <sodipodi:namedview
     id="namedview1"
     pagecolor="#505050"
     bordercolor="#eeeeee"
     borderopacity="1"
     inkscape:showpageshadow="0"
     inkscape:pageopacity="0"
     inkscape:pagecheckerboard="0"
     inkscape:deskcolor="#d1d1d1"
     inkscape:zoom="3.8434901"
     inkscape:cx="126.96793"
     inkscape:cy="78.704508"
     inkscape:window-width="2158"
     inkscape:window-height="1415"
     inkscape:window-x="0"
     inkscape:window-y="0"
     inkscape:window-maximized="0"
     inkscape:current-layer="g1" />
  <g
     inkscape:groupmode="layer"
     inkscape:label="Image"
     id="g1"
     transform="translate(-176.88996,-122.12414)">
    <path
       style="fill:#e1d9c7;fill-opacity:1;fill-rule:evenodd;stroke-width:1.00157;paint-order:stroke markers fill"
       d="m 410.31005,224.427 c 11.62778,-10.92796 9.79748,-19.6488 -2.53035,-27.34689 -12.32783,-7.69809 -35.15229,-14.37317 -55.12425,-16.20344 -19.97197,-1.83027 -37.09031,1.18428 -52.00199,8.23643 -14.91169,7.05215 -27.61586,18.14139 -33.10674,26.64695 -5.49088,8.50557 -3.76829,14.42699 -2.52528,17.98037 1.24301,3.55338 2.00639,4.73855 1.8916,6.93298 -0.11479,2.19443 -1.10774,5.39806 1.75623,9.4603 2.86397,4.06223 9.58481,8.98299 11.39167,9.0043 1.80686,0.0213 -1.30029,-4.85687 -2.70745,-8.05811 -1.40715,-3.20125 -1.11429,-4.72555 0.80041,-3.71133 1.9147,1.01422 5.4512,4.56692 9.06157,6.52752 3.61037,1.9606 7.29447,2.32901 4.03128,2.84965 -3.26319,0.52065 -13.47359,1.19352 -8.81389,3.04165 4.6597,1.84814 24.18943,4.87149 35.47742,4.32149 11.28799,-0.55001 14.33417,-4.67339 18.06059,-5.68291 3.72641,-1.00952 8.13302,1.09483 22.8793,-4.42055 14.74627,-5.51538 39.83209,-18.65045 51.45988,-29.57841 z"
       id="path4"
       inkscape:path-effect="#path-effect4"
       inkscape:original-d="m 423.76813,222.21987 c -1.8303,-8.72083 -3.6606,-17.44167 -5.4909,-26.16251 -22.82536,-6.67534 -45.64982,-13.35042 -68.47472,-20.02563 -17.11903,3.01467 -34.23737,6.02922 -51.35605,9.04383 -12.70469,11.08969 -25.40886,22.17893 -38.11329,33.26839 1.72267,5.92167 3.44526,11.84309 5.1679,17.76467 0.76338,1.18518 1.52676,2.37035 2.29014,3.55553 -0.99296,3.20368 -1.98591,6.40731 -2.97886,9.61098 6.72089,4.9208 13.44173,9.84156 20.16263,14.76237 -3.10718,-4.8782 -6.21433,-9.75637 -9.3215,-14.63456 0.29286,-1.5243 0.58572,-3.0486 0.87858,-4.5729 3.53654,3.55274 7.07304,7.10544 10.60961,10.65822 3.68417,0.36842 7.36827,0.73683 11.05241,1.10524 -10.21052,0.67288 -20.42092,1.34575 -30.63149,2.01863 19.52997,3.02339 39.0597,6.04674 58.5895,9.07011 3.04618,-4.12338 6.09236,-8.24676 9.13855,-12.37015 4.40664,2.10435 8.81325,4.2087 13.21989,6.31305 25.08591,-13.13511 50.17173,-26.27018 75.2576,-39.40527 z"
       sodipodi:nodetypes="cccccccccccccccccc" />
    <path
       id="path8"
       style="fill:#a69082;fill-opacity:1;fill-rule:evenodd;stroke-width:1.00157;paint-order:stroke markers fill"
       inkscape:path-effect="#path-effect8"
       inkscape:original-d="m 326.22394,221.25089 c 6.78288,-4.09126 13.56575,-8.18251 20.34863,-12.27377 9.58234,0.646 19.16431,1.29198 28.74646,1.93796 -1.07667,6.35235 -2.15329,12.70443 -3.22994,19.05665 -11.41268,3.55301 -22.82491,7.10587 -34.23736,10.6588 -4.73734,-2.79934 -9.47449,-5.59856 -14.21174,-8.39784 0.86134,-3.66067 1.72264,-7.3212 2.58395,-10.9818 z m -13.56575,-32.2994 c 6.24455,-3.3376 12.48911,-6.67521 18.73366,-10.01281 17.65736,3.553 35.31401,7.10587 52.97101,10.6588 10.76669,5.92167 21.53294,11.84311 32.2994,17.76467 -2.36867,3.44534 -4.73724,6.89054 -7.10586,10.33581 -19.27237,12.48935 -38.54396,24.9782 -57.81593,37.4673 -5.06034,-0.75367 -10.12048,-1.5073 -15.18072,-2.26096 -1.938,-3.12233 -3.87593,-6.24455 -5.81389,-9.36682 -10.22835,-0.10767 -20.45629,-0.21533 -30.68443,-0.323 -1.292,2.36867 -2.58395,4.73725 -3.87593,7.10587 0.43067,0.75367 0.86132,1.50731 1.29198,2.26096 -6.24468,-3.01467 -12.4891,-6.02922 -18.73366,-9.04383 0.96901,-2.36867 1.93797,-4.73725 2.90695,-7.10587 -1.615,-2.69167 -3.22994,-5.38323 -4.84491,-8.07485 -2.79934,-0.323 -5.59856,-0.64599 -8.39784,-0.96898 -0.75367,0.86133 -1.50731,1.72263 -2.26096,2.58395 -0.21534,-3.87601 -0.43066,-7.75186 -0.64599,-11.62778 4.84501,-4.41434 9.68982,-8.82851 14.53473,-13.24276 -0.75367,3.33767 -1.5073,6.67521 -2.26096,10.01282 3.01467,1.938 6.02922,3.87593 9.04383,5.81389 2.79934,-0.53833 5.59857,-1.07665 8.39785,-1.61497 0,-3.44534 0,-6.89054 0,-10.33581 4.84501,-4.41434 9.68982,-8.8285 14.53473,-13.24275 -2.04567,-1.07667 -4.09126,-2.1533 -6.13689,-3.22994 3.01467,-1.18434 6.02922,-2.36863 9.04383,-3.55294 z"
       d="m 329.18472,221.03556 c 3.8221,-3.87593 10.60497,-7.96718 18.78758,-9.68981 8.18261,-1.72263 17.76458,-1.07666 22.01732,2.42251 4.25274,3.49917 3.17612,9.85125 -3.06855,14.80386 -6.24466,4.95261 -17.65689,8.50548 -25.73179,8.88228 -8.07489,0.37679 -12.81204,-2.42243 -14.75,-5.65241 -1.93796,-3.22997 -1.07666,-6.8905 2.74544,-10.76643 z m -14.91156,-33.16071 c 4.62958,-2.26096 10.87414,-5.59857 22.82509,-5.49087 11.95096,0.1077 29.60761,3.66057 43.81945,8.39787 14.21185,4.73731 24.9781,10.65875 29.17699,15.34219 4.1989,4.68345 1.83033,8.12865 -8.99016,16.09596 -10.8205,7.96731 -30.09209,20.45616 -42.25824,26.32388 -12.16616,5.86771 -17.2263,5.11407 -20.72542,3.17608 -3.49912,-1.93799 -5.43705,-5.06021 -11.5202,-6.67518 -6.08316,-1.61497 -16.3111,-1.72263 -22.07117,-0.59213 -5.76007,1.1305 -7.05202,3.49908 -7.48268,5.06022 -0.43065,1.56115 0,2.31479 -2.90701,1.18428 -2.90701,-1.13051 -9.15143,-4.14506 -11.78921,-6.8367 -2.63778,-2.69164 -1.66881,-5.06022 -1.99182,-7.59036 -0.32301,-2.53015 -1.93795,-5.22171 -4.1451,-6.72902 -2.20716,-1.50731 -5.00638,-1.8303 -6.78285,-1.56113 -1.77648,0.26917 -2.53012,1.13047 -3.01461,-0.37687 -0.48449,-1.50735 -0.69982,-5.3832 1.61502,-9.52833 2.31484,-4.14513 7.15965,-8.5593 9.20527,-9.09759 2.04562,-0.53829 1.29198,2.79925 2.42249,5.43706 1.13051,2.6378 4.14506,4.57573 7.05204,5.27554 2.90697,0.69982 5.7062,0.1615 7.10584,-1.83033 1.39964,-1.99183 1.39964,-5.43703 3.82214,-9.36684 2.42251,-3.9298 7.26732,-8.34396 8.66694,-11.08942 1.39962,-2.74546 -0.64597,-3.82208 -0.16145,-4.95258 0.48452,-1.13049 3.49907,-2.31478 8.12865,-4.57573 z" />
    <path
       style="fill:#1e1408;fill-opacity:1;fill-rule:evenodd;stroke-width:1.00157;paint-order:stroke markers fill"
       d="m 289.72562,217.69796 c -4.09126,-0.64599 -8.18251,-1.29198 -8.39781,-4.36048 -0.21529,-3.06849 3.44523,-8.55928 7.10587,-12.43523 3.66064,-3.87595 7.32116,-6.13687 10.28196,-6.56751 2.9608,-0.43065 5.22171,0.96897 7.48267,2.36861 -3.3376,1.72263 -6.6752,3.44526 -9.42068,6.94442 -2.74547,3.49916 -4.89872,8.77462 -7.05201,14.05019 z"
       id="path1"
       inkscape:path-effect="#path-effect1"
       inkscape:original-d="m 289.72562,217.69796 c 0,0 -8.18251,-1.29198 -12.27377,-1.93797 3.66067,-5.491 7.3212,-10.98179 10.98179,-16.47269 3.66068,-2.261 7.3212,-4.52192 10.9818,-6.78287 2.261,1.39966 6.78287,4.19892 6.78287,4.19892 0,0 -6.6752,3.44527 -10.01281,5.1679 -2.15334,5.27568 -6.45988,15.82671 -6.45988,15.82671 z" />
    <path
       style="fill:#1e1408;fill-opacity:1;fill-rule:evenodd;stroke-width:1.00157;paint-order:stroke markers fill"
       d="m 340.75867,235.62413 c -8.07485,-0.37683 -11.95078,-5.43707 -10.06657,-10.06669 1.88421,-4.62963 9.52825,-8.82847 16.90335,-10.87409 7.3751,-2.04563 14.48083,-1.93797 18.7336,0.53837 4.25277,2.47633 5.65238,7.32115 0.21519,11.89694 -5.43719,4.57579 -17.71072,8.88229 -25.78557,8.50547 z"
       id="path2"
       inkscape:path-effect="#path-effect2"
       inkscape:original-d="m 336.55975,240.30754 c -3.87593,-5.06024 -7.75186,-10.12048 -11.62778,-15.18072 7.64434,-4.19901 15.28838,-8.39784 22.93257,-12.59677 7.10601,0.10767 14.21174,0.21533 21.31761,0.323 1.39966,4.845 2.79928,9.68982 4.19892,14.53473 -12.27402,4.30667 -24.54755,8.61317 -36.82132,12.91976 z" />
    <path
       style="fill:#a69082;fill-opacity:1;fill-rule:evenodd;stroke-width:1.00157;paint-order:stroke markers fill"
       d="m 366.97502,193.6349 c -1.34581,2.09947 -2.96078,2.09947 -4.19893,-0.5922 -1.23816,-2.69168 -2.09945,-8.0748 -6.62145,-13.72725 -4.522,-5.65246 -12.70435,-11.57389 -25.24746,-16.04201 -12.5431,-4.46811 -29.44611,-7.48267 -45.3268,-7.96714 -15.88068,-0.48447 -30.73811,1.56112 -43.71181,3.0146 -12.97371,1.45348 -24.06295,2.31478 -30.89968,1.23811 -6.83673,-1.07668 -9.42063,-4.09123 -13.83495,-8.18254 -4.41431,-4.09131 -10.65874,-9.25911 -13.99635,-14.42706 -3.33761,-5.16796 -3.76825,-10.33576 -2.85308,-12.91971 0.91517,-2.58395 3.17608,-2.58395 5.27556,0.26922 2.09948,2.85317 4.03741,8.55928 8.29023,14.05023 4.25282,5.49095 10.82023,10.76641 23.04035,12.48903 12.22012,1.72262 30.0921,-0.10764 45.91895,-1.83029 15.82684,-1.72265 29.60764,-3.33759 44.03485,-1.2919 14.42722,2.04568 29.49997,7.75179 40.21267,14.26558 10.7127,6.51378 17.06479,13.83483 19.70256,19.59494 2.63777,5.7601 1.56115,9.95893 0.21534,12.05839 z"
       id="path10"
       inkscape:path-effect="#path-effect10"
       inkscape:original-d="m 367.24418,195.73437 c -1.61497,0 -3.22994,0 -4.84491,0 -0.86133,-5.38335 -1.72263,-10.76647 -2.58395,-16.1497 -8.18268,-5.92168 -16.36503,-11.84312 -24.54755,-17.76467 -16.90369,-3.01468 -33.8067,-6.02923 -50.71005,-9.04384 -14.85802,2.04567 -29.71545,4.09126 -44.57318,6.13689 -11.08968,0.86133 -22.17892,1.72263 -33.26838,2.58395 -2.584,-3.01467 -5.1679,-6.02922 -7.75185,-9.04383 -6.24468,-5.16801 -12.48911,-10.33581 -18.73366,-15.50371 -0.43066,-5.16801 -0.86131,-10.33581 -1.29197,-15.50371 2.261,0 4.52191,0 6.78287,0 1.938,5.70634 3.87593,11.41245 5.81389,17.11868 6.56768,5.27567 13.13509,10.55113 19.70264,15.8267 17.87269,-1.83033 35.74467,-3.6606 53.617,-5.49089 13.78136,-1.61501 27.56216,-3.22994 41.34323,-4.84491 15.07336,5.70634 30.14611,11.41245 45.21917,17.11868 6.35234,7.32134 12.70443,14.64239 19.05664,21.96359 -1.07667,4.19901 -2.15329,8.39784 -3.22994,12.59677 z" />
    <path
       style="fill:#a69082;fill-opacity:1;fill-rule:evenodd;stroke-width:1.00157;paint-order:stroke markers fill"
       d="m 320.03323,195.08838 c -1.45348,3.87593 -2.96078,3.55293 -3.92977,-1.39974 -0.96899,-4.95267 -1.39964,-14.53463 -7.26748,-21.90971 -5.86783,-7.37508 -17.1724,-12.54289 -25.94713,-15.61134 -8.77473,-3.06845 -15.01916,-4.03742 -22.93261,-3.22991 -7.91344,0.80751 -17.49541,3.39142 -27.50833,7.96723 -10.01292,4.57582 -20.45618,11.14323 -28.80025,13.6195 -8.34408,2.47627 -14.5885,0.86133 -19.16428,-1.93799 -4.57578,-2.79932 -7.48267,-6.78283 -7.5903,-9.74363 -0.10764,-2.9608 2.58392,-4.89872 5.9754,-3.55287 3.39148,1.34586 7.48265,5.97534 12.97362,7.7518 5.49097,1.77646 12.38137,0.69984 22.07132,-2.96083 9.68994,-3.66066 22.17879,-9.90509 33.26835,-13.2427 11.08955,-3.33761 20.77918,-3.76825 30.57676,-2.15325 9.79759,1.61501 19.70254,5.27553 26.80845,10.01284 7.10591,4.7373 11.41241,10.55108 12.86587,17.49553 1.45346,6.94445 0.0539,15.01914 -1.39962,18.89507 z"
       id="path9"
       inkscape:path-effect="#path-effect9"
       inkscape:original-d="m 320.08706,199.2873 c -1.50731,-0.32299 -3.01461,-0.64599 -4.52192,-0.96898 -0.43067,-9.58235 -0.86132,-19.16431 -1.29198,-28.74647 -11.30501,-5.16801 -22.60958,-10.33581 -33.91437,-15.50371 -6.24467,-0.969 -12.4891,-1.93796 -18.73365,-2.90695 -9.58234,2.58401 -19.16431,5.16791 -28.74646,7.75186 -10.44369,6.56768 -20.88695,13.13509 -31.33042,19.70263 -6.24468,-1.615 -12.4891,-3.22994 -18.73365,-4.84491 -2.90701,-3.98367 -5.8139,-7.96718 -8.72084,-11.95077 2.69167,-1.93801 5.38323,-3.87593 8.07485,-5.8139 4.09134,4.62968 8.18251,9.25916 12.27377,13.88875 6.89068,-1.07667 13.78108,-2.1533 20.67162,-3.22994 12.48935,-6.24468 24.9782,-12.48911 37.4673,-18.73366 9.69001,-0.43066 19.37964,-0.86131 29.06946,-1.29197 9.90535,3.66067 19.8103,7.32119 29.71545,10.98179 4.30667,5.81401 8.61317,11.62779 12.91976,17.44168 -1.39967,8.07501 -2.79928,16.1497 -4.19892,24.22455 z" />
    <path
       style="fill:#1e1408;fill-opacity:1;fill-rule:evenodd;stroke-width:1.00157;paint-order:stroke markers fill"
       d="m 278.09784,239.66155 c -0.53832,-2.90695 -1.07665,-5.81389 -2.58398,-7.26737 -1.50733,-1.45347 -3.98357,-1.45347 -6.45986,-1.45347 -0.96898,6.78287 -1.93796,13.56575 -0.0538,18.14152 1.88418,4.57577 6.62133,6.94435 11.35857,9.31297 -2.26096,-3.76826 -4.52191,-7.53652 -4.89872,-10.65882 -0.37682,-3.1223 1.13046,-5.59854 2.63777,-8.07483 z m 24.22455,10.01281 c -1.39964,2.47629 -2.79929,4.95258 -5.97544,6.35222 -3.17616,1.39965 -8.12864,1.72264 -13.08121,2.04563 8.29018,1.93796 16.58036,3.87593 24.54762,4.52191 7.96726,0.64598 15.6113,1e-5 19.86406,-1.77649 4.25277,-1.7765 5.11406,-4.68338 5.97538,-7.59033 -4.73724,-2.36862 -9.47449,-4.73725 -14.69628,-5.32939 -5.22179,-0.59215 -10.9279,0.59214 -16.63413,1.77645 z"
       id="path3"
       inkscape:path-effect="#path-effect3"
       inkscape:original-d="m 278.09784,239.66155 c 0,0 -1.07665,-5.81389 -1.61497,-8.72084 -2.47634,0 -7.42887,0 -7.42887,0 0,0 -1.93796,13.56575 -2.90694,20.34862 4.73734,2.36867 14.21173,7.10587 14.21173,7.10587 0,0 -4.52191,-7.53652 -6.78287,-11.30479 1.50734,-2.47633 4.52192,-7.42886 4.52192,-7.42886 z m 24.22455,10.01281 c 0,0 -2.79928,4.95258 -4.19893,7.42887 -4.95267,0.323 -14.85772,0.96898 -14.85772,0.96898 0,0 16.58036,3.87593 24.87054,5.81389 7.64434,-0.646 15.28838,-1.29198 22.93257,-1.93796 0.86134,-2.90701 2.58395,-8.72084 2.58395,-8.72084 0,0 -9.47449,-4.73725 -14.21173,-7.10587 -5.70634,1.18434 -17.11868,3.55293 -17.11868,3.55293 z"
       sodipodi:nodetypes="ccccccccccccccc" />
    <path
       style="fill:#e1d9c7;fill-opacity:1;fill-rule:evenodd;stroke-width:1.00157;paint-order:stroke markers fill"
       d="m 321.3252,193.04275 c -1.13048,4.41425 -2.96075,4.52191 -3.48198,0.33922 -0.52124,-4.1827 0.2666,-12.6555 -3.28633,-19.59987 -3.55293,-6.94436 -11.44661,-12.36016 -20.07693,-16.52156 -8.63031,-4.1614 -17.99709,-7.06833 -28.27918,-6.85296 -10.28209,0.21536 -21.47899,3.5529 -31.06122,8.23637 -9.58224,4.68347 -17.54927,10.71257 -25.19353,13.61952 -7.64427,2.90694 -14.96532,2.69162 -20.45626,0.75361 -5.49093,-1.938 -9.15145,-5.59852 -10.17425,-7.64415 -1.0228,-2.04564 0.59214,-2.47629 3.9298,-0.96895 3.33765,1.50734 8.39779,4.95254 12.97358,6.51368 4.57579,1.56113 8.66696,1.23814 15.3961,-1.93802 6.72913,-3.17617 16.09577,-9.20527 26.00103,-13.56571 9.90525,-4.36045 20.34851,-7.05201 30.95359,-6.99815 10.60508,0.0539 21.37133,2.85308 30.5229,7.10589 9.15158,4.25281 16.68795,9.95892 20.24088,17.17254 3.55293,7.21362 3.12228,15.93428 1.9918,20.34854 z"
       id="path5"
       inkscape:path-effect="#path-effect5"
       inkscape:original-d="m 322.02502,197.34934 c -1.8303,0.10766 -3.66057,0.21533 -5.4909,0.32299 0.78786,-8.47306 1.5757,-16.94586 2.36355,-25.41878 -7.89371,-5.41581 -15.78739,-10.83161 -23.68115,-16.24745 -9.36687,-2.90696 -18.73365,-5.81389 -28.10048,-8.72083 -11.19735,3.33767 -22.39425,6.6752 -33.59138,10.01281 -7.96734,6.02934 -15.93437,12.05844 -23.90155,18.08766 -7.32135,-0.21533 -14.6424,-0.43066 -21.96359,-0.64598 -3.66068,-3.66068 -7.3212,-7.3212 -10.9818,-10.9818 1.615,-0.43067 3.22994,-0.86132 4.84491,-1.29198 5.06034,3.44534 10.12048,6.89054 15.18072,10.33581 4.09134,-0.323 8.18251,-0.64599 12.27377,-0.96898 9.36701,-6.02934 18.73365,-12.05844 28.10048,-18.08766 10.44368,-2.69168 20.88694,-5.38324 31.33042,-8.07485 10.76668,2.79933 21.53293,5.59856 32.2994,8.39784 7.53668,5.70634 15.07305,11.41245 22.60958,17.11868 -0.43067,8.72101 -0.86132,17.44167 -1.29198,26.16252 z"
       sodipodi:nodetypes="ccccccccccccccccc" />
    <path
       style="fill:#e1d9c7;fill-opacity:1;fill-rule:evenodd;stroke-width:1.00157;paint-order:stroke markers fill"
       d="m 365.46772,191.64311 c -0.59216,-2.90695 -0.37683,-9.25904 -9.90535,-17.44172 -9.52851,-8.18267 -28.8001,-18.19528 -54.15544,-20.88686 -25.35535,-2.69157 -56.79281,1.93792 -73.42702,3.87588 -16.6342,1.93795 -18.46447,1.18431 -22.01745,-1.66885 -3.55299,-2.85316 -8.82845,-7.80564 -12.75824,-10.87409 -3.92979,-3.06846 -6.51369,-4.25274 -8.45167,-7.32124 -1.93797,-3.06849 -3.22992,-8.02096 -3.28374,-10.44342 -0.0538,-2.42245 1.13047,-2.31479 2.26096,5e-5 1.13049,2.31483 2.20711,6.83666 5.49094,10.92795 3.28383,4.0913 8.77461,7.75182 13.02739,10.87412 4.25279,3.1223 7.26734,5.7062 16.63432,6.08301 9.36699,0.37681 25.08572,-1.45345 41.28942,-3.76827 16.2037,-2.31482 32.89139,-5.11405 50.65625,-1.45335 17.76485,3.6607 36.60579,13.78098 46.45712,22.17889 9.85132,8.39791 10.71262,15.07299 10.44345,18.67976 -0.26918,3.60677 -1.66879,4.14509 -2.26094,1.23814 z"
       id="path6"
       inkscape:path-effect="#path-effect6"
       inkscape:original-d="m 364.66023,195.08838 c 0.21533,-6.35222 0.43066,-12.70431 0.64599,-19.05665 -19.27236,-10.01301 -38.54395,-20.02562 -57.81593,-30.03844 -31.43871,4.62967 -62.87617,9.25916 -94.31425,13.88874 -1.83033,-0.75367 -3.6606,-1.5073 -5.4909,-2.26096 -5.27567,-4.95267 -10.55113,-9.90515 -15.8267,-14.85772 -2.58401,-1.18434 -5.16791,-2.36862 -7.75186,-3.55293 -1.292,-4.95268 -2.58395,-9.90515 -3.87593,-14.85773 1.18434,0.10767 2.36863,0.21533 3.55294,0.323 1.07667,4.522 2.15329,9.04383 3.22994,13.56574 5.49101,3.66068 10.98179,7.3212 16.47269,10.9818 3.01467,2.584 6.02922,5.1679 9.04383,7.75186 15.71936,-1.83034 31.43809,-3.6606 47.15713,-5.4909 16.68836,-2.79934 33.37605,-5.59857 50.06407,-8.39785 18.84169,10.12068 37.68263,20.24096 56.52395,30.36144 0.86133,6.67534 1.72263,13.35042 2.58395,20.02563 -1.39967,0.53833 -2.79928,1.07664 -4.19892,1.61497 z"
       sodipodi:nodetypes="ccccccccccccccccc" />
  </g>
</svg>
