<?xml version="1.0" encoding="UTF-8" standalone="no"?>
<!-- Created with Inkscape (http://www.inkscape.org/) -->

<svg
   width="42.815586mm"
   height="31.460077mm"
   viewBox="0 0 42.815586 31.460078"
   version="1.1"
   id="svg1"
   xml:space="preserve"
   inkscape:version="1.4 (e7c3feb100, 2024-10-09)"
   sodipodi:docname="desmod.svg"
   xmlns:inkscape="http://www.inkscape.org/namespaces/inkscape"
   xmlns:sodipodi="http://sodipodi.sourceforge.net/DTD/sodipodi-0.dtd"
   xmlns="http://www.w3.org/2000/svg"
   xmlns:svg="http://www.w3.org/2000/svg"><sodipodi:namedview
     id="namedview1"
     pagecolor="#505050"
     bordercolor="#eeeeee"
     borderopacity="1"
     inkscape:showpageshadow="0"
     inkscape:pageopacity="0"
     inkscape:pagecheckerboard="0"
     inkscape:deskcolor="#d1d1d1"
     inkscape:document-units="mm"
     inkscape:zoom="5.3566861"
     inkscape:cx="97.54165"
     inkscape:cy="27.722364"
     inkscape:window-width="2158"
     inkscape:window-height="1415"
     inkscape:window-x="0"
     inkscape:window-y="0"
     inkscape:window-maximized="0"
     inkscape:current-layer="layer1" /><defs
     id="defs1"><inkscape:path-effect
       effect="bspline"
       id="path-effect24"
       is_visible="true"
       lpeversion="1.3"
       weight="33.333333"
       steps="2"
       helper_size="0"
       apply_no_weight="true"
       apply_with_weight="true"
       only_selected="false"
       uniform="false" /><inkscape:path-effect
       effect="bspline"
       id="path-effect23"
       is_visible="true"
       lpeversion="1.3"
       weight="33.333333"
       steps="2"
       helper_size="0"
       apply_no_weight="true"
       apply_with_weight="true"
       only_selected="false"
       uniform="false" /><inkscape:path-effect
       effect="bspline"
       id="path-effect22"
       is_visible="true"
       lpeversion="1.3"
       weight="33.333333"
       steps="2"
       helper_size="0"
       apply_no_weight="true"
       apply_with_weight="true"
       only_selected="false"
       uniform="false" /><inkscape:path-effect
       effect="bspline"
       id="path-effect21"
       is_visible="true"
       lpeversion="1.3"
       weight="33.333333"
       steps="2"
       helper_size="0"
       apply_no_weight="true"
       apply_with_weight="true"
       only_selected="false"
       uniform="false" /><inkscape:path-effect
       effect="bspline"
       id="path-effect20"
       is_visible="true"
       lpeversion="1.3"
       weight="33.333333"
       steps="2"
       helper_size="0"
       apply_no_weight="true"
       apply_with_weight="true"
       only_selected="false"
       uniform="false" /><inkscape:path-effect
       effect="bspline"
       id="path-effect19"
       is_visible="true"
       lpeversion="1.3"
       weight="33.333333"
       steps="2"
       helper_size="0"
       apply_no_weight="true"
       apply_with_weight="true"
       only_selected="false"
       uniform="false" /><inkscape:path-effect
       effect="bspline"
       id="path-effect18"
       is_visible="true"
       lpeversion="1.3"
       weight="33.333333"
       steps="2"
       helper_size="0"
       apply_no_weight="true"
       apply_with_weight="true"
       only_selected="false"
       uniform="false" /><inkscape:path-effect
       effect="bspline"
       id="path-effect17"
       is_visible="true"
       lpeversion="1.3"
       weight="33.333333"
       steps="2"
       helper_size="0"
       apply_no_weight="true"
       apply_with_weight="true"
       only_selected="false"
       uniform="false" /><inkscape:path-effect
       effect="bspline"
       id="path-effect16"
       is_visible="true"
       lpeversion="1.3"
       weight="33.333333"
       steps="2"
       helper_size="0"
       apply_no_weight="true"
       apply_with_weight="true"
       only_selected="false"
       uniform="false" /><inkscape:path-effect
       effect="bspline"
       id="path-effect15"
       is_visible="true"
       lpeversion="1.3"
       weight="33.333333"
       steps="2"
       helper_size="0"
       apply_no_weight="true"
       apply_with_weight="true"
       only_selected="false"
       uniform="false" /><inkscape:path-effect
       effect="bspline"
       id="path-effect14"
       is_visible="true"
       lpeversion="1.3"
       weight="33.333333"
       steps="2"
       helper_size="0"
       apply_no_weight="true"
       apply_with_weight="true"
       only_selected="false"
       uniform="false" /><inkscape:path-effect
       effect="bspline"
       id="path-effect13"
       is_visible="true"
       lpeversion="1.3"
       weight="33.333333"
       steps="2"
       helper_size="0"
       apply_no_weight="true"
       apply_with_weight="true"
       only_selected="false"
       uniform="false" /><inkscape:path-effect
       effect="bspline"
       id="path-effect12"
       is_visible="true"
       lpeversion="1.3"
       weight="33.333333"
       steps="2"
       helper_size="0"
       apply_no_weight="true"
       apply_with_weight="true"
       only_selected="false"
       uniform="false" /><inkscape:path-effect
       effect="bspline"
       id="path-effect11"
       is_visible="true"
       lpeversion="1.3"
       weight="33.333333"
       steps="2"
       helper_size="0"
       apply_no_weight="true"
       apply_with_weight="true"
       only_selected="false"
       uniform="false" /><inkscape:path-effect
       effect="bspline"
       id="path-effect10"
       is_visible="true"
       lpeversion="1.3"
       weight="33.333333"
       steps="2"
       helper_size="0"
       apply_no_weight="true"
       apply_with_weight="true"
       only_selected="false"
       uniform="false" /><inkscape:path-effect
       effect="bspline"
       id="path-effect9"
       is_visible="true"
       lpeversion="1.3"
       weight="33.333333"
       steps="2"
       helper_size="0"
       apply_no_weight="true"
       apply_with_weight="true"
       only_selected="false"
       uniform="false" /><inkscape:path-effect
       effect="bspline"
       id="path-effect8"
       is_visible="true"
       lpeversion="1.3"
       weight="33.333333"
       steps="2"
       helper_size="0"
       apply_no_weight="true"
       apply_with_weight="true"
       only_selected="false"
       uniform="false" /><inkscape:path-effect
       effect="bspline"
       id="path-effect6"
       is_visible="true"
       lpeversion="1.3"
       weight="33.333333"
       steps="2"
       helper_size="0"
       apply_no_weight="true"
       apply_with_weight="true"
       only_selected="false"
       uniform="false" /><inkscape:path-effect
       effect="bspline"
       id="path-effect5"
       is_visible="true"
       lpeversion="1.3"
       weight="33.333333"
       steps="2"
       helper_size="0"
       apply_no_weight="true"
       apply_with_weight="true"
       only_selected="false"
       uniform="false" /><inkscape:path-effect
       effect="bspline"
       id="path-effect4"
       is_visible="true"
       lpeversion="1.3"
       weight="33.333333"
       steps="2"
       helper_size="0"
       apply_no_weight="true"
       apply_with_weight="true"
       only_selected="false"
       uniform="false" /><inkscape:path-effect
       effect="bspline"
       id="path-effect3"
       is_visible="true"
       lpeversion="1.3"
       weight="33.333333"
       steps="2"
       helper_size="0"
       apply_no_weight="true"
       apply_with_weight="true"
       only_selected="false"
       uniform="false" /><inkscape:path-effect
       effect="bspline"
       id="path-effect1"
       is_visible="true"
       lpeversion="1.3"
       weight="33.333333"
       steps="2"
       helper_size="0"
       apply_no_weight="true"
       apply_with_weight="true"
       only_selected="false"
       uniform="false" /><inkscape:path-effect
       effect="bspline"
       id="path-effect9-1"
       is_visible="true"
       lpeversion="1.3"
       weight="33.333333"
       steps="2"
       helper_size="0"
       apply_no_weight="true"
       apply_with_weight="true"
       only_selected="false"
       uniform="false" /></defs><g
     inkscape:label="Layer 1"
     inkscape:groupmode="layer"
     id="layer1"
     transform="translate(-41.881043,-114.58188)"><path
       style="fill:#e7abae;fill-opacity:1;fill-rule:evenodd;stroke-width:0.264999;paint-order:stroke markers fill"
       d="m 81.303544,125.80516 c 0,0 0,0 0,0 3.349584,-1.52254 6.699167,-3.04507 9.505011,-3.32782 2.805844,-0.28275 5.067856,0.67426 5.742114,2.26207 0.674258,1.58781 -0.239248,3.80632 -1.152771,6.02488 0,0 -12.006302,1.95755 -12.006302,1.95755 z"
       id="path21"
       inkscape:path-effect="#path-effect22"
       inkscape:original-d="m 81.303544,125.80516 c 0,0 0,0 0,0 0,0 6.699168,-3.04507 10.048753,-4.56761 2.262103,0.95704 4.524113,1.91405 6.786171,2.87107 -0.913542,2.2186 -2.74057,6.65567 -2.74057,6.65567 0,0 -12.006302,1.95755 -12.006302,1.95755 z"
       transform="matrix(0.76461296,0,0,0.76461296,9.8582549,26.97109)" /><path
       style="fill:#412413;fill-opacity:1;fill-rule:evenodd;stroke-width:0.264999;paint-order:stroke markers fill"
       d="m 86.784682,130.50328 c 0,0 0,0 0,0 2.349059,-2.74057 4.698121,-5.48114 6.264166,-6.35115 1.566046,-0.87001 2.349047,0.13049 2.544801,1.5443 0.195753,1.4138 -0.19575,3.24081 -0.58726,5.06786 z"
       id="path22"
       inkscape:path-effect="#path-effect23"
       inkscape:original-d="m 86.784682,130.50328 c 0,0 0,0 0,0 0,0 4.698118,-5.48114 7.047177,-8.2217 0.783037,1.00054 1.566039,2.00104 2.34906,3.00157 -0.391519,1.82708 -1.17453,5.48114 -1.17453,5.48114 z"
       transform="matrix(0.76461296,0,0,0.76461296,9.8582549,26.97109)" /><path
       style="fill:#e7abae;fill-opacity:1;fill-rule:evenodd;stroke-width:0.264999;paint-order:stroke markers fill"
       d="m 66.295666,127.50171 c 1.435537,-2.91457 2.871075,-5.82915 4.741644,-7.41694 1.870569,-1.58779 4.176083,-1.84879 5.372363,-0.97875 1.196281,0.87004 1.283281,2.87105 1.370283,4.8721 0,0 -10.179256,7.30818 -10.179256,7.30818 z"
       id="path20"
       inkscape:path-effect="#path-effect21"
       inkscape:original-d="m 66.295666,127.50171 c 0,0 2.871073,-5.82915 4.30661,-8.74372 2.305603,-0.26101 4.611116,-0.52202 6.916674,-0.78302 0.087,2.00109 0.261006,6.00315 0.261006,6.00315 0,0 -10.179256,7.30818 -10.179256,7.30818 z"
       transform="matrix(0.76461296,0,0,0.76461296,9.8582549,26.97109)" /><path
       style="fill:#412413;fill-opacity:1;fill-rule:evenodd;stroke-width:0.264999;paint-order:stroke markers fill"
       d="m 51.418293,124.04336 c 0.130504,-0.97877 0.391509,-2.93631 1.305048,-3.82808 0.913538,-0.89177 2.479547,-0.71777 6.198949,2.06635 3.719401,2.78412 9.591933,8.17815 15.46458,13.57229 0,0 -2.088052,7.43868 -2.088052,7.43868 0,0 -24.926128,4.43711 -24.926128,4.43711 0,0 -1.696543,-3.13207 -1.696543,-3.13207 5.56814,-1.21803 11.13628,-2.43607 14.224863,-3.5671 3.088584,-1.13104 3.69759,-2.17505 2.044506,-4.35014 -1.653084,-2.17508 -5.5681,-5.4811 -7.721408,-7.61266 -2.153309,-2.13157 -2.544809,-3.08857 -2.805815,-5.02438 z"
       id="path17"
       inkscape:path-effect="#path-effect18"
       inkscape:original-d="m 51.28779,125.02214 c 0.261007,-1.95755 0.522013,-3.91509 0.783019,-5.87264 1.566071,0.174 3.132079,0.34801 4.698119,0.52201 5.872766,5.39424 17.617942,16.18241 17.617942,16.18241 0,0 -2.088052,7.43868 -2.088052,7.43868 0,0 -24.926128,4.43711 -24.926128,4.43711 0,0 -1.696543,-3.13207 -1.696543,-3.13207 0,0 11.136281,-2.43606 16.704421,-3.6541 0.609029,-1.04404 1.218031,-2.08805 1.827046,-3.13207 -3.915177,-3.30616 -7.830195,-6.61217 -11.745296,-9.91825 -0.391517,-0.95705 -1.174528,-2.87108 -1.174528,-2.87108 z"
       transform="matrix(0.76461296,0,0,0.76461296,9.8582549,26.97109)" /><path
       style="display:inline;fill:#e7abae;fill-opacity:1;fill-rule:evenodd;stroke-width:0.264999;paint-order:stroke markers fill"
       d="m 51.396543,125.1744 c 0.02175,0.76127 0.02175,0.76127 0.02175,0.76127 -0.78302,-2.04455 -1.566042,-4.08911 -1.131014,-5.98142 0.435028,-1.89232 2.088034,-3.63232 3.393077,-4.50235 1.305044,-0.87002 2.26205,-0.87002 3.219074,-0.87002 0.609015,1.91405 1.218031,3.8281 3.219115,6.37295 2.001085,2.54484 5.394102,5.72035 8.787187,8.89593 2.479562,-1.95755 4.959123,-3.91509 8.482756,-3.71931 3.523633,0.19578 8.091155,2.54479 9.37442,5.72041 1.283265,3.17562 -0.717745,7.17764 -6.808,10.33149 -6.090254,3.15385 -16.269306,5.45936 -22.054966,6.45989 -5.785659,1.00052 -7.177667,0.69602 -8.526215,0.15224 -1.348548,-0.54377 -2.653553,-1.32677 -3.284319,-2.1968 -0.630766,-0.87003 -0.587266,-1.82704 0.456782,-1.87053 1.044048,-0.0435 3.088557,0.82651 6.960212,0.50024 3.871655,-0.32628 9.570182,-1.84878 12.96328,-3.21908 3.393098,-1.3703 4.480602,-2.5883 4.937361,-3.67584 0.456759,-1.08754 0.282759,-2.04454 -0.13051,-2.15329 -0.413268,-0.10874 -1.065769,0.63076 -2.784092,-0.60905 -1.718322,-1.23982 -4.502334,-4.45883 -6.612151,-7.02541 -2.109818,-2.56659 -3.545324,-4.4806 -4.415348,-5.72039 -0.870024,-1.23978 -1.174529,-1.80529 -2.109817,-1.93579 -0.935288,-0.1305 -2.501295,0.174 -3.262565,1.08754 -0.761269,0.91354 -0.717768,2.43605 -0.696018,3.19732 z"
       id="path11"
       inkscape:path-effect="#path-effect12"
       inkscape:original-d="m 51.418294,125.93567 c 0,0 0,0 0,0 0,0 -1.56604,-4.08911 -2.349061,-6.13366 1.653074,-1.74008 3.306085,-3.48008 4.959125,-5.22013 0.957043,0 2.871073,0 2.871073,0 0,0 1.21803,3.8281 1.827046,5.74215 3.393154,3.17564 10.179256,9.52673 10.179256,9.52673 0,0 4.959125,-3.91509 7.438686,-5.87264 4.567706,2.3491 9.135229,4.69811 13.702845,7.04718 -2.001091,4.00218 -4.002101,8.0042 -6.00315,12.0063 -10.17946,2.3056 -20.358512,4.61111 -30.537768,6.91667 -1.392063,-0.30451 -2.784071,-0.60901 -4.176104,-0.91352 -1.30506,-0.78304 -2.610067,-1.56604 -3.915101,-2.34906 0.0435,-0.95704 0.087,-1.91405 0.130503,-2.87107 2.044594,0.87004 4.089104,1.74004 6.133656,2.61006 5.698757,-1.52257 11.397286,-3.04507 17.09593,-4.56761 1.087548,-1.21806 2.175055,-2.43606 3.262582,-3.65409 -0.174008,-0.95705 -0.348009,-1.91405 -0.522015,-2.87108 -0.652528,0.73954 -1.305031,1.47904 -1.957549,2.21856 -2.784125,-3.21915 -5.56814,-6.43816 -8.35221,-9.65724 -1.435563,-1.91409 -2.871071,-3.8281 -4.306607,-5.74215 -0.304514,-0.56552 -0.609015,-1.13103 -0.913524,-1.69654 -1.566069,0.30451 -3.132077,0.60901 -4.698117,0.91352 0.0435,1.52257 0.087,3.04508 0.130504,4.56762 z"
       transform="matrix(0.76461296,0,0,0.76461296,9.8582549,26.97109)" /><path
       style="fill:#f8f5d6;fill-opacity:1;fill-rule:evenodd;stroke-width:0.264999;paint-order:stroke markers fill"
       d="m 67.731203,129.32875 c 0.913523,-0.56551 1.827047,-1.13103 2.566572,-2.13157 0.739525,-1.00054 1.305026,-2.43604 1.87054,-3.87158 0,1.39204 0,2.78407 0.304514,2.37079 0.304513,-0.41328 0.913517,-2.63179 1.522532,-4.85035 0.261006,1.34853 0.522013,2.69707 0.826524,2.5883 0.304511,-0.10877 0.652513,-1.67478 1.000522,-3.24082 0.261006,1.52254 0.522012,3.04508 1.696564,3.19732 1.174551,0.15224 3.26256,-1.06576 5.350613,-2.28379 -1.261532,1.17453 -2.523062,2.34905 -2.327291,2.78406 0.19577,0.43501 1.848779,0.13051 3.501821,-0.174 -0.826521,1.13103 -1.653046,2.26206 -1.370273,2.3708 0.282773,0.10874 1.67478,-0.80476 3.066816,-1.71828 -1.000525,2.08805 -2.001048,4.1761 -1.827031,4.50235 0.174018,0.32624 1.522522,-1.10926 2.871056,-2.5448 0.435011,1.47904 0.870021,2.95807 1.653053,2.82755 0.783032,-0.13052 1.914037,-1.87053 3.045065,-3.61057 -0.087,1.87055 -0.174004,3.74109 0.369771,4.11084 0.543774,0.36975 1.718282,-0.76126 2.892812,-1.89229 -0.522013,1.17453 -1.044027,2.34906 -0.521998,2.5013 0.522029,0.15225 2.088037,-0.71776 3.654077,-1.58778 -2.044552,1.74005 -4.089102,3.48009 -4.4806,4.41537 -0.391499,0.93528 0.870008,1.06578 2.131539,1.19628 -2.39256,1.56604 -4.785118,3.13207 -5.58988,4.1761 -0.804762,1.04404 -0.02176,1.56604 1.109284,1.47903 1.131042,-0.087 2.610049,-0.78301 4.089087,-1.47903 -1.435536,1.04403 -2.871071,2.08805 -4.284871,2.67532 -1.413799,0.58727 -2.805806,0.71777 -3.197312,1.17453 -0.391505,0.45677 0.2175,1.23978 0.826515,2.0228 -1.957549,-0.65252 -3.915096,-1.30503 -6.003171,-1.37028 -2.088074,-0.0652 -4.306589,0.45676 -4.19781,-0.56555 0.108779,-1.0223 2.544791,-3.58881 2.87103,-4.93734 0.32624,-1.34854 -1.457269,-1.47904 -1.261493,-2.32732 0.195776,-0.84829 2.370789,-2.4143 2.327265,-3.39308 -0.04352,-0.97878 -2.305535,-1.37028 -3.654075,-1.8488 -1.34854,-0.47852 -1.783541,-1.04402 -2.805831,-1.00051 -1.022289,0.0435 -2.6318,0.69601 -4.067349,0.87001 -1.435549,0.174 -2.697056,-0.1305 -3.958587,-0.43501 z"
       id="path12"
       inkscape:path-effect="#path-effect13"
       inkscape:original-d="m 67.731203,129.32875 c 0,0 1.827045,-1.13103 2.74057,-1.69654 0.565525,-1.43557 1.696542,-4.30661 1.696542,-4.30661 0,0 0,2.78407 0,4.17611 0.609026,-2.2186 1.827046,-6.65567 1.827046,-6.65567 0,0 0.522012,2.69707 0.783019,4.0456 0.348017,-1.56607 1.044027,-4.69812 1.044027,-4.69812 0,0 0.522012,3.04508 0.783018,4.56762 2.088095,-1.21806 6.264159,-3.65409 6.264159,-3.65409 0,0 -2.523064,2.34905 -3.784595,3.52358 1.653075,-0.30451 4.959125,-0.91352 4.959125,-0.91352 0,0 -1.653042,2.26206 -2.479564,3.39308 1.392063,-0.91354 4.176107,-2.74056 4.176107,-2.74056 0,0 -2.001052,4.1761 -3.001576,6.26416 1.34856,-1.43557 4.045601,-4.30661 4.045601,-4.30661 0,0 0.870021,2.95807 1.305033,4.43711 1.131051,-1.74008 3.393085,-5.22013 3.393085,-5.22013 0,0 -0.174005,3.74109 -0.261006,5.61164 1.174552,-1.13105 3.523589,-3.39309 3.523589,-3.39309 0,0 -1.044027,2.34906 -1.56604,3.52359 1.566072,-0.87004 4.698119,-2.61007 4.698119,-2.61007 0,0 -4.089104,3.48009 -6.133655,5.22014 1.261557,0.1305 3.784594,0.39151 3.784594,0.39151 0,0 -4.785119,3.13207 -7.17768,4.69811 0.783035,0.52203 1.56604,1.04403 2.349058,1.56604 1.479069,-0.69603 4.437113,-2.08805 4.437113,-2.08805 0,0 -2.871073,2.08805 -4.306607,3.13208 -1.392063,0.13051 -2.78407,0.26101 -4.176106,0.39151 0.609028,0.78303 1.827045,2.34906 1.827045,2.34906 0,0 -3.915097,-1.30503 -5.872646,-1.95755 -2.2186,0.52202 -4.437113,1.04403 -6.655668,1.56604 2.436109,-2.56662 4.872122,-5.13313 7.308183,-7.69969 -1.78358,-0.13051 -3.567089,-0.26101 -5.350634,-0.39151 2.175097,-1.56607 4.35011,-3.13208 6.525164,-4.69812 -2.262102,-0.39152 -4.524113,-0.78302 -6.78617,-1.17453 -0.43502,-0.56553 -0.870022,-1.13103 -1.305034,-1.69654 -1.609571,0.65252 -3.219079,1.30503 -4.828622,1.95754 -1.261557,-0.30451 -3.784594,-0.91352 -3.784594,-0.91352 z"
       transform="matrix(0.76461296,0,0,0.76461296,9.8582549,26.97109)" /><path
       style="fill:#f8f5d6;fill-opacity:1;fill-rule:evenodd;stroke-width:0.264999;paint-order:stroke markers fill"
       d="m 56.725427,120.80253 c -0.217505,-0.2175 -0.217505,-0.2175 -0.217505,-0.2175 -0.609015,1.47904 -1.218033,2.95808 -1.000518,3.17557 0.217514,0.2175 1.261522,-0.82651 1.566028,-1.56603 0.304507,-0.73952 -0.1305,-1.17453 -0.348005,-1.39204 z"
       id="path13"
       inkscape:path-effect="#path-effect14"
       inkscape:original-d="m 56.507922,120.58503 c 0,0 0,0 0,0 0,0 -1.218031,2.95808 -1.827046,4.43711 1.044046,-1.04404 2.088052,-2.08805 3.132077,-3.13208 -0.435018,-0.43501 -0.870022,-0.87002 -1.305031,-1.30503 z"
       transform="matrix(0.76461296,0,0,0.76461296,9.8582549,26.97109)" /><path
       style="fill:#f8f5d6;fill-opacity:1;fill-rule:evenodd;stroke-width:0.264999;paint-order:stroke markers fill"
       d="m 51.374791,122.56433 c -0.435008,0.71777 -1.566036,1.71829 -1.696533,1.50078 -0.130497,-0.21752 0.739508,-1.65303 1.305025,-2.15329 0.565518,-0.50026 0.826517,-0.0653 0.391508,0.65251 z"
       id="path14"
       inkscape:path-effect="#path-effect15"
       inkscape:original-d="m 52.070809,122.28158 c -1.131028,1.00052 -2.262058,2.00104 -3.393085,3.00157 0.87004,-1.43556 1.740042,-2.87107 2.610066,-4.30661 0.261012,0.43502 0.522013,0.87002 0.783019,1.30504 z"
       transform="matrix(0.76461296,0,0,0.76461296,9.8582549,26.97109)" /><path
       style="fill:#f8f5d6;fill-opacity:1;fill-rule:evenodd;stroke-width:0.264999;paint-order:stroke markers fill"
       d="m 50.417767,145.42416 c -0.348009,-0.43501 -0.130506,-0.82652 0.26101,-1.76181 0.391516,-0.93529 0.95702,-2.4143 1.30503,-1.97927 0.348011,0.43504 0.478511,2.78405 0.08699,3.71932 -0.391518,0.93527 -1.305023,0.45677 -1.653032,0.0218 z"
       id="path15"
       inkscape:path-effect="#path-effect16"
       inkscape:original-d="m 49.852254,145.38066 c 0.217506,-0.39151 0.435009,-0.78302 0.652515,-1.17454 0.565526,-1.47906 1.131031,-2.95807 1.696543,-4.43711 0.130506,2.34911 0.261006,4.69812 0.391509,7.04718 -0.91354,-0.47852 -1.827045,-0.95702 -2.740567,-1.43553 z"
       transform="matrix(0.76461296,0,0,0.76461296,9.8582549,26.97109)" /><path
       style="fill:#f8f5d6;fill-opacity:1;fill-rule:evenodd;stroke-width:0.264999;paint-order:stroke markers fill"
       d="m 46.698426,145.11965 c 0.152252,0.1305 0.152252,0.1305 0.152252,0.1305 0.478512,-3.17558 0.957024,-6.35116 0.804761,-6.48163 -0.152262,-0.13047 -0.935265,2.78404 -1.174515,4.37183 -0.239251,1.58779 0.06525,1.8488 0.217502,1.9793 z"
       id="path16"
       inkscape:path-effect="#path-effect17"
       inkscape:original-d="m 46.850678,145.25015 c 0,0 0,0 0,0 0,0 0.957024,-6.35116 1.435536,-9.52674 -0.783034,2.91464 -1.566039,5.82915 -2.349058,8.74372 0.304512,0.26102 0.609015,0.52202 0.913522,0.78302 z"
       transform="matrix(0.76461296,0,0,0.76461296,9.8582549,26.97109)" /><path
       style="fill:#412413;fill-opacity:1;fill-rule:evenodd;stroke-width:0.264999;paint-order:stroke markers fill"
       d="m 76.561925,132.67834 c 0.087,-0.17401 -1.044027,-0.13051 -1.957557,-0.43502 -0.913531,-0.30452 -1.609533,-0.95702 -1.696531,-0.783 -0.087,0.17401 0.435005,1.17451 1.348542,1.47902 0.913537,0.3045 2.218543,-0.087 2.305546,-0.261 z"
       id="path18"
       inkscape:path-effect="#path-effect19"
       inkscape:original-d="m 77.779956,132.46083 c -1.131028,0.0435 -2.262058,0.087 -3.393086,0.1305 -0.696031,-0.65253 -1.392033,-1.30503 -2.088052,-1.95754 0.522023,1.00054 1.044025,2.00104 1.56604,3.00157 1.305057,-0.39152 2.610064,-0.78302 3.915098,-1.17453 z"
       transform="matrix(0.76461296,0,0,0.76461296,9.8582549,26.97109)" /><path
       style="fill:#e7abae;fill-opacity:1;fill-rule:evenodd;stroke-width:0.264999;paint-order:stroke markers fill"
       d="m 48.742975,145.4024 c -0.543765,0.50027 -2.196806,1.15278 -2.979824,3.00161 -0.783018,1.84883 -0.696018,4.89384 -1.239793,6.32938 -0.543775,1.43553 -1.718281,1.26153 -2.283795,-0.17403 -0.565514,-1.43557 -0.522014,-4.13258 0.565534,-6.06839 1.087548,-1.93581 3.219055,-3.11032 4.567598,-3.52357 1.348543,-0.41326 1.914044,-0.0653 1.37028,0.435 z"
       id="path19"
       inkscape:path-effect="#path-effect20"
       inkscape:original-d="m 49.852254,145.25015 c -1.653043,0.65252 -3.306083,1.30504 -4.959125,1.95755 0.087,3.04514 0.174003,6.09015 0.261006,9.13523 -1.174551,-0.17401 -2.349058,-0.34801 -3.523588,-0.52201 0.0435,-2.69713 0.087,-5.39414 0.130503,-8.09121 2.131597,-1.17455 4.263106,-2.34905 6.394661,-3.52359 0.565526,0.34802 1.131028,0.69602 1.696543,1.04403 z"
       transform="matrix(0.76461296,0,0,0.76461296,9.8582549,26.97109)" /><path
       style="fill:#412413;fill-opacity:1;fill-rule:evenodd;stroke-width:0.264999;paint-order:stroke markers fill"
       d="m 53.234829,116.53943 c 0.348009,0.34801 0.696017,0.69602 1.392045,0.67427 0.696029,-0.0218 1.740034,-0.41326 2.78406,-0.80477 -0.348009,-0.65252 -0.696021,-1.30504 -1.392047,-1.28328 -0.696027,0.0218 -1.740032,0.71776 -2.784058,1.41378 z"
       id="path23"
       inkscape:path-effect="#path-effect24"
       inkscape:original-d="m 53.234829,116.53943 c 0,0 0.696017,0.69602 1.044026,1.04403 1.044047,-0.39152 3.132079,-1.17453 3.132079,-1.17453 0,0 -0.696018,-1.30504 -1.044027,-1.95755 -1.044047,0.69603 -3.132078,2.08805 -3.132078,2.08805 z"
       transform="matrix(0.76461296,0,0,0.76461296,9.8582549,26.97109)" /></g></svg>
