<?xml version="1.0" encoding="UTF-8" standalone="no"?>
<!-- Created with Inkscape (http://www.inkscape.org/) -->

<svg
   width="48.527935mm"
   height="51.551907mm"
   viewBox="0 0 48.527935 51.551907"
   version="1.1"
   id="svg1"
   xml:space="preserve"
   sodipodi:docname="dromaius.svg"
   inkscape:version="1.4.2 (ebf0e940d0, 2025-05-08)"
   xmlns:inkscape="http://www.inkscape.org/namespaces/inkscape"
   xmlns:sodipodi="http://sodipodi.sourceforge.net/DTD/sodipodi-0.dtd"
   xmlns="http://www.w3.org/2000/svg"
   xmlns:svg="http://www.w3.org/2000/svg"><sodipodi:namedview
     id="namedview1"
     pagecolor="#505050"
     bordercolor="#eeeeee"
     borderopacity="1"
     inkscape:showpageshadow="0"
     inkscape:pageopacity="0"
     inkscape:pagecheckerboard="0"
     inkscape:deskcolor="#d1d1d1"
     inkscape:document-units="mm"
     inkscape:zoom="3.8274582"
     inkscape:cx="100.19704"
     inkscape:cy="127.36912"
     inkscape:window-width="1056"
     inkscape:window-height="1391"
     inkscape:window-x="0"
     inkscape:window-y="0"
     inkscape:window-maximized="0"
     inkscape:current-layer="layer1" /><defs
     id="defs1"><inkscape:path-effect
       effect="bspline"
       id="path-effect34"
       is_visible="true"
       lpeversion="1.3"
       weight="33.333333"
       steps="2"
       helper_size="0"
       apply_no_weight="true"
       apply_with_weight="true"
       only_selected="false"
       uniform="false" /><inkscape:path-effect
       effect="bspline"
       id="path-effect33"
       is_visible="true"
       lpeversion="1.3"
       weight="33.333333"
       steps="2"
       helper_size="0"
       apply_no_weight="true"
       apply_with_weight="true"
       only_selected="false"
       uniform="false" /><inkscape:path-effect
       effect="bspline"
       id="path-effect32"
       is_visible="true"
       lpeversion="1.3"
       weight="33.333333"
       steps="2"
       helper_size="0"
       apply_no_weight="true"
       apply_with_weight="true"
       only_selected="false"
       uniform="false" /><inkscape:path-effect
       effect="bspline"
       id="path-effect31"
       is_visible="true"
       lpeversion="1.3"
       weight="33.333333"
       steps="2"
       helper_size="0"
       apply_no_weight="true"
       apply_with_weight="true"
       only_selected="false"
       uniform="false" /><inkscape:path-effect
       effect="bspline"
       id="path-effect30"
       is_visible="true"
       lpeversion="1.3"
       weight="33.333333"
       steps="2"
       helper_size="0"
       apply_no_weight="true"
       apply_with_weight="true"
       only_selected="false"
       uniform="false" /><inkscape:path-effect
       effect="bspline"
       id="path-effect29"
       is_visible="true"
       lpeversion="1.3"
       weight="33.333333"
       steps="2"
       helper_size="0"
       apply_no_weight="true"
       apply_with_weight="true"
       only_selected="false"
       uniform="false" /><inkscape:path-effect
       effect="bspline"
       id="path-effect6"
       is_visible="true"
       lpeversion="1.3"
       weight="33.333333"
       steps="2"
       helper_size="0"
       apply_no_weight="true"
       apply_with_weight="true"
       only_selected="false"
       uniform="false" /><inkscape:path-effect
       effect="bspline"
       id="path-effect28"
       is_visible="true"
       lpeversion="1.3"
       weight="33.333333"
       steps="2"
       helper_size="0"
       apply_no_weight="true"
       apply_with_weight="true"
       only_selected="false"
       uniform="false" /><inkscape:path-effect
       effect="bspline"
       id="path-effect27"
       is_visible="true"
       lpeversion="1.3"
       weight="33.333333"
       steps="2"
       helper_size="0"
       apply_no_weight="true"
       apply_with_weight="true"
       only_selected="false"
       uniform="false" /><inkscape:path-effect
       effect="bspline"
       id="path-effect26"
       is_visible="true"
       lpeversion="1.3"
       weight="33.333333"
       steps="2"
       helper_size="0"
       apply_no_weight="true"
       apply_with_weight="true"
       only_selected="false"
       uniform="false" /><inkscape:path-effect
       effect="bspline"
       id="path-effect25"
       is_visible="true"
       lpeversion="1.3"
       weight="33.333333"
       steps="2"
       helper_size="0"
       apply_no_weight="true"
       apply_with_weight="true"
       only_selected="false"
       uniform="false" /><inkscape:path-effect
       effect="bspline"
       id="path-effect24"
       is_visible="true"
       lpeversion="1.3"
       weight="33.333333"
       steps="2"
       helper_size="0"
       apply_no_weight="true"
       apply_with_weight="true"
       only_selected="false"
       uniform="false" /><inkscape:path-effect
       effect="bspline"
       id="path-effect23"
       is_visible="true"
       lpeversion="1.3"
       weight="33.333333"
       steps="2"
       helper_size="0"
       apply_no_weight="true"
       apply_with_weight="true"
       only_selected="false"
       uniform="false" /><inkscape:path-effect
       effect="bspline"
       id="path-effect22"
       is_visible="true"
       lpeversion="1.3"
       weight="33.333333"
       steps="2"
       helper_size="0"
       apply_no_weight="true"
       apply_with_weight="true"
       only_selected="false"
       uniform="false" /><inkscape:path-effect
       effect="bspline"
       id="path-effect21"
       is_visible="true"
       lpeversion="1.3"
       weight="33.333333"
       steps="2"
       helper_size="0"
       apply_no_weight="true"
       apply_with_weight="true"
       only_selected="false"
       uniform="false" /><inkscape:path-effect
       effect="bspline"
       id="path-effect20"
       is_visible="true"
       lpeversion="1.3"
       weight="33.333333"
       steps="2"
       helper_size="0"
       apply_no_weight="true"
       apply_with_weight="true"
       only_selected="false"
       uniform="false" /><inkscape:path-effect
       effect="bspline"
       id="path-effect19"
       is_visible="true"
       lpeversion="1.3"
       weight="33.333333"
       steps="2"
       helper_size="0"
       apply_no_weight="true"
       apply_with_weight="true"
       only_selected="false"
       uniform="false" /><inkscape:path-effect
       effect="bspline"
       id="path-effect18"
       is_visible="true"
       lpeversion="1.3"
       weight="33.333333"
       steps="2"
       helper_size="0"
       apply_no_weight="true"
       apply_with_weight="true"
       only_selected="false"
       uniform="false" /><inkscape:path-effect
       effect="bspline"
       id="path-effect17"
       is_visible="true"
       lpeversion="1.3"
       weight="33.333333"
       steps="2"
       helper_size="0"
       apply_no_weight="true"
       apply_with_weight="true"
       only_selected="false"
       uniform="false" /><inkscape:path-effect
       effect="bspline"
       id="path-effect16"
       is_visible="true"
       lpeversion="1.3"
       weight="33.333333"
       steps="2"
       helper_size="0"
       apply_no_weight="true"
       apply_with_weight="true"
       only_selected="false"
       uniform="false" /><inkscape:path-effect
       effect="bspline"
       id="path-effect15"
       is_visible="true"
       lpeversion="1.3"
       weight="33.333333"
       steps="2"
       helper_size="0"
       apply_no_weight="true"
       apply_with_weight="true"
       only_selected="false"
       uniform="false" /><inkscape:path-effect
       effect="bspline"
       id="path-effect14"
       is_visible="true"
       lpeversion="1.3"
       weight="33.333333"
       steps="2"
       helper_size="0"
       apply_no_weight="true"
       apply_with_weight="true"
       only_selected="false"
       uniform="false" /><inkscape:path-effect
       effect="bspline"
       id="path-effect13"
       is_visible="true"
       lpeversion="1.3"
       weight="33.333333"
       steps="2"
       helper_size="0"
       apply_no_weight="true"
       apply_with_weight="true"
       only_selected="false"
       uniform="false" /><inkscape:path-effect
       effect="bspline"
       id="path-effect12"
       is_visible="true"
       lpeversion="1.3"
       weight="33.333333"
       steps="2"
       helper_size="0"
       apply_no_weight="true"
       apply_with_weight="true"
       only_selected="false"
       uniform="false" /><inkscape:path-effect
       effect="bspline"
       id="path-effect11"
       is_visible="true"
       lpeversion="1.3"
       weight="33.333333"
       steps="2"
       helper_size="0"
       apply_no_weight="true"
       apply_with_weight="true"
       only_selected="false"
       uniform="false" /><inkscape:path-effect
       effect="bspline"
       id="path-effect10"
       is_visible="true"
       lpeversion="1.3"
       weight="33.333333"
       steps="2"
       helper_size="0"
       apply_no_weight="true"
       apply_with_weight="true"
       only_selected="false"
       uniform="false" /><inkscape:path-effect
       effect="bspline"
       id="path-effect9"
       is_visible="true"
       lpeversion="1.3"
       weight="33.333333"
       steps="2"
       helper_size="0"
       apply_no_weight="true"
       apply_with_weight="true"
       only_selected="false"
       uniform="false" /><inkscape:path-effect
       effect="bspline"
       id="path-effect7"
       is_visible="true"
       lpeversion="1.3"
       weight="33.333333"
       steps="2"
       helper_size="0"
       apply_no_weight="true"
       apply_with_weight="true"
       only_selected="false"
       uniform="false" /><inkscape:path-effect
       effect="bspline"
       id="path-effect5"
       is_visible="true"
       lpeversion="1.3"
       weight="33.333333"
       steps="2"
       helper_size="0"
       apply_no_weight="true"
       apply_with_weight="true"
       only_selected="false"
       uniform="false" /><inkscape:path-effect
       effect="bspline"
       id="path-effect4"
       is_visible="true"
       lpeversion="1.3"
       weight="33.333333"
       steps="2"
       helper_size="0"
       apply_no_weight="true"
       apply_with_weight="true"
       only_selected="false"
       uniform="false" /><inkscape:path-effect
       effect="bspline"
       id="path-effect3"
       is_visible="true"
       lpeversion="1.3"
       weight="33.333333"
       steps="2"
       helper_size="0"
       apply_no_weight="true"
       apply_with_weight="true"
       only_selected="false"
       uniform="false" /><inkscape:path-effect
       effect="bspline"
       id="path-effect2"
       is_visible="true"
       lpeversion="1.3"
       weight="33.333333"
       steps="2"
       helper_size="0"
       apply_no_weight="true"
       apply_with_weight="true"
       only_selected="false"
       uniform="false" /><inkscape:path-effect
       effect="bspline"
       id="path-effect1"
       is_visible="true"
       lpeversion="1.3"
       weight="33.333333"
       steps="2"
       helper_size="0"
       apply_no_weight="true"
       apply_with_weight="true"
       only_selected="false"
       uniform="false" /></defs><g
     inkscape:label="Layer 1"
     inkscape:groupmode="layer"
     id="layer1"
     transform="translate(-87.360431,-38.3509)"><path
       style="fill:#1c2426;fill-rule:evenodd;stroke-width:0.264999;paint-order:stroke markers fill;fill-opacity:1"
       inkscape:path-effect="#path-effect6"
       inkscape:original-d="m 112.32668,89.374824 c 0,0 1.36428,-5.093298 2.04642,-7.639947 -0.68216,-4.547676 -2.04642,-13.64276 -2.04642,-13.64276 0,0 -1.27332,0.545711 -1.90998,0.818565 0.40929,-0.773104 1.22784,-2.319269 1.22784,-2.319269 0,0 -2.27379,0.818566 -3.41069,1.22785 1.04597,-0.636675 3.13784,-1.909988 3.13784,-1.909988 0,0 -2.8195,-0.727612 -4.22926,-1.091419 0.90954,-0.409292 2.72856,-1.227849 2.72856,-1.227849 0,0 -6.18472,-0.09095 -9.27708,-0.136428 -1.136921,0.500245 -2.273795,1.000469 -3.410691,1.500704 -1.091443,-0.727629 -2.182842,-1.455228 -3.274263,-2.182842 1.637164,-1.000489 3.274263,-2.000938 4.911394,-3.001407 1.000489,-0.545721 2.00094,-1.091421 3.00141,-1.637131 0.45476,-0.773106 1.36427,-2.31927 1.36427,-2.31927 0,0 -0.72761,-0.181903 -1.09142,-0.272855 0.5912,-0.773105 1.77356,-2.319269 1.77356,-2.319269 0,0 -2.27379,0.54571 -3.41069,0.818565 0.95501,-0.682151 2.86498,-2.046413 2.86498,-2.046413 0,0 -1.90999,-0.818566 -2.86498,-1.227849 0.63668,-0.181907 1.27333,-0.363807 1.90999,-0.54571 -0.091,-0.636675 -0.18191,-1.273325 -0.27286,-1.909987 0.45477,0.955012 1.36428,2.86498 1.36428,2.86498 0,0 -0.36381,-1.819035 -0.54571,-2.728552 0.5912,0.227384 1.18237,0.454758 1.77356,0.682138 0.27286,-0.636675 0.54571,-1.273325 0.81856,-1.909987 0.45477,0.773106 0.90952,1.54618 1.36428,2.31927 0.091,-0.636675 0.1819,-1.273325 0.27285,-1.909987 0.31834,0 0.63667,0 0.955,0 0.27286,-0.409291 0.54571,-0.818565 0.81856,-1.227848 -0.0909,-0.636675 -0.1819,-1.273325 -0.27285,-1.909987 0.7731,0.181907 1.54618,0.363807 2.31927,0.545711 1.31882,-1.000489 2.6376,-2.000939 3.9564,-3.001408 1.09144,0.363815 2.18284,0.727614 3.27426,1.091421 -0.63667,0.545721 -1.90999,1.637131 -1.90999,1.637131 0,0 2.54665,-0.454758 3.81998,-0.682138 0.7731,1.227873 1.54617,2.455697 2.31927,3.683546 0.40929,-0.773106 0.81856,-1.54618 1.22784,-2.319269 0.50025,0.864058 1.00047,1.728082 1.50071,2.592124 0.68215,0.272861 1.36427,0.54571 2.04641,0.818566 -1.00049,0.363814 -2.00094,0.727613 -3.00141,1.09142 0.18191,0.363815 0.36381,0.727614 0.54571,1.091421 0.72763,-0.09095 1.45523,-0.181903 2.18285,-0.272855 -0.50025,0.636675 -1.00047,1.273324 -1.50071,1.909986 0.77311,0.454768 1.54618,0.909518 2.31927,1.364276 -0.40929,0.454768 -0.81856,0.909518 -1.22785,1.364277 0.50025,0.682151 1.00047,1.364276 1.50071,2.046414 -0.81859,0.227383 -1.63713,0.454758 -2.4557,0.682138 0.95501,0 1.90999,0 2.86498,0 -0.5912,0.636674 -1.18237,1.273324 -1.77356,1.909986 0.45477,0.272861 0.90952,0.54571 1.36428,0.818566 -0.54572,0.227384 -1.09142,0.454758 -1.63713,0.682138 1.40978,0.545721 2.8195,1.091421 4.22925,1.637131 -1.63716,-0.09095 -3.27426,-0.181903 -4.91139,-0.272855 0.50024,0.727628 1.00047,1.455228 1.5007,2.182841 -1.00049,-0.04548 -3.00141,-0.136427 -3.00141,-0.136427 0,0 -0.1819,1.000469 -0.27285,1.500703 0.72763,3.54719 1.45523,7.094236 2.18284,10.641354 0.18191,4.183864 0.54571,12.551338 0.54571,12.551338 z"
       d="m 112.32668,89.374824 c 0.68214,-2.546649 1.36428,-5.093298 1.36427,-8.640461 0,-3.547163 -0.68213,-8.094659 -1.36427,-12.642246 -0.63666,0.272855 -1.27332,0.54571 -1.38701,0.295585 -0.11368,-0.250125 0.29559,-1.023199 0.70487,-1.796289 -1.1369,0.409283 -2.27379,0.818566 -2.31926,0.70487 -0.0455,-0.113696 1.00046,-0.750345 2.04641,-1.387008 -1.40975,-0.363806 -2.8195,-0.727611 -3.06961,-1.114161 -0.25011,-0.38655 0.65939,-0.795824 1.56891,-1.205107 -3.09236,-0.04548 -6.18472,-0.09095 -8.29936,0.136433 -2.114641,0.227384 -3.251515,0.727609 -4.365684,0.613911 -1.11417,-0.113697 -2.205569,-0.841296 -1.932697,-1.705347 0.272871,-0.864052 1.90997,-1.864501 3.22878,-2.637596 1.31881,-0.773095 2.319261,-1.318795 3.046881,-1.978202 0.72761,-0.659406 1.18236,-1.432483 1.63712,-2.205573 -0.36381,-0.09095 -0.72761,-0.181903 -0.61392,-0.613932 0.1137,-0.432029 0.70487,-1.205102 1.29606,-1.978192 -1.1369,0.272855 -2.27379,0.545709 -2.36473,0.341062 -0.0909,-0.204647 0.86403,-0.886772 1.81902,-1.56891 -0.95499,-0.409283 -1.90999,-0.818567 -2.06914,-1.114162 -0.15916,-0.295595 0.47749,-0.477495 0.75034,-0.886786 0.27285,-0.409292 0.1819,-1.045936 0.36381,-0.886761 0.18191,0.159175 0.63666,1.11415 1.09142,2.069143 -0.1819,-0.909517 -0.36381,-1.819036 -0.15916,-2.160102 0.20465,-0.341066 0.79582,-0.113693 1.22784,-0.31834 0.43203,-0.204647 0.70488,-0.841298 1.06869,-0.773075 0.36381,0.06822 0.81856,0.841296 1.09142,0.9095 0.27285,0.0682 0.3638,-0.568439 0.56845,-0.88677 0.20464,-0.318331 0.52297,-0.318331 0.81856,-0.522977 0.2956,-0.204646 0.56845,-0.613921 0.6594,-1.136895 0.091,-0.522975 0,-1.159632 0.34108,-1.38701 0.34107,-0.227378 1.11415,-0.04548 2.16011,-0.454768 1.04595,-0.409291 2.36473,-1.409744 3.56985,-1.728071 1.20512,-0.318328 2.29652,0.04547 2.52389,0.500235 0.22738,0.454762 -0.40928,1.000465 -1.04594,1.546175 1.27333,-0.227379 2.54665,-0.454758 3.56987,0.04549 1.02321,0.500246 1.79629,1.728068 2.38748,1.955441 0.59119,0.227373 1.00046,-0.5457 1.45522,-0.500215 0.45477,0.04549 0.95499,0.909507 1.54619,1.477959 0.59119,0.568452 1.27331,0.8413 1.11414,1.159636 -0.15918,0.318335 -1.15963,0.682134 -1.56891,1.045946 -0.40928,0.363811 -0.22738,0.72761 0.22738,0.864037 0.45477,0.136426 1.18237,0.04548 1.29606,0.318338 0.11368,0.272863 -0.38654,0.909508 -0.25011,1.455225 0.13644,0.545717 0.90951,1.000465 1.09141,1.455227 0.1819,0.454763 -0.22737,0.909511 -0.18189,1.477968 0.0455,0.568458 0.5457,1.250579 0.38653,1.705342 -0.15918,0.454763 -0.97772,0.682135 -0.9095,0.795825 0.0682,0.11369 1.0232,0.11369 1.2051,0.432028 0.18189,0.318337 -0.40928,0.954984 -0.47749,1.409747 -0.0682,0.454762 0.38654,0.727611 0.34106,0.977731 -0.0455,0.25012 -0.59118,0.477495 -0.15915,0.864045 0.43204,0.386551 1.84176,0.93225 1.72806,1.159628 -0.11371,0.227379 -1.75081,0.136429 -2.31925,0.454766 -0.56845,0.318338 -0.0682,1.04594 -0.31835,1.387008 -0.25013,0.341067 -1.25058,0.295593 -2.25105,0.250117 -0.091,0.500234 -0.1819,1.000469 0.13644,3.024181 0.31834,2.023712 1.04594,5.570759 1.5007,9.436249 0.45476,3.865491 0.63666,8.049186 0.81856,12.232965 z"
       id="path1" /><path
       style="fill:#596362;fill-opacity:1;fill-rule:evenodd;stroke-width:0.264999;paint-order:stroke markers fill"
       d="m 104.65361,57.347273 c 2.07844,-0.784001 3.14617,-0.417921 3.93934,-0.03659 0.79317,0.381334 1.31177,0.77791 1.38803,1.388048 0.0763,0.610137 -0.2898,1.433796 -2.51682,2.394761 -2.22701,0.960966 -6.3148,2.059178 -8.679058,2.364238 -2.364257,0.30506 -3.004878,-0.183032 -3.115649,-0.55828 -0.110772,-0.375249 0.308323,-0.637638 2.062465,-1.735884 1.754143,-1.098247 4.843252,-3.032295 6.921692,-3.816296 z"
       id="path32"
       inkscape:path-effect="#path-effect33"
       inkscape:original-d="m 105.66432,56.197194 c 1.06773,0.366078 2.13546,0.732156 3.20318,1.098234 0.51862,0.396592 1.03722,0.793168 1.55583,1.189753 -0.36608,0.823691 -0.73215,1.64735 -1.09823,2.471025 -4.08795,1.098255 -8.17574,2.196467 -12.263607,3.2947 -0.640648,-0.488113 -1.281269,-0.976205 -1.921908,-1.464311 0.419096,-0.262391 0.838191,-0.52478 1.257283,-0.787169 3.089194,-1.934103 6.178302,-3.868152 9.267452,-5.802232 z"
       sodipodi:nodetypes="cccccccc" /><path
       style="fill:#5cb9d9;fill-rule:evenodd;stroke-width:0.264999;paint-order:stroke markers fill;fill-opacity:1"
       inkscape:path-effect="#path-effect29"
       inkscape:original-d="m 108.64314,57.314337 c -1.72809,0.864042 -3.45617,1.728083 -5.18425,2.592125 -2.22836,0.909535 -6.684954,2.728552 -6.684954,2.728552 0,0 0.54571,0.363807 0.818565,0.54571 1.864548,-0.545721 5.593529,-1.637131 5.593529,-1.637131 0,0 -0.1819,-0.54571 -0.27285,-0.818566 0.50024,-0.181907 1.00047,-0.363807 1.5007,-0.54571 0.18191,0.318337 0.54571,0.954993 0.54571,0.954993 0,0 3.45617,-1.455228 5.18425,-2.182841 -0.50024,-0.545722 -1.00047,-1.091421 -1.5007,-1.637132 z"
       d="m 108.02921,58.019214 c -1.11416,0.159167 -2.84224,1.023208 -4.82046,1.909995 -1.97822,0.886788 -4.206496,1.796288 -6.434814,2.705805 0.272855,0.181903 0.54571,0.363807 1.614412,0.181898 1.068701,-0.18191 2.933172,-0.727609 4.797682,-1.273319 -0.091,-0.272855 -0.1819,-0.54571 0.0228,-0.773091 0.20464,-0.227381 0.70487,-0.409283 1.04594,-0.341065 0.34107,0.06822 0.52297,0.386542 0.70487,0.704873 1.72808,-0.727614 3.45617,-1.455229 4.07009,-2.091895 0.61392,-0.636666 0.11369,-1.182369 -1.00047,-1.023201 z"
       id="path6" /><path
       style="fill:#765b3e;fill-opacity:1;fill-rule:evenodd;stroke-width:0.264999;paint-order:stroke markers fill"
       d="m 118.15162,50.846978 c 0.46699,-0.348704 0.90483,-0.101415 0.81593,0.257243 -0.0889,0.358659 -0.70455,0.828694 -0.46665,1.131923 0.2379,0.303229 1.3293,0.439654 1.97061,0.371812 0.6413,-0.06784 0.83249,-0.339946 0.65322,-0.68708 -0.17927,-0.347133 -0.72899,-0.76929 -0.56367,-0.817082 0.16531,-0.04779 1.04566,0.278782 1.38409,0.785082 0.33843,0.506299 0.13495,1.192319 -0.83084,1.421641 -0.96578,0.229322 -2.69386,0.0019 -3.30983,-0.584104 -0.61597,-0.586047 -0.11984,-1.53073 0.34714,-1.879435 z"
       id="path29"
       inkscape:path-effect="#path-effect30"
       inkscape:original-d="m 118.18077,50.250986 c 0.43784,0.247288 0.87568,0.494577 1.31352,0.741865 -0.61564,0.470031 -1.23129,0.940063 -1.84693,1.410092 1.09144,0.136431 2.18284,0.272855 3.27426,0.409283 0.19119,-0.272112 0.38238,-0.544216 0.57357,-0.816324 -0.54973,-0.422159 -1.09945,-0.844316 -1.64917,-1.266479 0.88035,0.326579 1.7607,0.653153 2.64105,0.97973 -0.20349,0.686022 -0.40697,1.372042 -0.61046,2.058066 -1.72808,-0.22738 -3.45616,-0.454758 -5.18424,-0.682138 0.49614,-0.944716 0.99227,-1.889397 1.4884,-2.834095 z"
       transform="matrix(0.87981011,-0.47532533,0.57538483,1.0650167,-15.935619,54.90599)"
       sodipodi:nodetypes="cccccccccc" /><path
       style="fill:#596362;fill-opacity:1;fill-rule:evenodd;stroke-width:0.264999;paint-order:stroke markers fill"
       d="m 110.16658,62.362158 c -0.11369,-0.409282 -0.34107,-1.227848 1e-5,-1.978208 0.34108,-0.75036 1.25058,-1.432485 0.84128,-2.160104 -0.4093,-0.727618 -2.13735,-1.500693 -2.95591,-1.978201 -0.81857,-0.477509 -0.72762,-0.659392 -1.10327,-0.889212 -0.37564,-0.229819 -1.21782,-0.507536 -1.00829,-0.632695 0.20952,-0.125158 1.47077,-0.09774 1.63993,-1.110644 0.16916,-1.012903 -0.75378,-3.066115 -0.84339,-3.499388 -0.0896,-0.433273 0.6541,0.753408 1.25514,1.548083 0.60103,0.794676 1.05938,1.197335 1.29159,1.023911 0.23221,-0.173424 0.23827,-0.922934 -0.40824,-2.130163 -0.6465,-1.20723 -1.94559,-2.872184 -1.76784,-2.835514 0.17776,0.03667 1.83236,1.774967 2.60727,1.884064 0.77492,0.109097 0.67015,-1.411004 0.27669,-2.625814 -0.39345,-1.21481 -1.07559,-2.124327 -0.73451,-2.260747 0.34109,-0.13642 1.70532,0.500221 2.58837,0.18356 0.88305,-0.316661 1.28484,-1.586612 1.46504,-1.459351 0.1802,0.127261 0.13879,1.651748 0.45524,2.362342 0.31645,0.710595 0.99075,0.607293 1.92471,-0.111155 0.93397,-0.718448 2.12758,-2.05203 2.22415,-1.741092 0.0966,0.310938 -0.90387,2.266372 -0.88015,3.269064 0.0237,1.002692 1.07161,1.052592 1.84404,0.884732 0.77242,-0.167859 1.26936,-0.553478 1.49634,-0.511827 0.22698,0.04165 0.18399,0.510573 0.84406,0.746648 0.66007,0.236075 2.02318,0.239309 2.61379,0.513781 0.59061,0.274473 0.4087,0.820183 -1.22846,1.0703 -1.63716,0.250116 -4.72943,0.204641 -6.31149,1.071768 -1.58206,0.867127 -1.6538,2.646822 -1.05897,3.735515 0.59482,1.088692 1.8562,1.486363 1.64195,1.733404 -0.21425,0.247041 -1.90412,0.343449 -2.20029,0.809489 -0.29618,0.46604 0.80136,1.301701 1.96099,1.574556 1.15963,0.272854 2.38135,-0.0171 2.21912,0.269951 -0.16223,0.287048 -1.70836,1.151066 -2.33692,1.707078 -0.62855,0.556011 -0.33947,0.803976 0.75195,0.576596 1.09142,-0.227379 2.98517,-0.930102 3.15895,-0.917658 0.17379,0.01244 -1.37235,0.740039 -2.28188,1.331237 -0.90954,0.591199 -1.18239,1.045949 -2.09192,1.023204 -0.90954,-0.02275 -2.45565,-0.522957 -3.38922,-0.129658 -0.93357,0.393298 -1.25449,1.680092 -1.55008,1.839259 -0.29559,0.159167 -0.56586,-0.809316 -0.70098,-1.293567 -0.13513,-0.484251 -0.13513,-0.484255 -0.13512,-0.48426 0,-4e-6 1e-5,-10e-7 -0.11368,-0.409284 z"
       id="path30"
       inkscape:path-effect="#path-effect31"
       inkscape:original-d="m 110.28027,62.771441 c -0.22738,-0.818565 -0.45476,-1.637131 -0.68214,-2.455697 0.90954,-0.682151 1.81904,-1.364276 2.72855,-2.046414 -1.72811,-0.773105 -3.45616,-1.546179 -5.18425,-2.319269 0.091,-0.181907 0.18191,-0.363807 0.27286,-0.54571 -0.84224,-0.277736 -1.68442,-0.555454 -2.52665,-0.833188 1.26128,0.02742 2.52253,0.05484 3.78379,0.08225 -0.92294,-2.053222 -1.84588,-4.106433 -2.76883,-6.15968 0.74372,1.186703 1.48744,2.373381 2.23116,3.560072 0.45835,0.40266 0.9167,0.805319 1.37505,1.207979 0.006,-0.749509 0.0121,-1.499018 0.0182,-2.248527 -1.29908,-1.664953 -2.59817,-3.329906 -3.89726,-4.994859 1.6546,1.738296 3.3092,3.476592 4.9638,5.214888 -0.10477,-1.520102 -0.20954,-3.040203 -0.31431,-4.560305 -0.68214,-0.909518 -1.36428,-1.819035 -2.04642,-2.728552 1.36431,0.636675 2.72854,1.273318 4.09283,1.909986 0.40181,-1.269989 0.8036,-2.53994 1.2054,-3.809919 -0.0414,1.5245 -0.0828,3.048987 -0.12421,4.573478 0.6743,-0.103302 1.3486,-0.206604 2.02291,-0.309907 1.19362,-1.333593 2.38723,-2.667174 3.58085,-4.00077 -1.00047,1.955471 -2.00092,3.910906 -3.0014,5.866388 1.04792,0.0499 2.09581,0.0998 3.14372,0.149701 0.49694,-0.38562 0.99388,-0.771238 1.49082,-1.156857 -0.043,0.46892 -0.086,0.93784 -0.12895,1.40676 1.36312,0.0032 2.72623,0.0065 4.08935,0.0097 -0.1819,0.545713 -0.36381,1.091421 -0.54571,1.637132 -3.09242,-0.04548 -6.18469,-0.09095 -9.27708,-0.136428 -0.0717,1.779731 -0.14347,3.559425 -0.2152,5.33914 1.26138,0.397671 2.52276,0.795341 3.78415,1.193014 -1.68989,0.09641 -3.37976,0.192817 -5.06966,0.289226 1.09755,0.835671 2.19509,1.671332 3.29263,2.506995 1.22172,-0.289954 2.44344,-0.579905 3.66518,-0.869864 -1.5462,0.864055 -3.09233,1.728073 -4.63853,2.592125 0.28909,0.247971 0.57817,0.495936 0.86725,0.743905 1.89376,-0.702728 3.78751,-1.405451 5.68127,-2.108181 -1.54619,0.727617 -3.09233,1.455214 -4.63854,2.182841 -0.27286,0.454768 -0.54571,0.909517 -0.81856,1.364277 -1.54622,-0.500249 -3.09233,-1.000461 -4.63854,-1.500704 -0.32093,1.286841 -0.64184,2.573637 -0.96277,3.860457 -0.27026,-0.968489 -0.54052,-1.936973 -0.81079,-2.905464 10e-6,-7e-6 10e-6,-1.5e-5 2e-5,-2.2e-5 z"
       sodipodi:nodetypes="cccccccccccccccccccccccccccccccccccccccccc" /><path
       style="fill:#596362;fill-opacity:1;fill-rule:evenodd;stroke-width:0.264999;paint-order:stroke markers fill"
       d="m 113.59601,68.476054 c 0.85418,-0.777915 2.31849,-1.632097 3.41673,-2.501541 1.09824,-0.869443 1.83038,-1.754111 2.68458,-1.845624 0.85419,-0.09151 1.83038,0.610124 2.54728,0.899932 0.71691,0.289808 1.1745,0.167784 1.66261,0.320325 0.48811,0.15254 1.00671,0.579622 1.09822,0.777912 0.0915,0.19829 -0.24405,0.167784 -0.4881,0.305066 -0.24406,0.137283 -0.39659,0.442338 -0.27455,0.533857 0.12203,0.09152 0.5186,-0.0305 0.59487,0.09153 0.0763,0.12203 -0.16779,0.4881 -1.57111,1.006717 -1.40333,0.518617 -3.96582,1.189746 -5.09456,2.379515 -1.12873,1.189769 -0.82367,2.8981 -1.06773,5.003071 -0.24406,2.104971 -1.03721,4.606456 -1.4338,6.619898 -0.39658,2.013443 -0.39658,3.538737 -0.53386,3.431947 -0.13729,-0.106791 -0.41184,-1.845626 -0.36608,-4.209908 0.0458,-2.364282 0.41183,-5.353858 0.30505,-7.535085 -0.10677,-2.181226 -0.68639,-3.55399 -1.23551,-3.935316 -0.54912,-0.381327 -1.06772,0.228792 -1.205,0.183024 -0.13727,-0.04577 0.10678,-0.747401 0.96096,-1.525317 z"
       id="path31"
       inkscape:path-effect="#path-effect32"
       inkscape:original-d="m 112.98588,68.55232 c 1.46431,-0.854181 2.92862,-1.708362 4.39293,-2.562545 0.73217,-0.884706 1.46431,-1.769375 2.19647,-2.654063 0.97623,0.701663 1.95242,1.403298 2.92862,2.104946 0.45761,-0.122028 0.9152,-0.244051 1.37279,-0.366077 0.51863,0.427101 1.03723,0.854181 1.55583,1.281274 -0.33557,-0.03051 -0.67114,-0.06101 -1.00671,-0.09152 -0.15254,0.30507 -0.30506,0.61013 -0.4576,0.915194 0.3966,-0.122028 0.79317,-0.244051 1.18976,-0.366077 -0.24406,0.366085 -0.48811,0.732155 -0.73216,1.098232 -2.5626,0.671156 -5.12509,1.342287 -7.68763,2.013429 0.30507,1.708396 0.61013,3.416726 0.91519,5.12509 -0.79318,2.50158 -1.58634,5.003062 -2.3795,7.504594 0,1.525355 0,3.050649 0,4.575974 -0.27457,-1.738905 -0.54912,-3.477741 -0.82368,-5.216609 0.36608,-2.989697 0.73216,-5.979271 1.09823,-8.968907 -0.57963,-1.37282 -1.15924,-2.745584 -1.73887,-4.118377 -0.51862,0.610142 -1.03722,1.220261 -1.55583,1.83039 0.24406,-0.701664 0.48811,-1.403297 0.73216,-2.104948 z" /><path
       style="fill:#596362;fill-opacity:1;fill-rule:evenodd;stroke-width:0.264999;paint-order:stroke markers fill"
       d="m 106.06148,62.773918 c -0.24423,-0.174449 1.04671,-0.628022 1.84918,-0.976922 0.80247,-0.348901 1.11648,-0.593129 1.36071,-0.418674 0.24423,0.174456 0.41868,0.767575 -0.38381,1.116477 -0.80249,0.348901 -2.58185,0.453569 -2.82608,0.279119 z"
       id="path33"
       inkscape:path-effect="#path-effect34"
       inkscape:original-d="m 104.52632,63.053038 c 1.29093,-0.45357 2.58187,-0.907141 3.8728,-1.360711 0.31401,-0.244235 0.62802,-0.48846 0.94203,-0.732691 0.17445,0.593143 0.3489,1.186261 0.52335,1.779392 -1.77943,0.104672 -3.55879,0.20934 -5.33818,0.31401 z" /></g></svg>
