<?xml version="1.0" encoding="UTF-8" standalone="no"?>
<!-- Created with Inkscape (http://www.inkscape.org/) -->

<svg
   width="17.971476mm"
   height="18.276814mm"
   viewBox="0 0 17.971476 18.276814"
   version="1.1"
   id="svg1"
   inkscape:version="1.3.2 (091e20ef0f, 2023-11-25)"
   sodipodi:docname="ndi.svg"
   inkscape:export-filename="ndi.png"
   inkscape:export-xdpi="70.667542"
   inkscape:export-ydpi="70.667542"
   xmlns:inkscape="http://www.inkscape.org/namespaces/inkscape"
   xmlns:sodipodi="http://sodipodi.sourceforge.net/DTD/sodipodi-0.dtd"
   xmlns="http://www.w3.org/2000/svg"
   xmlns:svg="http://www.w3.org/2000/svg">
  <sodipodi:namedview
     id="namedview1"
     pagecolor="#505050"
     bordercolor="#eeeeee"
     borderopacity="1"
     inkscape:showpageshadow="0"
     inkscape:pageopacity="0"
     inkscape:pagecheckerboard="0"
     inkscape:deskcolor="#d1d1d1"
     inkscape:document-units="mm"
     inkscape:zoom="10.779165"
     inkscape:cx="43.788178"
     inkscape:cy="34.047164"
     inkscape:window-width="739"
     inkscape:window-height="1415"
     inkscape:window-x="0"
     inkscape:window-y="0"
     inkscape:window-maximized="0"
     inkscape:current-layer="g16" />
  <defs
     id="defs1">
    <inkscape:path-effect
       effect="bspline"
       id="path-effect1"
       is_visible="true"
       lpeversion="1.3"
       weight="33.333333"
       steps="2"
       helper_size="0"
       apply_no_weight="true"
       apply_with_weight="true"
       only_selected="false"
       uniform="false" />
  </defs>
  <g
     inkscape:label="Layer 1"
     inkscape:groupmode="layer"
     id="layer1"
     transform="translate(-71.157686,-49.234748)">
    <g
       id="g16"
       style="display:inline"
       transform="matrix(0.26458333,0,0,0.26458333,11.063768,43.707367)">
      <path
         style="fill:#cacbc8;fill-rule:evenodd;stroke-width:1.00157;paint-order:stroke markers fill"
         d="m 248.82159,32.59251 c 0,0 42.77864,0 42.77864,0 0,0 0,22.19819 0,22.19819 0,0 -43.28039,0 -43.28039,0 z"
         id="path1"
         inkscape:path-effect="#path-effect1"
         inkscape:original-d="m 248.82159,32.59251 c 0,0 42.77864,0 42.77864,0 0,0 0,22.19819 0,22.19819 0,0 -43.28039,0 -43.28039,0 z" />
      <path
         style="fill:#c54242"
         d="m 233.15811,77.650368 c -6.77307,-6.669266 -6.25409,-17.032308 -5.78382,-25.799206 0.4935,-8.295133 3.7974,-17.233706 11.59006,-21.236467 8.33193,-6.382639 18.71086,-10.105727 29.26592,-9.613297 6.56059,-0.146554 13.95087,-0.384539 18.95094,4.693836 1.56791,1.947314 3.35895,3.203343 5.30477,0.837994 3.50072,-2.853488 1.93497,6.077374 1.88101,8.188081 1.27271,3.870761 -1.26975,8.162044 0.48905,12.261193 -14.40185,45.573468 -38.35132,53.362058 -61.69793,30.667866 z m 34.0419,-28.873227 c -2.41671,-1.588118 -4.35721,-4.1808 -7.6126,-1.417142 -1.39946,-2.153079 -5.3971,-1.980714 -1.7169,0.08031 3.1026,1.430223 4.70855,-0.520587 7.72793,1.322137 0.45625,-0.05605 1.2827,0.405528 1.60157,0.0147 z m 17.6,-4.457142 c 3.07401,-0.03192 1.82515,-5.013253 5.92,-4.026823 -2.78575,-3.374423 -6.5197,3.185011 -6.02024,4.365826 l 0.10024,-0.339 z"
         id="path20"
         sodipodi:nodetypes="cccccccccscccssscccs" />
      <path
         style="display:inline;fill:#843458"
         d="m 293.45801,41.442784 c 0.0398,-5.495778 -2.57026,-10.414471 -6.85788,-13.807654 -5.77853,-6.416848 -15.20351,-6.136076 -23.13625,-6.078153 -11.04898,0.520227 -21.52113,6.051394 -29.2224,13.7725 -5.80487,7.41167 -4.68281,17.410972 -4.7544,26.25043 0.42758,6.794609 6.10402,12.664638 12.60763,14.336799 5.1681,0.405808 6.62849,-7.664156 6.53847,-11.882983 1.94926,-3.246408 3.16096,5.642775 3.31717,7.567339 l -2.64348,17.132899 c -6.29978,-2.637936 -12.06091,-6.851092 -16.79091,-11.794787 -6.16139,-6.707418 -5.56493,-16.621752 -5.14012,-25.098049 0.61798,-7.830448 3.31305,-16.821242 10.88728,-20.50153 8.94045,-7.66961 20.91696,-11.103856 32.58142,-10.345978 6.21776,-0.403799 12.90736,0.730774 17.29157,5.574689 1.59051,3.255164 4.33521,-0.472507 5.60732,-0.982807 2.50247,1.770866 0.0501,10.665652 0.25463,3.786816 0.0404,-5.922899 -4.81373,0.978653 -0.83358,2.744565 z m -31.25094,14.222053 c -4.70324,-2.545267 -12.17491,-3.189931 -13.54317,-9.155034 -0.99746,-5.13704 5.55152,-7.850431 9.36779,-5.284318 -1.86918,0.27076 -6.37165,0.156659 -6.61918,2.468263 -0.41336,5.85606 6.26897,7.60564 10.25689,10.123177 0.69897,0.05324 2.22794,3.319567 0.53767,1.847912 z m -18.24441,-0.853933 c -2.03716,-0.179467 -7.49901,-0.623809 -1.62072,-0.749413 3.78984,-0.996448 -2.05272,-2.455044 -3.08323,-0.560641 -4.27648,1.911632 1.5139,-4.323232 -3.56368,-3.049721 -4.84078,-1.210243 -3.6218,-8.460314 -1.07821,-11.546444 -1.01865,4.525092 7.82956,7.1514 8.85618,4.159845 0.21626,-4.723378 4.06961,3.498243 3.36957,5.820773 -0.47184,2.042815 -0.93169,5.030297 -2.87991,5.925601 z m -0.14767,-5.38409 c 1.50007,-3.633345 -0.83599,-4.95142 -3.98614,-4.748234 -3.06744,-0.02416 -5.61468,-5.02275 -4.89149,0.19949 -0.26222,3.887301 6.01566,5.999502 8.54295,5.70901 z m 17.02545,1.247998 c -3.77234,0.26444 -7.2443,-4.203609 -7.12789,-5.703268 -5.12279,1.876904 3.29353,-2.644384 5.26932,-1.415477 5.07801,-1.85598 11.92402,1.780346 9.90407,7.299455 -2.61445,0.628302 -5.42307,0.213954 -8.0455,-0.18071 z m 6.35957,-1.897671 c -2.41671,-1.588118 -4.35721,-4.1808 -7.6126,-1.417142 -1.39946,-2.153079 -5.3971,-1.980714 -1.7169,0.08031 3.1026,1.430223 4.70855,-0.520587 7.72793,1.322137 0.45625,-0.05605 1.2827,0.405528 1.60157,0.0147 z m 13.86089,-1.84332 c -4.85666,-2.206041 4.61252,-12.581337 1.12831,-5.587344 -1.18194,1.187685 0.88548,6.565665 -1.12831,5.587344 z m 2.53911,-0.425752 c -2.60272,-4.386757 3.93367,-13.112497 7.70316,-7.44699 -0.0147,2.689821 -3.90323,9.093572 -7.70316,7.44699 z m 1.2,-2.18807 c 3.07379,-0.03205 1.82545,-5.013056 5.92,-4.026823 -2.78566,-3.374648 -6.51977,3.185174 -6.02024,4.365826 l 0.10024,-0.339 z m -8.10243,30.039049 c -0.72302,-2.039143 1.72991,-9.024318 2.2588,-8.050605 2.5792,1.444488 3.48993,3.573779 4.84799,6.21884 -1.24263,1.10406 -3.43028,5.396699 -8.5461,10.118473 0.31129,0.281584 1.91214,-6.581355 1.43933,-8.286708 z"
         id="path18"
         sodipodi:nodetypes="ccccccccccccccccccccccccccccccccccccccccccscccssccccccscccscccccc" />
      <path
         style="display:inline;fill:#5a412b"
         d="m 293.12391,52.279351 c 2.57477,-5.520017 0.0473,-11.7838 -0.68482,-17.473129 -2.92394,-4.745634 -7.01375,-9.58123 -12.3495,-11.653797 -5.86522,-1.883506 -12.08129,-1.738667 -18.16958,-1.808013 7.06786,-0.405745 14.54708,-1.100734 21.2297,1.590623 2.63087,2.433372 8.00627,5.761095 9.36173,4.077475 -3.0833,3.931491 4.1446,7.948924 2.06492,12.987489 0.11906,5.446811 2.05989,11.804361 -2.88546,15.856891 z m -55.59874,29.177607 c -6.31928,-3.959526 -9.94652,-11.090334 -10.14202,-18.454145 -0.34784,-9.895832 -0.46133,-21.422066 7.16085,-28.885284 5.17338,-4.933228 -2.87505,3.184781 -3.14429,5.720175 -2.68694,8.82885 -2.62371,18.382306 -1.47536,27.474277 0.88253,6.909856 5.6076,12.537537 11.06796,16.506111 -1.21598,-0.578203 -2.33409,-1.573311 -3.46714,-2.361134 z m 2.47484,-27.056957 c -0.22618,-0.842997 5.13376,0.197085 0.70691,0.188575 z m 4.48211,-0.421037 c 1.76819,-2.231626 -4.41726,-2.601743 0.39508,-2.040788 2.37052,-3.535415 0.5614,-9.084114 -4.55474,-7.231586 0.40407,-0.761325 5.36422,0.181115 3.06974,-2.756674 1.46122,-1.839647 1.94157,3.181218 3.50884,4.742891 0.23276,2.43969 -0.82317,5.416384 -2.41892,7.286157 z m -6.58068,-0.569007 c 2.13037,-0.94766 2.94697,-4.994023 2.10628,-0.852454 -0.45278,0.482793 -1.38955,1.432768 -2.10628,0.852454 z m 25.29857,-2.429641 c -3.04706,0.08847 -11.49878,-2.867049 -8.12807,-6.088272 -1.08175,-0.101214 -4.6777,0.750251 -0.85796,-0.746675 4.72374,-0.143685 13.13628,-3.276556 14.40281,3.465621 3.1056,4.144655 -3.06018,3.678411 -5.41678,3.369326 z m 4,-2.325571 c -2.45808,-1.582289 -4.68136,-4.022116 -7.758,-1.222058 -1.34871,-2.588972 -5.64602,-1.954497 -1.52796,0.16439 3.18393,0.978512 4.85475,-0.515793 7.84669,1.252721 l 1.01035,-0.03279 0.42892,-0.162251 z m -33.86007,0.225254 c -2.49148,-2.138677 0.72144,-10.806718 1.30547,-8.955529 -1.25747,3.197026 -1.84282,6.702984 -0.57062,9.995528 z m 51.08069,-2.384494 c -3.44191,-2.736304 1.24819,-11.308213 5.57224,-8.785142 3.49899,2.061575 -2.48688,9.902574 -5.57224,8.785142 z m 0.60901,-2.02448 c 2.86876,-0.370266 1.73129,-4.643943 5.7076,-4.178909 -1.91382,-4.232791 -7.53182,3.361613 -5.93593,4.637247 z m 9.2179,-14.551026 c -1.04289,-2.540591 -1.21084,-6.73489 0.49914,-1.686739 0.15349,1.003674 -0.23402,5.369641 -0.49914,1.686739 z"
         id="path17"
         sodipodi:nodetypes="cccccccccccccccccccccccccccccccccscccccscccccccccccccc" />
    </g>
  </g>
</svg>
