<?xml version="1.0" encoding="UTF-8" standalone="no"?>
<!-- Created with Inkscape (http://www.inkscape.org/) -->

<svg
   version="1.1"
   id="svg1"
   width="156.58772"
   height="143.04279"
   viewBox="0 0 156.58772 143.04278"
   sodipodi:docname="humblebee.svg"
   inkscape:version="1.4 (e7c3feb100, 2024-10-09)"
   xmlns:inkscape="http://www.inkscape.org/namespaces/inkscape"
   xmlns:sodipodi="http://sodipodi.sourceforge.net/DTD/sodipodi-0.dtd"
   xmlns="http://www.w3.org/2000/svg"
   xmlns:svg="http://www.w3.org/2000/svg">
  <defs
     id="defs1">
    <inkscape:path-effect
       effect="bspline"
       id="path-effect11"
       is_visible="true"
       lpeversion="1.3"
       weight="33.333333"
       steps="2"
       helper_size="0"
       apply_no_weight="true"
       apply_with_weight="true"
       only_selected="false"
       uniform="false" />
    <inkscape:path-effect
       effect="bspline"
       id="path-effect9"
       is_visible="true"
       lpeversion="1.3"
       weight="33.333333"
       steps="2"
       helper_size="0"
       apply_no_weight="true"
       apply_with_weight="true"
       only_selected="false"
       uniform="false" />
    <inkscape:path-effect
       effect="bspline"
       id="path-effect7"
       is_visible="true"
       lpeversion="1.3"
       weight="33.333333"
       steps="2"
       helper_size="0"
       apply_no_weight="true"
       apply_with_weight="true"
       only_selected="false"
       uniform="false" />
    <inkscape:path-effect
       effect="bspline"
       id="path-effect6"
       is_visible="true"
       lpeversion="1.3"
       weight="33.333333"
       steps="2"
       helper_size="0"
       apply_no_weight="true"
       apply_with_weight="true"
       only_selected="false"
       uniform="false" />
    <inkscape:path-effect
       effect="bspline"
       id="path-effect5"
       is_visible="true"
       lpeversion="1.3"
       weight="33.333333"
       steps="2"
       helper_size="0"
       apply_no_weight="true"
       apply_with_weight="true"
       only_selected="false"
       uniform="false" />
    <inkscape:path-effect
       effect="bspline"
       id="path-effect4"
       is_visible="true"
       lpeversion="1.3"
       weight="33.333333"
       steps="2"
       helper_size="0"
       apply_no_weight="true"
       apply_with_weight="true"
       only_selected="false"
       uniform="false" />
    <inkscape:path-effect
       effect="bspline"
       id="path-effect3"
       is_visible="true"
       lpeversion="1.3"
       weight="33.333333"
       steps="2"
       helper_size="0"
       apply_no_weight="true"
       apply_with_weight="true"
       only_selected="false"
       uniform="false" />
    <inkscape:path-effect
       effect="bspline"
       id="path-effect2"
       is_visible="true"
       lpeversion="1.3"
       weight="33.333333"
       steps="2"
       helper_size="0"
       apply_no_weight="true"
       apply_with_weight="true"
       only_selected="false"
       uniform="false" />
    <inkscape:path-effect
       effect="bspline"
       id="path-effect1"
       is_visible="true"
       lpeversion="1.3"
       weight="33.333333"
       steps="2"
       helper_size="0"
       apply_no_weight="true"
       apply_with_weight="true"
       only_selected="false"
       uniform="false" />
  </defs>
  <sodipodi:namedview
     id="namedview1"
     pagecolor="#505050"
     bordercolor="#eeeeee"
     borderopacity="1"
     inkscape:showpageshadow="0"
     inkscape:pageopacity="0"
     inkscape:pagecheckerboard="0"
     inkscape:deskcolor="#d1d1d1"
     showgrid="false"
     inkscape:zoom="6.2161407"
     inkscape:cx="80.114017"
     inkscape:cy="77.137894"
     inkscape:window-width="2158"
     inkscape:window-height="1415"
     inkscape:window-x="0"
     inkscape:window-y="0"
     inkscape:window-maximized="0"
     inkscape:current-layer="g1" />
  <g
     inkscape:groupmode="layer"
     inkscape:label="Image"
     id="g1"
     transform="translate(-521.89583,-34.793057)">
    <path
       style="fill:#c7af24;fill-rule:evenodd;stroke-width:1.00157;paint-order:stroke markers fill"
       d="m 527.4459,162.04243 c -1.74278,-10.08128 1.26016,-26.91917 10.42999,-36.3838 9.16983,-9.46462 24.50594,-11.55591 39.54757,-11.5827 15.04164,-0.0268 29.7879,2.01087 40.72724,11.3684 10.93934,9.35753 18.07116,26.03421 17.58847,35.95465 -0.4827,9.92044 -8.57974,13.08418 -25.44469,14.85377 -16.86496,1.76959 -42.49664,2.14495 -58.55704,0.67027 -16.06041,-1.47469 -22.54877,-4.79931 -24.29154,-14.88059 z"
       id="path6"
       inkscape:path-effect="#path-effect6"
       inkscape:original-d="m 522.70019,168.79904 c 3.00293,-16.83789 6.00587,-33.67578 9.0088,-50.51366 15.33673,-2.09138 30.67284,-4.18266 46.00926,-6.27399 14.74685,2.03774 29.49311,4.07541 44.23967,6.11311 7.13211,16.67736 14.26394,33.35404 21.39591,50.03105 -8.09736,3.16387 -16.1944,6.32761 -24.2916,9.49142 -25.63271,0.37537 -51.26439,0.75073 -76.89659,1.1261 -6.48861,-3.32474 -12.97697,-6.64936 -19.46545,-9.97403 z" />
    <path
       style="display:inline;fill:#70617c;fill-opacity:1;fill-rule:evenodd;stroke-width:1.00157;paint-order:stroke markers fill"
       d="m 521.89584,30.215022 c 6.71445,13.123697 13.4289,26.247393 32.96217,44.86497 19.53326,18.617577 51.88405,42.728068 70.04363,54.630958 18.15957,11.90288 22.12712,11.59769 26.09475,11.29249 -2.74682,3.66243 -5.49364,7.32485 -4.57799,31.89409 0.91565,24.56923 5.4936,70.04346 9.61386,94.15446 4.12027,24.11101 7.78262,26.85777 11.44505,29.60459 -0.3052,-29.90982 -0.61041,-59.81964 -2.13645,-86.67767 -1.52603,-26.85804 -4.2728,-50.66334 -17.85454,-72.4855 C 633.90457,115.67126 609.48888,95.833506 586.7511,78.284225 564.01333,60.734944 542.95479,45.475134 521.89584,30.215022 Z M 748.0507,293.90976 c 0,0 0,0 0,0 17.09133,-22.58497 34.18265,-45.16993 58.59915,-66.38169 24.4165,-21.21175 56.1569,-41.0495 87.89793,-60.88764 35.70867,7.93526 71.41733,15.87051 99.26462,20.70086 27.8473,4.83034 47.8325,6.55571 67.818,8.28111 -7.3248,5.79884 -14.6495,11.59756 -38.6821,11.19266 -24.03256,-0.4049 -64.77104,-7.0134 -89.1084,-13.0646 -24.33737,-6.05119 -32.27247,-11.54472 -40.20773,-17.03836 -7.63005,7.93526 -15.26011,15.87052 -28.8418,26.09492 -13.5817,10.2244 -33.11425,22.73744 -51.42656,38.30294 -18.3123,15.5655 -35.40329,34.18247 -46.08541,43.49113 -10.68212,9.30867 -14.95487,9.30867 -19.2277,9.30867 z m 4.73063,4.88324 c -16.93872,-7.01965 -30.97802,-10.98728 -45.01746,-10.98724 -14.03945,4e-5 -28.07847,3.96759 -42.11777,7.93522 -21.97456,10.07167 -43.94913,20.14335 -54.7838,39.82918 -10.83468,19.68584 -10.52948,48.98467 -1.22063,71.26458 9.30885,22.27992 27.62062,37.53973 45.93275,52.79984 7.63006,7.63006 15.26012,15.26011 25.94233,20.75379 10.68222,5.49367 24.41604,8.85083 38.15014,12.20805 -6.71445,-4.57803 -13.42889,-9.15606 -17.24393,-12.97112 -3.81504,-3.81506 -4.73062,-6.86702 -5.64623,-9.91904 7.93526,3.05202 15.87051,6.10404 23.34803,5.34099 7.47753,-0.76305 14.49705,-5.341 21.5167,-9.91903 -2.13642,5.18844 -4.27283,10.37688 -7.78271,13.88673 -3.50987,3.50984 -8.39301,5.34102 -13.27625,7.17223 8.54566,0.6104 17.09133,1.22081 24.87406,-2.59431 7.78272,-3.81511 14.80223,-12.0554 21.82188,-20.29586 14.95491,-12.51329 29.90982,-25.02659 36.92946,-47.91709 7.01964,-22.8905 6.10406,-56.15688 -4.27302,-77.82634 -10.37707,-21.66946 -30.21482,-31.74093 -47.15355,-38.76058 z"
       id="path1"
       inkscape:path-effect="#path-effect1"
       inkscape:original-d="m 521.89584,30.215022 c 0,0 13.4289,26.247393 20.14335,39.37109 32.35208,24.11146 64.70287,48.221958 97.05431,72.332928 3.96771,-0.3052 11.90289,-0.9156 11.90289,-0.9156 0,0 -5.49364,7.32485 -8.24046,10.98728 4.57812,45.47604 9.15607,90.95027 13.7341,136.4254 3.6625,2.74688 10.98728,8.24046 10.98728,8.24046 0,0 -0.6104,-59.81964 -0.91561,-89.72946 -2.74687,-23.80625 -5.49364,-47.61155 -8.24046,-71.41732 C 633.90458,115.67125 609.48888,95.833505 585.0727,75.995359 564.01333,60.734942 521.89584,30.215022 521.89584,30.215022 Z M 748.0507,293.90976 v 0 c 0,0 34.18265,-45.16993 51.27398,-67.7549 31.74167,-19.83854 95.2231,-59.51443 95.2231,-59.51443 0,0 71.41733,15.87051 107.12602,23.80577 19.9859,1.72543 59.9566,5.1762 59.9566,5.1762 0,0 -14.6495,11.59757 -21.9745,17.39653 -40.74016,-6.60877 -81.47864,-13.21727 -122.21795,-19.82591 -7.93542,-5.49375 -23.80578,-16.48092 -23.80578,-16.48092 0,0 -15.26011,15.87052 -22.89016,23.80578 -19.53334,12.51354 -39.06589,25.02658 -58.59884,37.53987 -17.09166,18.61771 -34.18265,37.23468 -51.27397,55.85201 -4.27292,0 -12.8185,0 -12.8185,0 z m 1.83122,1.83122 c -14.03931,-3.96763 -28.07861,-7.93526 -42.11791,-11.90289 -14.03959,3.96771 -42.11791,11.90289 -42.11791,11.90289 0,0 -43.94913,20.14334 -65.92369,30.21502 0.30521,29.3 0.61041,58.59883 0.91561,87.89824 18.3125,15.26042 54.9364,45.78034 54.9364,45.78034 0,0 15.26012,15.26011 22.89017,22.89017 13.73438,3.35729 41.2023,10.07167 41.2023,10.07167 0,0 -13.42889,-9.15606 -20.14334,-13.7341 -0.91563,-3.05208 -2.74682,-9.15606 -2.74682,-9.15606 0,0 15.87051,6.10404 23.80577,9.15606 7.01979,-4.57812 21.05896,-13.7341 21.05896,-13.7341 0,0 -4.27284,10.37688 -6.40925,15.56532 -4.88333,1.83125 -14.64971,5.49364 -14.64971,5.49364 0,0 17.09133,1.22081 25.63699,1.83121 7.01979,-8.24063 21.05895,-24.72138 21.05895,-24.72138 0,0 29.90982,-25.02659 44.86473,-37.53988 -0.91562,-33.26771 -1.83121,-66.53409 -2.74682,-99.80113 -19.83854,-10.07188 -39.67629,-20.14335 -59.51443,-30.21502 z"
       transform="matrix(0.29011988,0,0,0.29011988,370.48347,26.027078)"
       sodipodi:nodetypes="ccccccccccccccccccccccccccccccccccccccccccc" />
    <path
       style="fill:#27241b;fill-opacity:1;fill-rule:evenodd;stroke-width:1.00157;paint-order:stroke markers fill"
       inkscape:path-effect="#path-effect11"
       inkscape:original-d="m 648.24957,450.47851 c 4.88323,4.27284 9.76647,8.54567 14.64971,12.8185 3.35729,3.35729 6.71445,6.71445 10.07167,10.07167 9.76667,4.88334 19.53294,9.76647 29.29942,14.64971 -8.24063,-7.325 -16.48092,-14.64971 -24.72139,-21.97456 -2.74687,-2.44167 -5.49364,-4.88324 -8.24046,-7.32486 7.325,0.91563 14.64971,1.83122 21.97457,2.74682 2.13645,2.13646 4.27283,4.27284 6.40924,6.40925 -4.27291,-5.18854 -8.54566,-10.37687 -12.81849,-15.56531 -7.63021,-0.91563 -15.26011,-1.83122 -22.89017,-2.74682 -4.57813,0.30521 -9.15607,0.6104 -13.7341,0.9156 z"
       transform="matrix(0.29011988,0,0,0.29011988,370.48347,26.027078)"
       d="m 652.9802,452.46233 c 0.15261,2.28901 5.03584,6.56185 9.15611,10.37691 4.12026,3.81506 7.47742,7.17222 14.03937,11.2925 6.56194,4.12028 16.32821,9.00341 17.09114,7.78253 0.76292,-1.22088 -7.47737,-8.54558 -12.97104,-13.42885 -5.49367,-4.88326 -8.24044,-7.32483 -5.95135,-8.08783 2.28909,-0.763 9.6138,0.15259 14.34446,1.67862 4.73065,1.52604 6.86703,3.66242 5.79878,2.13636 -1.06825,-1.52607 -5.341,-6.7144 -11.29252,-9.76643 -5.95152,-3.05204 -13.58142,-3.96762 -19.68552,-4.27282 -6.10409,-0.3052 -10.68203,-10e-6 -10.52943,2.28901 z"
       id="path9" />
    <path
       style="fill:#27241b;fill-opacity:1;fill-rule:evenodd;stroke-width:1.00157;paint-order:stroke markers fill"
       inkscape:path-effect="#path-effect9"
       inkscape:original-d="m 769.10966,458.71897 c -4.57804,-4.57803 -9.15607,-9.15606 -13.7341,-13.7341 -7.01979,1.52605 -14.03931,3.05203 -21.05896,4.57804 3.05209,5.18854 6.10405,10.37687 9.15607,15.56531 -2.74688,4.88334 -5.49364,9.76647 -8.24046,14.64971 -3.6625,2.13646 -10.98728,6.40925 -10.98728,6.40925 0,0 12.20809,-5.49364 18.31213,-8.24046 2.44167,-5.49375 4.88324,-10.98728 7.32486,-16.48093 -2.44167,-2.74687 -7.32486,-8.24046 -7.32486,-8.24046 l 10.98728,-0.9156 c 0,0 10.37688,4.27283 15.56532,6.40924 z"
       transform="matrix(0.29011988,0,0,0.29011988,370.48347,26.027078)"
       d="m 764.22642,455.36175 c 0.3052,-1.22081 -4.27283,-5.79885 -10.07174,-7.32484 -5.79891,-1.526 -12.81843,-10e-6 -14.80221,3.35727 -1.98378,3.35727 1.06818,8.5456 1.22075,13.58149 0.15257,5.03589 -2.59419,9.91902 -5.79885,13.42887 -3.20466,3.50985 -6.86701,5.64622 -10.52944,7.78264 6.10404,-2.74682 12.20809,-5.49364 16.48094,-9.61393 4.27286,-4.12028 6.71443,-9.61381 6.71441,-13.73407 -3e-5,-4.12026 -2.4416,-6.86703 -4.88322,-9.61385 0,0 10.98728,-0.9156 10.98728,-0.9156 5.18844,2.13641 10.37688,4.27283 10.68208,3.05202 z"
       id="path8" />
    <path
       style="fill:#c7af24;fill-opacity:1;fill-rule:evenodd;stroke-width:1.00157;paint-order:stroke markers fill"
       inkscape:path-effect="#path-effect5"
       inkscape:original-d="m 770.02526,303.06583 c 0,0 -18.92253,0.6104 -28.3838,0.91561 -0.61042,7.63021 -1.22081,15.26011 -1.83122,22.89016 4.27292,18.92292 8.54567,37.84508 12.8185,56.76762 -0.91563,19.22813 -1.83122,38.45549 -2.74682,57.68323 12.81875,-2.74688 25.63699,-5.49364 38.45548,-8.24046 6.71458,-9.76667 20.14335,-29.29942 20.14335,-29.29942 z"
       transform="matrix(0.29011988,0,0,0.29011988,370.48347,26.027078)"
       d="m 770.02526,303.06583 c -9.46127,0.3052 -18.92253,0.61041 -23.95837,4.57811 -5.03585,3.96771 -5.64624,11.59761 -3.81499,24.87409 1.83126,13.27649 6.10401,32.19865 7.78261,51.27399 1.6786,19.07533 0.76302,38.30269 6.71459,46.54312 5.95157,8.24043 18.76981,5.49367 28.53635,-0.76307 9.76653,-6.25675 16.48085,-16.02303 23.1953,-25.7895 z"
       id="path5" />
    <path
       style="fill:#c7af24;fill-opacity:1;fill-rule:evenodd;stroke-width:1.00157;paint-order:stroke markers fill"
       d="m 664.73049,297.57219 c 4.88324,3.66243 9.76647,7.32485 11.13986,18.46492 1.37339,11.14007 -0.76298,29.75703 -0.15255,49.90059 0.61044,20.14357 3.9676,41.8125 -1.06837,54.32582 -5.03597,12.51333 -18.4646,15.87049 -28.84155,15.56524 -10.37695,-0.30524 -17.70166,-4.27278 -25.02651,-8.24041 z"
       id="path4"
       inkscape:path-effect="#path-effect4"
       inkscape:original-d="m 664.73049,297.57219 c 0,0 9.76647,7.32485 14.64971,10.98728 -2.13646,18.61771 -4.27283,37.23467 -6.40925,55.85201 3.35729,21.66979 6.71445,43.33872 10.07167,65.00808 -13.42916,3.35729 -26.85779,6.71445 -40.28669,10.07167 -7.325,-3.96771 -21.97456,-11.90288 -21.97456,-11.90288 z"
       transform="matrix(0.29011988,0,0,0.29011988,370.48347,26.027078)"
       sodipodi:nodetypes="ccccccc" />
    <path
       style="fill:#27241b;fill-opacity:1;fill-rule:evenodd;stroke-width:1.00157;paint-order:stroke markers fill"
       d="m 768.65186,304.43924 c -9.91908,-2.28902 -12.9711,0.4578 -15.87055,2.89944 -2.89945,2.44164 -5.64621,4.57801 -4.12014,16.78633 1.52607,12.20831 7.32479,34.48763 8.54557,54.17334 1.22077,19.68572 -2.13639,36.7767 0.30532,47.00101 2.4417,10.22431 10.68199,13.58147 23.04285,5.95122 12.36085,-7.63024 28.84144,-26.2472 34.79284,-46.39076 5.9514,-20.14357 1.37346,-41.8125 -9.30879,-56.30968 -10.68224,-14.49718 -27.46803,-21.82188 -37.3871,-24.1109 z"
       id="path2"
       inkscape:path-effect="#path-effect2"
       inkscape:original-d="m 761.7848,299.4034 c -3.05202,2.74682 -6.10404,5.49364 -9.15606,8.24046 -2.74688,2.13646 -5.49364,4.27283 -8.24046,6.40925 5.79895,22.28021 11.59768,44.55953 17.39652,66.83929 -3.35729,17.09167 -6.71445,34.18265 -10.07167,51.27398 8.24063,3.35729 16.48092,6.71445 24.72138,10.07167 16.48125,-18.61771 32.96184,-37.23467 49.44277,-55.85201 -4.57813,-21.66979 -9.15607,-43.33872 -13.73411,-65.00808 -16.78645,-7.325 -33.57224,-14.6497 -50.35837,-21.97456 z"
       transform="matrix(0.29011988,0,0,0.29011988,370.48347,26.027078)"
       sodipodi:nodetypes="ccccccccc" />
    <path
       style="fill:#25251b;fill-opacity:1;fill-rule:evenodd;stroke-width:1.00157;paint-order:stroke markers fill"
       d="m 647.02876,296.04618 c -10.07167,-0.6104 -23.19537,-0.91561 -33.87753,7.47763 -10.68216,8.39323 -18.92246,25.48421 -21.36404,44.40696 -2.44159,18.92274 0.91557,39.67608 9.46137,55.2415 8.5458,15.56541 22.27963,25.94209 34.33522,28.68886 12.05559,2.74677 22.43226,-2.13637 26.09466,-16.63371 3.6624,-14.49735 0.61043,-38.60785 1.06828,-59.66699 0.45784,-21.05913 4.42539,-39.0657 2.89931,-48.52698 -1.52608,-9.46127 -8.5456,-10.37686 -18.61727,-10.98727 z"
       id="path3"
       inkscape:path-effect="#path-effect3"
       inkscape:original-d="m 650.08078,295.74098 c -13.12369,-0.30521 -26.24739,-0.61041 -39.37109,-0.91561 -8.24062,17.09167 -16.48092,34.18265 -24.72138,51.27398 3.35729,20.75416 6.71445,41.5075 10.07168,62.26125 13.73437,10.37709 27.4682,20.75376 41.2023,31.13063 10.37708,-4.88333 20.75375,-9.76647 31.13063,-14.6497 -3.05209,-24.11146 -6.10405,-48.22196 -9.15607,-72.33294 3.96771,-18.00729 7.93526,-36.01386 11.90289,-54.02079 -7.01979,-0.91563 -14.03931,-1.83122 -21.05896,-2.74682 z"
       transform="matrix(0.29011988,0,0,0.29011988,370.48347,26.027078)"
       sodipodi:nodetypes="ccccccccc" />
    <path
       style="fill:#25251b;fill-rule:evenodd;stroke-width:1.00157;paint-order:stroke markers fill;fill-opacity:1"
       d="m 534.92642,129.70725 c 0,0 0,0 0,0 -1.01885,4.66528 -2.03771,9.33056 -0.40214,16.03363 1.63558,6.70306 5.9254,15.44357 14.50534,20.13567 8.57995,4.69209 21.44941,5.33556 33.5417,3.29781 12.09229,-2.03776 23.40669,-6.75656 30.16332,-12.60163 6.75662,-5.84507 8.95515,-12.81603 9.43776,-17.48133 0.4826,-4.6653 -0.75072,-7.0247 -1.98407,-9.38415 1.50147,1.50147 3.00293,3.00294 4.61166,5.44286 1.60874,2.43992 3.32467,5.81816 5.04063,9.19646 -1.93046,7.29284 -3.86091,14.58568 -11.07345,20.02854 -7.21253,5.44285 -19.70663,9.03557 -33.38086,10.32253 -13.67423,1.28697 -28.52774,0.26813 -38.36776,-3.94141 -9.84002,-4.20954 -14.66607,-11.60948 -16.67696,-17.32046 -2.01088,-5.71098 -1.20654,-9.73269 -0.40218,-13.75448 0.75073,-1.93046 1.50147,-3.86092 2.33264,-5.52327 0.83118,-1.66235 1.74277,-3.05655 2.65437,-4.45077 z"
       id="path7"
       inkscape:path-effect="#path-effect7"
       inkscape:original-d="m 534.92642,129.70725 c 0,0 0,0 0,0 0,0 -2.0377,9.33056 -3.05656,13.99583 4.29,8.74086 8.57982,17.48137 12.86973,26.22206 12.86998,0.6435 25.73944,1.28697 38.60916,1.93046 11.31486,-4.719 22.62926,-9.4378 33.94389,-14.1567 2.19862,-6.97124 4.39716,-13.9422 6.59573,-20.9133 -1.23337,-2.3595 -3.70004,-7.07835 -3.70004,-7.07835 0,0 3.00293,3.00294 4.5044,4.50441 1.716,3.37837 5.14789,10.13491 5.14789,10.13491 0,0 -3.86092,14.58568 -5.79137,21.87852 -12.49461,3.59287 -24.98871,7.1856 -37.48307,10.77839 -14.8541,-1.01887 -29.70761,-2.0377 -44.56141,-3.05656 -4.82624,-7.40023 -9.65229,-14.80017 -14.47844,-22.20026 0.80438,-4.02187 2.41308,-12.06537 2.41308,-12.06537 0,0 1.50146,-3.86092 2.2522,-5.79138 0.91162,-1.39424 2.73481,-4.18266 2.73481,-4.18266 z" />
  </g>
</svg>
