<?xml version="1.0" encoding="UTF-8" standalone="no"?>
<!-- Created with Inkscape (http://www.inkscape.org/) -->

<svg
   width="67.138695mm"
   height="67.929123mm"
   viewBox="0 0 67.138695 67.929123"
   version="1.1"
   id="svg1"
   xml:space="preserve"
   sodipodi:docname="pyxi.svg"
   inkscape:version="1.4 (e7c3feb100, 2024-10-09)"
   xmlns:inkscape="http://www.inkscape.org/namespaces/inkscape"
   xmlns:sodipodi="http://sodipodi.sourceforge.net/DTD/sodipodi-0.dtd"
   xmlns="http://www.w3.org/2000/svg"
   xmlns:svg="http://www.w3.org/2000/svg"><sodipodi:namedview
     id="namedview1"
     pagecolor="#505050"
     bordercolor="#eeeeee"
     borderopacity="1"
     inkscape:showpageshadow="0"
     inkscape:pageopacity="0"
     inkscape:pagecheckerboard="0"
     inkscape:deskcolor="#d1d1d1"
     inkscape:document-units="mm"
     inkscape:zoom="2.6760658"
     inkscape:cx="110.79698"
     inkscape:cy="127.98639"
     inkscape:window-width="2158"
     inkscape:window-height="1415"
     inkscape:window-x="0"
     inkscape:window-y="0"
     inkscape:window-maximized="0"
     inkscape:current-layer="layer1" /><defs
     id="defs1"><inkscape:path-effect
       effect="bspline"
       id="path-effect28"
       is_visible="true"
       lpeversion="1.3"
       weight="33.333333"
       steps="2"
       helper_size="0"
       apply_no_weight="true"
       apply_with_weight="true"
       only_selected="false"
       uniform="false" /><inkscape:path-effect
       effect="bspline"
       id="path-effect27"
       is_visible="true"
       lpeversion="1.3"
       weight="33.333333"
       steps="2"
       helper_size="0"
       apply_no_weight="true"
       apply_with_weight="true"
       only_selected="false"
       uniform="false" /><inkscape:path-effect
       effect="bspline"
       id="path-effect26"
       is_visible="true"
       lpeversion="1.3"
       weight="33.333333"
       steps="2"
       helper_size="0"
       apply_no_weight="true"
       apply_with_weight="true"
       only_selected="false"
       uniform="false" /><inkscape:path-effect
       effect="bspline"
       id="path-effect25"
       is_visible="true"
       lpeversion="1.3"
       weight="33.333333"
       steps="2"
       helper_size="0"
       apply_no_weight="true"
       apply_with_weight="true"
       only_selected="false"
       uniform="false" /><inkscape:path-effect
       effect="bspline"
       id="path-effect24"
       is_visible="true"
       lpeversion="1.3"
       weight="33.333333"
       steps="2"
       helper_size="0"
       apply_no_weight="true"
       apply_with_weight="true"
       only_selected="false"
       uniform="false" /><inkscape:path-effect
       effect="bspline"
       id="path-effect23"
       is_visible="true"
       lpeversion="1.3"
       weight="33.333333"
       steps="2"
       helper_size="0"
       apply_no_weight="true"
       apply_with_weight="true"
       only_selected="false"
       uniform="false" /><inkscape:path-effect
       effect="bspline"
       id="path-effect22"
       is_visible="true"
       lpeversion="1.3"
       weight="33.333333"
       steps="2"
       helper_size="0"
       apply_no_weight="true"
       apply_with_weight="true"
       only_selected="false"
       uniform="false" /><inkscape:path-effect
       effect="bspline"
       id="path-effect21"
       is_visible="true"
       lpeversion="1.3"
       weight="33.333333"
       steps="2"
       helper_size="0"
       apply_no_weight="true"
       apply_with_weight="true"
       only_selected="false"
       uniform="false" /><inkscape:path-effect
       effect="bspline"
       id="path-effect20"
       is_visible="true"
       lpeversion="1.3"
       weight="33.333333"
       steps="2"
       helper_size="0"
       apply_no_weight="true"
       apply_with_weight="true"
       only_selected="false"
       uniform="false" /><inkscape:path-effect
       effect="bspline"
       id="path-effect19"
       is_visible="true"
       lpeversion="1.3"
       weight="33.333333"
       steps="2"
       helper_size="0"
       apply_no_weight="true"
       apply_with_weight="true"
       only_selected="false"
       uniform="false" /><inkscape:path-effect
       effect="bspline"
       id="path-effect18"
       is_visible="true"
       lpeversion="1.3"
       weight="33.333333"
       steps="2"
       helper_size="0"
       apply_no_weight="true"
       apply_with_weight="true"
       only_selected="false"
       uniform="false" /><inkscape:path-effect
       effect="bspline"
       id="path-effect17"
       is_visible="true"
       lpeversion="1.3"
       weight="33.333333"
       steps="2"
       helper_size="0"
       apply_no_weight="true"
       apply_with_weight="true"
       only_selected="false"
       uniform="false" /><inkscape:path-effect
       effect="bspline"
       id="path-effect16"
       is_visible="true"
       lpeversion="1.3"
       weight="33.333333"
       steps="2"
       helper_size="0"
       apply_no_weight="true"
       apply_with_weight="true"
       only_selected="false"
       uniform="false" /><inkscape:path-effect
       effect="bspline"
       id="path-effect15"
       is_visible="true"
       lpeversion="1.3"
       weight="33.333333"
       steps="2"
       helper_size="0"
       apply_no_weight="true"
       apply_with_weight="true"
       only_selected="false"
       uniform="false" /><inkscape:path-effect
       effect="bspline"
       id="path-effect14"
       is_visible="true"
       lpeversion="1.3"
       weight="33.333333"
       steps="2"
       helper_size="0"
       apply_no_weight="true"
       apply_with_weight="true"
       only_selected="false"
       uniform="false" /><inkscape:path-effect
       effect="bspline"
       id="path-effect13"
       is_visible="true"
       lpeversion="1.3"
       weight="33.333333"
       steps="2"
       helper_size="0"
       apply_no_weight="true"
       apply_with_weight="true"
       only_selected="false"
       uniform="false" /><inkscape:path-effect
       effect="bspline"
       id="path-effect12"
       is_visible="true"
       lpeversion="1.3"
       weight="33.333333"
       steps="2"
       helper_size="0"
       apply_no_weight="true"
       apply_with_weight="true"
       only_selected="false"
       uniform="false" /><inkscape:path-effect
       effect="bspline"
       id="path-effect11"
       is_visible="true"
       lpeversion="1.3"
       weight="33.333333"
       steps="2"
       helper_size="0"
       apply_no_weight="true"
       apply_with_weight="true"
       only_selected="false"
       uniform="false" /><inkscape:path-effect
       effect="bspline"
       id="path-effect10"
       is_visible="true"
       lpeversion="1.3"
       weight="33.333333"
       steps="2"
       helper_size="0"
       apply_no_weight="true"
       apply_with_weight="true"
       only_selected="false"
       uniform="false" /><inkscape:path-effect
       effect="bspline"
       id="path-effect9"
       is_visible="true"
       lpeversion="1.3"
       weight="33.333333"
       steps="2"
       helper_size="0"
       apply_no_weight="true"
       apply_with_weight="true"
       only_selected="false"
       uniform="false" /><inkscape:path-effect
       effect="bspline"
       id="path-effect7"
       is_visible="true"
       lpeversion="1.3"
       weight="33.333333"
       steps="2"
       helper_size="0"
       apply_no_weight="true"
       apply_with_weight="true"
       only_selected="false"
       uniform="false" /><inkscape:path-effect
       effect="bspline"
       id="path-effect5"
       is_visible="true"
       lpeversion="1.3"
       weight="33.333333"
       steps="2"
       helper_size="0"
       apply_no_weight="true"
       apply_with_weight="true"
       only_selected="false"
       uniform="false" /><inkscape:path-effect
       effect="bspline"
       id="path-effect4"
       is_visible="true"
       lpeversion="1.3"
       weight="33.333333"
       steps="2"
       helper_size="0"
       apply_no_weight="true"
       apply_with_weight="true"
       only_selected="false"
       uniform="false" /><inkscape:path-effect
       effect="bspline"
       id="path-effect3"
       is_visible="true"
       lpeversion="1.3"
       weight="33.333333"
       steps="2"
       helper_size="0"
       apply_no_weight="true"
       apply_with_weight="true"
       only_selected="false"
       uniform="false" /><inkscape:path-effect
       effect="bspline"
       id="path-effect2"
       is_visible="true"
       lpeversion="1.3"
       weight="33.333333"
       steps="2"
       helper_size="0"
       apply_no_weight="true"
       apply_with_weight="true"
       only_selected="false"
       uniform="false" /><inkscape:path-effect
       effect="bspline"
       id="path-effect1"
       is_visible="true"
       lpeversion="1.3"
       weight="33.333333"
       steps="2"
       helper_size="0"
       apply_no_weight="true"
       apply_with_weight="true"
       only_selected="false"
       uniform="false" /></defs><g
     inkscape:label="Layer 1"
     inkscape:groupmode="layer"
     id="layer1"
     transform="translate(-76.457944,-30.162293)"><path
       style="display:inline;fill:#528282;fill-opacity:1;fill-rule:evenodd;stroke-width:0.264999;paint-order:stroke markers fill"
       d="m 82.983381,76.761886 c 0,0 -3.245064,-7.117026 -3.245064,-7.117026 0,-5.299065 0,-10.598132 1.177594,-14.929941 1.177593,-4.331809 3.532686,-7.696228 5.887826,-11.060715 0.925234,-1.598131 1.850467,-3.196262 4.331816,-4.415896 2.48135,-1.219635 6.518651,-2.060739 8.873797,-1.850445 2.35515,0.210293 3.02803,1.47195 3.70093,2.733633 1.85047,0.672897 3.70093,1.345793 5.55142,1.219616 1.85048,-0.126176 3.70091,-1.051392 5.55138,-1.976626 0,-1.598131 0,-3.196262 0.92525,-3.700928 0.92526,-0.504666 2.77569,0.08411 5.21497,-0.336469 2.43928,-0.420575 5.46726,-1.850453 7.40185,-3.112145 1.93458,-1.261692 2.77569,-2.35513 3.74299,-1.976608 0.9673,0.378523 2.06074,2.228957 2.14484,3.95327 0.0841,1.724313 -0.84112,3.322413 -1.76635,4.920544 0,0 7.82243,3.532709 7.82243,3.532709 1.51402,0.08411 3.02804,0.168225 3.23831,0.967306 0.21027,0.799081 -0.88316,2.313068 -1.97662,3.827086 1.09346,0 2.18691,0 2.01867,1.177595 -0.16824,1.177596 -1.59811,3.532685 -3.02802,5.887825 0.0841,2.439253 0.16823,4.878507 -1.13554,6.855159 -1.30377,1.976651 -3.9953,3.490636 -5.92989,8.705678 -1.93459,5.215043 -3.11214,14.130752 -6.43462,19.892461 -3.32249,5.76171 -8.78967,8.369134 -13.66822,8.116767 C 108.50459,97.822369 104.21495,94.71028 99.925231,91.59813 98.242988,87.728971 96.560746,83.859812 93.737064,81.387094 90.913383,78.914376 86.948422,77.838142 82.983381,76.761886 Z"
       id="path1"
       inkscape:path-effect="#path-effect1"
       inkscape:original-d="M 82.983381,76.761886 79.738317,69.64486 c 0,0 0,-10.598132 0,-15.897196 2.355186,-3.364555 7.06542,-10.09346 7.06542,-10.09346 0,0 1.850467,-3.196262 2.775701,-4.794393 4.037465,-0.841136 8.074766,-1.682242 12.112152,-2.523363 0.67291,1.261708 2.01869,3.785048 2.01869,3.785048 0,0 3.70093,1.345792 5.5514,2.018691 1.8505,-0.925253 5.5514,-2.775701 5.5514,-2.775701 0,0 0,-3.196262 0,-4.794393 1.85051,0.588796 3.70094,1.17757 5.5514,1.766355 3.0281,-1.429935 6.05608,-2.859812 9.08412,-4.289718 0.84113,-1.093481 1.68224,-2.186916 2.52336,-3.280376 1.09348,1.850504 2.18692,3.700936 3.28037,5.551403 -0.92525,1.598163 -2.7757,4.794393 -2.7757,4.794393 l 7.82243,3.532709 c 0,0 3.02804,0.168224 4.54206,0.252338 -1.09348,1.514049 -3.28037,4.542054 -3.28037,4.542054 0,0 2.18691,0 3.28037,0 -1.42994,2.355189 -4.28972,7.06542 -4.28972,7.06542 0,0 0.16823,4.878507 0.25234,7.317759 -2.69165,1.514049 -5.38318,3.028037 -8.07477,4.542054 -1.17759,8.916067 -2.35514,17.831776 -3.53271,26.747666 -5.4674,2.607527 -10.93458,5.21495 -16.40187,7.82243 -4.2898,-3.112215 -12.869159,-9.33645 -12.869159,-9.33645 0,0 -3.364484,-7.738319 -5.046728,-11.607477 -3.96512,-1.076277 -11.895122,-3.228767 -11.895122,-3.228767 z"
       sodipodi:nodetypes="ccccccccccccccccccccccccccc" /><path
       id="path27"
       style="fill:#335c5b;fill-opacity:1;fill-rule:evenodd;stroke-width:0.264999;paint-order:stroke markers fill"
       inkscape:path-effect="#path-effect28"
       inkscape:original-d="m 91.553865,48.149819 c 0.823918,-0.856877 1.647835,-1.713751 2.471756,-2.570628 1.713786,-0.494361 3.427502,-0.988703 5.141254,-1.483053 0.362532,0.790977 0.725048,1.581925 1.087575,2.372886 -1.384213,0.856893 -2.76837,1.713751 -4.152554,2.570626 -1.153509,0.889852 -2.306973,1.779667 -3.460459,2.669497 -0.362532,-1.186465 -0.725048,-2.372886 -1.087572,-3.559328 z m 8.00849,-5.536734 c -1.614882,0.659132 -3.229761,1.318268 -4.844642,1.977403 -1.450126,1.351253 -2.900196,2.702454 -4.350293,4.053681 0.856893,-2.17519 1.713752,-4.350292 2.570628,-6.525437 2.208147,0.164788 4.416206,0.329568 6.624307,0.494353 z m 2.076275,4.548031 c 0.19774,0.955746 0.39548,1.91149 0.59322,2.867237 -1.35125,0.889852 -2.702451,1.779664 -4.053678,2.669497 -1.483085,-0.131828 -2.966109,-0.263654 -4.449162,-0.39548 1.516041,-1.516042 3.032022,-3.032022 4.548031,-4.548032 1.120553,-0.197744 2.241059,-0.395483 3.361589,-0.593222 z m 21.85033,-5.635606 c -1.2194,-1.548966 -2.4388,-3.097935 -3.6582,-4.646901 -0.88985,0.790977 -1.77967,1.581922 -2.6695,2.372886 0.79098,1.548998 1.58193,3.097935 2.37289,4.646901 -0.98872,-0.164785 -1.97741,-0.329568 -2.96611,-0.49435 -0.2307,-0.626192 -0.69209,-1.878536 -0.69209,-1.878536 0,0 -0.92279,3.361589 -1.38418,5.042384 -3.098,2.372934 -6.19587,4.745773 -9.29381,7.118659 -0.13183,2.043359 -0.26365,4.086638 -0.39548,6.129957 -4.647,-0.362532 -13.940707,-1.087573 -13.940707,-1.087573 0,0 3.493416,-1.450099 5.240123,-2.175147 2.17519,-0.988722 4.350294,-1.977403 6.525434,-2.966106 1.12056,-2.900254 2.24106,-5.800389 3.36159,-8.700585 -1.28534,-1.483082 -2.57063,-2.966106 -3.85594,-4.449162 -2.570675,-0.626189 -5.141253,-1.252355 -7.711878,-1.878534 -1.977446,1.746743 -3.954812,3.493416 -5.932215,5.240124 -0.856893,2.537722 -1.713752,5.07534 -2.570628,7.613009 0.03296,2.208147 0.06591,4.416206 0.09887,6.62431 -0.395489,-1.15351 -0.790961,-2.306974 -1.186442,-3.460459 -0.659148,0.955765 -1.31827,1.91149 -1.977406,2.867236 -0.922808,0.09887 -1.845577,0.197739 -2.768367,0.296611 -0.197744,3.987848 -0.395481,7.975534 -0.593222,11.963302 0.131831,2.669551 0.263654,5.338993 0.39548,8.008491 2.142233,0.889851 4.284336,1.779647 6.426569,2.669498 1.812659,0.988723 3.625243,1.977405 5.437864,2.966108 2.339978,2.010402 4.67986,4.020722 7.01979,6.031084 0.593233,1.812658 1.186442,3.625244 1.779665,5.437865 3.16391,0.26366 6.32769,0.527309 9.49154,0.790961 0.8569,0.52732 1.71376,1.054619 2.57063,1.581926 1.61491,-2.17519 3.22976,-4.350293 4.84464,-6.525437 -0.49436,-1.318298 -0.9887,-2.636542 -1.48305,-3.954812 2.86729,-6.327823 5.73447,-12.655394 8.60171,-18.983089 3.16391,-1.713786 6.3277,-3.427503 9.49155,-5.141254 1.64787,-2.076318 3.29567,-4.152551 4.94351,-6.228826 0.0659,-0.955765 0.13183,-1.911493 0.19774,-2.867239 -5.17431,2.768422 -10.34842,5.536736 -15.52263,8.305104 -2.90025,1.779698 -5.80039,3.559328 -8.70058,5.338992 -1.02168,-0.329573 -2.04332,-0.659135 -3.06498,-0.988703 0.6921,-2.109274 1.38417,-4.218446 2.07627,-6.327695 1.97688,-2.68248 3.95372,-5.364915 5.93059,-8.047373 6.21969,-3.206108 12.43935,-6.412198 18.65909,-9.618324 -6.19492,2.82351 -12.38977,5.646994 -18.58464,8.470483 1.16217,-1.779569 2.32433,-3.559136 3.48651,-5.338716 0,-1.252363 0,-2.504713 0,-3.75707 z"
       d="m 92.147086,48.314602 c 0.230698,-1.021659 1.054615,-1.878533 2.323468,-2.554153 1.268853,-0.675619 2.982569,-1.16996 4.020711,-1.021647 1.038142,0.148313 1.40066,0.93926 0.889816,1.763187 -0.510844,0.823928 -1.895001,1.680786 -3.163848,2.554149 -1.268847,0.873363 -2.422311,1.763178 -3.180319,1.614861 -0.758008,-0.148317 -1.120525,-1.334738 -0.889828,-2.356397 z m 5.503778,-5.454342 c 0.29661,0.411959 -1.31827,1.071093 -2.850773,2.076287 -1.532504,1.005194 -2.982574,2.356395 -3.279176,1.944414 -0.296602,-0.411982 0.560257,-2.587084 2.092769,-3.592263 1.532511,-1.005178 3.74057,-0.840397 4.03718,-0.428438 z m 3.526376,4.877599 c 0.65913,0.379003 0.85687,1.334747 0.28011,2.257545 -0.57675,0.922798 -1.927951,1.812613 -3.345107,2.191615 -1.417156,0.379002 -2.90018,0.247178 -2.883686,-0.576757 0.01649,-0.823934 1.532475,-2.339914 2.850756,-3.196792 1.318281,-0.856877 2.438787,-1.054613 3.097927,-0.675611 z m 21.70202,-6.360654 c -0.6097,-1.400661 -1.8291,-2.94963 -2.88373,-3.328624 -1.05462,-0.378995 -1.94444,0.411953 -1.99386,1.581933 -0.0494,1.169979 0.74152,2.718917 0.64264,3.411007 -0.0989,0.692089 -1.08757,0.527308 -1.69727,0.131821 -0.6097,-0.395487 -0.84039,-1.021653 -1.07109,-1.647832 -0.46139,1.680795 -0.92279,3.36159 -2.70248,5.388454 -1.7797,2.026865 -4.87757,4.399701 -6.49246,6.607825 -1.61488,2.208123 -1.7467,4.251402 -4.13612,5.091795 -2.38941,0.840394 -7.036215,0.477877 -11.683117,0.115353 1.746708,-0.725049 3.493416,-1.450098 5.454365,-2.306984 1.960948,-0.856886 4.136052,-1.845569 5.783902,-3.790047 1.64784,-1.944478 2.76835,-4.844611 2.68595,-7.036251 -0.0824,-2.191639 -1.3677,-3.674665 -3.29569,-4.729286 -1.927995,-1.054622 -4.498573,-1.680788 -6.772608,-1.120505 -2.274035,0.560283 -4.251401,2.306956 -5.66855,4.44917 -1.417149,2.142215 -2.274007,4.679833 -2.685966,7.052741 -0.41196,2.372908 -0.379004,4.580967 -0.56027,5.108264 -0.181266,0.527297 -0.576739,-0.626167 -1.104053,-0.725027 -0.527315,-0.09886 -1.186436,0.856865 -1.977408,1.384174 -0.790972,0.527309 -1.713741,0.626178 -2.274008,2.669537 -0.560268,2.043359 -0.758004,6.031045 -0.79096,9.359705 -0.03296,3.328659 0.09887,5.998101 1.235898,7.777775 1.13703,1.779675 3.279133,2.669471 5.256579,3.608758 1.977446,0.939287 3.79003,1.927969 5.866329,3.427522 2.0763,1.499552 4.416182,3.509872 5.882764,5.421382 1.466582,1.91151 2.059791,3.724096 3.938353,4.762236 1.87857,1.03814 5.04235,1.301788 7.05272,1.697276 2.01038,0.395488 2.86724,0.922787 4.10313,0.09884 1.23589,-0.823942 2.85074,-2.999045 3.411,-4.745767 0.56026,-1.746721 0.0659,-3.064965 1.25239,-6.888011 1.18647,-3.823045 4.05365,-10.150617 7.06923,-14.171357 3.01557,-4.02074 6.17936,-5.734459 8.58522,-7.629493 2.40586,-1.895035 4.05366,-3.971266 4.91054,-5.487287 0.85687,-1.51602 0.92279,-2.471749 -1.63141,-1.565411 -2.5542,0.906338 -7.72831,3.674652 -11.76554,5.948685 -4.03723,2.274034 -6.93737,4.053664 -8.8983,4.778709 -1.96094,0.725044 -2.98258,0.395483 -3.14736,-0.823938 -0.16478,-1.21942 0.52729,-3.328593 1.86178,-5.724457 1.33449,-2.395865 3.31133,-5.0783 7.40961,-8.022583 4.09828,-2.944283 10.31794,-6.150373 10.33035,-6.341681 0.0124,-0.191308 -6.18244,2.632176 -8.69879,3.154136 -2.51635,0.52196 -1.35419,-1.257607 -0.7731,-2.773578 0.58109,-1.515972 0.58109,-2.768322 -0.0286,-4.168984 z"
       sodipodi:nodetypes="cccccccccccccccccccccccccccccccccccccccccccccccccccccccccccccc" /><path
       id="path3"
       style="fill:#5e2760;fill-opacity:1;fill-rule:evenodd;stroke-width:0.264999;paint-order:stroke markers fill"
       inkscape:path-effect="#path-effect3"
       inkscape:original-d="m 98.81614,45.226197 c 0.206513,0.447442 0.413025,0.894884 0.619538,1.342329 -1.067001,0.378614 -2.133962,0.757211 -3.200942,1.135817 0.240937,0.240937 0.481861,0.481861 0.722794,0.722794 -0.413033,0.172098 -0.826051,0.344186 -1.239073,0.516281 C 95.40868,48.7369 95.098919,48.530393 94.78915,48.32388 c -0.860486,0.894906 -1.720934,1.789774 -2.581404,2.684661 -0.206516,-0.172098 -0.413023,-0.344188 -0.619536,-0.516281 0.894903,-0.929325 1.789772,-1.858611 2.684659,-2.787917 -0.344194,-0.240935 -0.688375,-0.481862 -1.032561,-0.722792 0.481873,-0.378613 0.963724,-0.757213 1.445586,-1.135819 0.413033,0.309774 0.82605,0.619538 1.239073,0.929307 0.963745,-0.516292 1.92745,-1.032563 2.891173,-1.548842 z m 4.89414,0.951373 c -0.75701,-2.186916 -1.51402,-4.373832 -2.27103,-6.560749 -3.196324,0.420569 -6.392523,0.841121 -9.588785,1.261682 -1.850503,2.775757 -3.700933,5.551403 -5.5514,8.327104 0.757024,1.76639 1.514018,3.532711 2.271028,5.299064 2.691643,0.925254 5.383178,1.85047 8.074765,2.775702 2.60753,-2.691644 5.214952,-5.383178 7.822432,-8.074766 -0.25234,-1.009367 -0.50467,-2.018691 -0.75701,-3.028037 z m -3.03553,-3.326265 c 0,0 -5.30048,2.40931 -7.950722,3.613965 -1.273518,1.893068 -3.820477,5.679089 -3.820477,5.679089 0,0 -0.5507,-1.445586 -0.82605,-2.168379 0.894905,-2.478198 1.789774,-4.956296 2.68466,-7.434444 2.92565,-0.55071 5.851183,-1.101399 8.776774,-1.652098 0.378613,0.653969 1.135815,1.961867 1.135815,1.961867 z m 1.23908,3.304197 c 0,0 -4.061413,1.652098 -6.092117,2.478148 -1.686551,1.789809 -5.059552,5.36932 -5.059552,5.36932 0,0 3.854897,0.826049 5.782345,1.239074 2.168423,-1.583293 4.336754,-3.166523 6.505134,-4.749784 -0.37861,-1.445615 -1.13581,-4.336758 -1.13581,-4.336758 z"
       d="m 98.437535,45.708058 c 0.585117,-0.03442 0.79163,0.413023 0.361386,0.826052 -0.430244,0.413029 -1.497205,0.791628 -1.910226,1.101399 -0.413022,0.309771 -0.172098,0.550695 -0.258148,0.75721 -0.08605,0.206515 -0.499067,0.378606 -0.860467,0.361393 -0.3614,-0.01721 -0.671161,-0.223719 -1.256288,0.120477 -0.585128,0.344197 -1.445577,1.239064 -1.97907,1.600459 -0.533492,0.361396 -0.74,0.189306 -0.395804,-0.361403 0.344196,-0.550709 1.239064,-1.479996 1.514411,-2.065117 0.275346,-0.58512 -0.06883,-0.826047 8e-6,-1.135819 0.06884,-0.309772 0.550695,-0.688371 0.998142,-0.722786 0.447447,-0.03442 0.860465,0.275348 1.548849,0.172086 0.688384,-0.103262 1.652089,-0.619532 2.237207,-0.653951 z m 5.020405,-0.119273 c -0.50467,-1.598131 -1.26168,-3.785047 -3.23835,-4.668221 -1.976664,-0.883174 -5.172863,-0.462622 -7.696246,1.135537 -2.523383,1.598159 -4.373812,4.373805 -4.920533,6.64485 -0.546722,2.271046 0.210273,4.037366 1.934599,5.38317 1.724326,1.345803 4.415861,2.271019 7.06542,1.387814 2.649558,-0.883206 5.25698,-3.574738 6.43455,-5.425216 1.17757,-1.850479 0.92524,-2.859802 0.42056,-4.457934 z m -2.78319,-2.73748 c -2.650241,1.204655 -5.30048,2.409309 -7.26236,3.958171 -1.96188,1.548862 -3.235347,3.441853 -4.508839,5.334883 -0.27535,-0.722793 -0.5507,-1.445586 -0.240923,-3.046082 0.309778,-1.600495 1.204646,-4.078593 3.114915,-5.593022 1.910268,-1.514429 4.835801,-2.065118 6.487903,-2.013483 1.652102,0.05164 2.030704,0.705577 2.409304,1.359533 z m 1.23908,3.304197 c -2.030706,0.826049 -4.061413,1.652099 -5.92004,2.960028 -1.858628,1.307929 -3.545112,3.097667 -5.231629,4.88744 1.927448,0.413025 3.854897,0.826049 5.902832,0.240915 2.047935,-0.585135 4.216267,-2.168363 5.111147,-3.682801 0.89489,-1.514439 0.51629,-2.959996 0.13769,-4.405582 z" /><path
       style="fill:#5e2760;fill-opacity:1;fill-rule:evenodd;stroke-width:0.264999;paint-order:stroke markers fill"
       d="m 118.67574,39.925715 c -0.44744,-0.309769 -0.75721,-1.273493 -0.27533,-1.858614 0.48187,-0.585121 1.75534,-0.791629 2.96,-0.01719 1.20467,0.774439 2.34046,2.529756 2.30603,3.252547 -0.0344,0.72279 -1.23906,0.413027 -1.99627,-0.05163 -0.75722,-0.464659 -1.06698,-1.084182 -1.51443,-1.221854 -0.44745,-0.137671 -1.03256,0.206512 -1.48,-0.103257 z"
       id="path4"
       inkscape:path-effect="#path-effect4"
       inkscape:original-d="m 118.53807,40.579669 c -0.30977,-0.963723 -0.61954,-1.927447 -0.92931,-2.891173 1.27352,-0.206516 2.54699,-0.413023 3.82048,-0.619535 1.13584,1.755388 2.27163,3.510708 3.40745,5.266062 -1.20468,-0.309774 -2.40931,-0.619537 -3.61396,-0.929306 -0.30978,-0.619548 -0.61954,-1.239073 -0.92931,-1.858611 -0.58513,0.344194 -1.17024,0.688375 -1.75535,1.032563 z" /><path
       style="fill:#335c5b;fill-opacity:1;fill-rule:evenodd;stroke-width:0.264999;paint-order:stroke markers fill"
       inkscape:path-effect="#path-effect7"
       inkscape:original-d="m 141.87396,46.775039 c 0,0 0.27535,-0.826049 0.41302,-1.239074 -1.78981,-0.309775 -3.57954,-0.619537 -5.36932,-0.929305 -3.33868,1.996325 -6.67723,3.992571 -10.01584,5.988857 -3.68288,2.719133 -7.36561,5.438157 -11.04841,8.157236 -1.27352,2.374939 -2.54699,4.749783 -3.82048,7.124675 0.92932,-0.688388 1.85861,-1.376749 2.78792,-2.065123 4.40568,-4.027071 8.81119,-8.053981 13.21678,-12.080971 3.7173,-1.652131 7.43445,-3.304197 11.15167,-4.956295 0.8949,0 2.68466,0 2.68466,0 z"
       d="m 141.87396,46.775039 c 0.13767,-0.413025 0.27535,-0.82605 -0.55072,-1.187449 -0.82607,-0.3614 -2.6158,-0.671161 -5.18003,0.172117 -2.56423,0.843278 -5.90278,2.839526 -9.41352,5.197235 -3.51075,2.357709 -7.19348,5.076734 -9.67164,7.623742 -2.47816,2.547009 -3.75163,4.921853 -3.92371,5.765106 -0.17209,0.843252 0.7572,0.154891 3.4247,-2.202832 2.66749,-2.357723 7.073,-6.384635 11.13444,-9.224196 4.06145,-2.83956 7.7786,-4.491626 10.08466,-5.317674 2.30606,-0.826049 3.20093,-0.826049 4.09582,-0.826049 z"
       id="path6"
       transform="translate(-0.39548106,0.69209185)" /><path
       style="fill:#325c5a;fill-opacity:1;fill-rule:evenodd;stroke-width:0.264999;paint-order:stroke markers fill"
       inkscape:path-effect="#path-effect9"
       inkscape:original-d="m 106.04407,40.992694 c 0,0 0.41303,-2.615822 0.61954,-3.923734 2.58145,-0.58513 5.16281,-1.170236 7.74421,-1.755355 0.14191,1.340768 0.42571,4.022228 0.42571,4.022228 0,0 -1.81935,1.106506 -2.72902,1.659759 -1.09218,0.115281 -2.18436,0.230562 -3.27654,0.345843 z"
       d="m 106.04407,40.992694 c 0.20651,-1.307911 0.41303,-2.615823 1.80701,-3.562343 1.39398,-0.94652 3.97534,-1.531628 5.33699,-1.153803 1.36166,0.377825 1.50356,1.718542 1.64546,3.059285 -0.90967,0.553253 -1.81935,1.106507 -2.82027,1.440774 -1.00093,0.334266 -2.09311,0.449547 -2.6392,0.507187 -0.54609,0.05764 -3.32999,-0.2911 -3.32999,-0.2911 z"
       id="path7"
       sodipodi:nodetypes="ccccccc" /><path
       style="fill:#5e2760;fill-opacity:1;fill-rule:evenodd;stroke-width:0.264999;paint-order:stroke markers fill"
       inkscape:path-effect="#path-effect5"
       inkscape:original-d="m 130.82555,37.275473 c -0.82605,-1.376749 -1.6521,-2.753497 -2.47815,-4.130246 1.20468,-0.516292 2.40931,-1.032563 3.61397,-1.548844 0.41303,0.65397 0.82604,1.307912 1.23907,1.961866 -0.65397,-0.03442 -1.30791,-0.06884 -1.96187,-0.103256 -0.37861,0.447453 -0.75721,0.894887 -1.13581,1.342332 0.24093,0.826066 0.48186,1.652098 0.72279,2.478148 z"
       d="m 130.29206,36.174074 c -0.29256,-0.27535 -1.11861,-1.652098 -0.92929,-2.598618 0.18931,-0.94652 1.39394,-1.462791 2.20279,-1.393947 0.80884,0.06884 1.22186,0.722783 1.10138,1.032552 -0.12047,0.309769 -0.77441,0.275351 -1.2907,0.481868 -0.51628,0.206517 -0.89488,0.653953 -0.96371,1.290707 -0.0688,0.636754 0.17209,1.462787 -0.12047,1.187438 z"
       id="path5"
       transform="matrix(1.08847,0,0,1.2195411,-11.442263,-7.0638224)" /><path
       style="fill:#325c5a;fill-opacity:1;fill-rule:evenodd;stroke-width:0.264999;paint-order:stroke markers fill"
       d="m 142.28698,51.421566 c -1.72094,0.137674 -3.44187,0.275348 -7.65823,2.684704 -4.21636,2.409357 -10.92788,7.090211 -15.00651,9.275797 -4.07863,2.185586 -5.52419,1.875824 -5.88558,2.030714 -0.36139,0.154891 0.36139,0.774416 2.28887,0.619521 1.92748,-0.154895 5.05952,-1.084182 8.84562,-3.149337 3.78611,-2.065156 8.22603,-5.26603 10.92791,-6.88371 2.70188,-1.617681 3.66559,-1.652099 4.45722,-2.15118 0.79164,-0.499081 1.41116,-1.462785 2.0307,-2.426509 z"
       id="path9"
       inkscape:path-effect="#path-effect10"
       inkscape:original-d="m 142.28698,51.421566 c 0,0 -3.44187,0.27535 -5.16281,0.413023 -6.71178,4.68104 -13.4233,9.361892 -20.13495,14.042837 -1.44561,-0.309774 -2.89117,-0.619535 -4.33676,-0.929304 0.72281,0.619548 1.44559,1.239073 2.16838,1.858611 3.13217,-0.929326 6.26421,-1.858611 9.39631,-2.787918 4.44011,-3.201003 8.88003,-6.401882 13.32005,-9.602821 0.96374,-0.03442 1.92745,-0.06884 2.89117,-0.103257 0.61955,-0.963742 1.85861,-2.891171 1.85861,-2.891171 z" /><path
       style="fill:#5e2760;fill-opacity:1;fill-rule:evenodd;stroke-width:0.264999;paint-order:stroke markers fill"
       d="m 116.44811,73.228656 c 0.34917,-0.0388 1.04751,-0.11639 1.41608,0.232787 0.36857,0.349178 0.40736,1.125095 0.0485,1.52276 -0.35888,0.397665 -1.1154,0.417061 -1.48396,0.06788 -0.36857,-0.349179 -0.34917,-1.0669 -0.33947,-1.425769 0.01,-0.358869 0.01,-0.358864 0.35886,-0.397661 z"
       id="path10"
       inkscape:path-effect="#path-effect11"
       inkscape:original-d="m 116.09894,73.267453 c 0.69834,-0.0776 1.39668,-0.155186 2.09502,-0.232781 0.0388,0.775949 0.0776,1.551866 0.11639,2.327799 -0.75655,0.01939 -1.51307,0.0388 -2.2696,0.05819 0.0194,-0.717754 0.0388,-1.435475 0.0582,-2.153213 z" /><path
       style="fill:#5e2760;fill-opacity:1;fill-rule:evenodd;stroke-width:0.264999;paint-order:stroke markers fill"
       d="m 112.61695,78.572892 c 0.18428,-0.184283 0.55284,-0.184283 0.73712,5e-6 0.18429,0.184287 0.18429,0.552849 0,0.737133 -0.18428,0.184283 -0.55284,0.184283 -0.73712,-5e-6 -0.18429,-0.184287 -0.18429,-0.552849 0,-0.737133 z"
       id="path11"
       inkscape:path-effect="#path-effect12"
       inkscape:original-d="m 112.43266,78.388609 c 0.36857,0 0.73713,0 1.1057,0 0,0.368575 0,0.737137 0,1.105704 -0.36857,0 -0.73713,0 -1.1057,0 0,-0.368575 0,-0.737137 0,-1.105704 z" /><path
       style="fill:#5e2760;fill-opacity:1;fill-rule:evenodd;stroke-width:0.264999;paint-order:stroke markers fill"
       d="m 101.30772,76.119004 c 0.12609,-0.290975 0.59165,-0.290975 0.69834,6e-6 0.10669,0.29098 -0.14548,0.872922 -0.37827,0.872914 -0.23278,-7e-6 -0.44616,-0.581945 -0.32007,-0.87292 z"
       id="path12"
       inkscape:path-effect="#path-effect13"
       inkscape:original-d="m 100.96825,75.828029 c 0.46556,0 0.93112,0 1.39668,0 -0.25218,0.581962 -0.50436,1.1639 -0.75653,1.745851 -0.21339,-0.581962 -0.42677,-1.1639 -0.64015,-1.745851 z" /><path
       style="fill:#5e2760;fill-opacity:1;fill-rule:evenodd;stroke-width:0.264999;paint-order:stroke markers fill"
       d="m 111.09417,83.577659 c 0.36857,-0.436462 1.49368,-0.514056 1.68765,-0.116382 0.19398,0.397674 -0.54315,1.270585 -1.1057,1.309373 -0.56255,0.03879 -0.95051,-0.756528 -0.58195,-1.192991 z"
       id="path14"
       inkscape:path-effect="#path-effect15"
       inkscape:original-d="m 110.33764,83.218789 c 1.1251,-0.07759 2.25021,-0.155186 3.37531,-0.232778 -0.73715,0.87294 -1.47428,1.745848 -2.21141,2.618772 -0.38797,-0.795346 -0.77593,-1.590662 -1.1639,-2.385994 z" /><path
       style="fill:#5e2760;fill-opacity:1;fill-rule:evenodd;stroke-width:0.264999;paint-order:stroke markers fill"
       d="m 106.63256,81.977298 c 0.21338,-0.446162 1.37728,-0.387967 1.74584,0.0873 0.36857,0.475266 -0.0582,1.367573 -0.64014,1.338466 -0.58196,-0.02911 -1.31908,-0.979604 -1.1057,-1.425766 z"
       id="path15"
       inkscape:path-effect="#path-effect16"
       inkscape:original-d="m 105.68204,81.472941 c 1.1639,0.05819 2.3278,0.11639 3.4917,0.174585 -0.42677,0.892339 -0.85353,1.784644 -1.28029,2.676967 -0.73715,-0.950537 -1.47427,-1.901034 -2.21141,-2.851552 z" /><path
       style="fill:#5e2760;fill-opacity:1;fill-rule:evenodd;stroke-width:0.264999;paint-order:stroke markers fill"
       d="m 108.92157,86.565 c 0.097,-0.320071 0.58194,-0.320071 0.72743,8e-6 0.14548,0.320079 -0.0485,0.960209 -0.29098,0.960202 -0.24248,-7e-6 -0.53345,-0.640139 -0.43645,-0.96021 z"
       id="path16"
       inkscape:path-effect="#path-effect17"
       inkscape:original-d="m 108.5336,86.244929 c 0.48496,0 0.96991,0 1.45487,0 -0.19399,0.640157 -0.38797,1.280287 -0.58195,1.920433 -0.29098,-0.640159 -0.58195,-1.28029 -0.87292,-1.920433 z" /><path
       style="fill:#5e2760;fill-opacity:1;fill-rule:evenodd;stroke-width:0.264999;paint-order:stroke markers fill"
       d="m 110.91959,88.621222 c 0.52376,-0.0097 1.57126,-0.02909 1.73614,0.465573 0.16488,0.494669 -0.55284,1.50336 -1.0766,1.513049 -0.52376,0.0097 -0.85352,-0.979605 -1.01841,-1.474262 -0.16488,-0.494657 -0.16488,-0.494662 0.35887,-0.50436 z"
       id="path17"
       inkscape:path-effect="#path-effect18"
       inkscape:original-d="m 110.39584,88.63092 c 1.04751,-0.01939 2.09501,-0.0388 3.14252,-0.05819 -0.71775,1.008735 -1.43547,2.017427 -2.15321,3.026138 -0.32978,-0.989333 -0.65954,-1.978629 -0.98931,-2.967943 z" /><path
       style="fill:#5e2760;fill-opacity:1;fill-rule:evenodd;stroke-width:0.264999;paint-order:stroke markers fill"
       d="m 115.01264,89.028587 c 0.23278,-0.35887 0.89232,-0.320073 0.98931,0.0582 0.097,0.378275 -0.36857,1.095997 -0.69834,1.076591 -0.32978,-0.01941 -0.52376,-0.775924 -0.29097,-1.134793 z"
       id="path18"
       inkscape:path-effect="#path-effect19"
       inkscape:original-d="m 114.58587,88.63092 c 0.65955,0.0388 1.31909,0.0776 1.97863,0.11639 -0.46557,0.717754 -0.93112,1.435476 -1.39668,2.153214 -0.19399,-0.75655 -0.38797,-1.513067 -0.58195,-2.269604 z" /><path
       style="fill:#5e2760;fill-opacity:1;fill-rule:evenodd;stroke-width:0.264999;paint-order:stroke markers fill"
       d="m 127.71853,64.431517 c -0.40736,-0.378267 -1.29968,-0.0485 -1.33847,0.494666 -0.0388,0.543162 0.77592,1.299679 1.22208,1.134782 0.44617,-0.164897 0.52376,-1.25118 0.11639,-1.629448 z"
       id="path19"
       inkscape:path-effect="#path-effect20"
       inkscape:original-d="m 128.20349,63.72348 c -0.89232,0.329771 -1.78464,0.659542 -2.67697,0.989314 0.81475,0.756549 1.62946,1.513067 2.44419,2.269603 0.0776,-1.086329 0.15519,-2.172612 0.23278,-3.258917 z" /><path
       style="fill:#5e2760;fill-opacity:1;fill-rule:evenodd;stroke-width:0.264999;paint-order:stroke markers fill"
       d="m 119.35786,71.201532 c 0.34917,-0.397667 1.57126,-0.24248 1.83313,0.232788 0.26187,0.475269 -0.43645,1.270581 -1.0475,1.192978 -0.61106,-0.0776 -1.1348,-1.0281 -0.78563,-1.425766 z"
       id="path20"
       inkscape:path-effect="#path-effect21"
       inkscape:original-d="m 118.48493,70.648678 c 1.2221,0.155186 2.44419,0.310375 3.66629,0.465561 -0.69836,0.795346 -1.39668,1.590662 -2.09502,2.385994 -0.52377,-0.950537 -1.04751,-1.901036 -1.57127,-2.851555 z" /><path
       style="fill:#5e2760;fill-opacity:1;fill-rule:evenodd;stroke-width:0.264999;paint-order:stroke markers fill"
       d="m 138.4943,52.220276 c -0.0873,-0.0388 -1.93013,0.523754 -5.0727,2.269633 -3.14258,1.74588 -7.5847,4.674963 -11.04733,6.721497 -3.46262,2.046535 -5.94556,3.210414 -7.44893,3.695369 -1.50338,0.484955 -2.02712,0.290978 -1.98832,0.358874 0.0388,0.0679 0.64014,0.397663 2.38602,-0.08731 1.74588,-0.484972 4.63617,-1.784633 8.14731,-3.860281 3.51113,-2.075649 7.64289,-4.927145 10.54295,-6.673001 2.90007,-1.745855 4.56829,-2.385985 4.481,-2.424782 z"
       id="path22"
       inkscape:path-effect="#path-effect23"
       inkscape:original-d="m 140.24985,51.618927 c -1.84284,0.562552 -3.68568,1.125104 -5.52852,1.687655 -4.44231,2.929205 -8.88443,5.858291 -13.32665,8.787437 -2.48303,1.163923 -4.96597,2.327799 -7.44895,3.491699 -0.52377,-0.193988 -1.04751,-0.387967 -1.57127,-0.581949 0.60136,0.329777 1.2027,0.659543 1.80405,0.989314 2.89041,-1.299715 5.7807,-2.599375 8.67105,-3.899064 4.13192,-2.85161 8.26368,-5.703104 12.39552,-8.554659 1.66829,-0.640156 3.33651,-1.280287 5.00477,-1.920433 z" /></g></svg>
